Veleka-Regular.ufo
<glyph name="exclam" format="1">
  <advance width="337"/>
  <unicode hex="0021"/>
  <outline>
    <contour>
      <point x="169" y="111" type="curve" smooth="yes"/>
      <point x="204" y="111"/>
      <point x="231" y="85"/>
      <point x="231" y="50" type="curve" smooth="yes"/>
      <point x="231" y="15"/>
      <point x="204" y="-12"/>
      <point x="169" y="-12" type="curve" smooth="yes"/>
      <point x="134" y="-12"/>
      <point x="108" y="15"/>
      <point x="108" y="50" type="curve" smooth="yes"/>
      <point x="108" y="86"/>
      <point x="133" y="111"/>
    </contour>
    <contour>
      <point x="169" y="687" type="curve"/>
      <point x="168" y="686" type="line"/>
      <point x="210" y="686"/>
      <point x="229" y="662"/>
      <point x="229" y="621" type="curve" smooth="yes"/>
      <point x="229" y="600"/>
      <point x="226" y="573"/>
      <point x="224" y="545" type="curve" smooth="yes"/>
      <point x="214" y="418"/>
      <point x="205" y="316"/>
      <point x="194" y="180" type="curve"/>
      <point x="145" y="180" type="line"/>
      <point x="132" y="332"/>
      <point x="120" y="451"/>
      <point x="109" y="598" type="curve" smooth="yes"/>
      <point x="108" y="612"/>
      <point x="108" y="620"/>
      <point x="108" y="622" type="curve" smooth="yes"/>
      <point x="108" y="663"/>
      <point x="127" y="687"/>
    </contour>
  </outline>
</glyph>
<glyph name="plus" format="1">
  <advance width="1000"/>
  <unicode hex="002B"/>
  <outline>
    <contour>
      <point x="531" y="269" type="line"/>
      <point x="531" y="0" type="line"/>
      <point x="469" y="0" type="line"/>
      <point x="469" y="269" type="line"/>
      <point x="200" y="269" type="line"/>
      <point x="200" y="331" type="line"/>
      <point x="469" y="331" type="line"/>
      <point x="469" y="600" type="line"/>
      <point x="531" y="600" type="line"/>
      <point x="531" y="331" type="line"/>
      <point x="800" y="331" type="line"/>
      <point x="800" y="269" type="line"/>
    </contour>
  </outline>
</glyph>
<glyph name="nine" format="1">
  <advance width="562"/>
  <unicode hex="0039"/>
  <outline>
    <contour>
      <point x="141" y="455" type="curve" smooth="yes"/>
      <point x="141" y="360"/>
      <point x="188" y="299"/>
      <point x="282" y="299" type="curve" smooth="yes"/>
      <point x="339" y="299"/>
      <point x="383" y="324"/>
      <point x="417" y="349" type="curve"/>
      <point x="418" y="367"/>
      <point x="419" y="386"/>
      <point x="419" y="404" type="curve" smooth="yes"/>
      <point x="419" y="498"/>
      <point x="400" y="581"/>
      <point x="344" y="618" type="curve" smooth="yes"/>
      <point x="327" y="629"/>
      <point x="306" y="635"/>
      <point x="282" y="635" type="curve" smooth="yes"/>
      <point x="182" y="635"/>
      <point x="141" y="555"/>
    </contour>
    <contour>
      <point x="415" y="297" type="curve"/>
      <point x="415" y="298" type="line"/>
      <point x="373" y="262"/>
      <point x="324" y="235"/>
      <point x="248" y="235" type="curve" smooth="yes"/>
      <point x="148" y="235"/>
      <point x="83" y="287"/>
      <point x="54" y="359" type="curve" smooth="yes"/>
      <point x="44" y="384"/>
      <point x="39" y="412"/>
      <point x="39" y="442" type="curve" smooth="yes"/>
      <point x="39" y="520"/>
      <point x="69" y="579"/>
      <point x="109" y="619" type="curve" smooth="yes"/>
      <point x="148" y="658"/>
      <point x="206" y="687"/>
      <point x="280" y="687" type="curve" smooth="yes"/>
      <point x="403" y="687"/>
      <point x="472" y="621"/>
      <point x="503" y="524" type="curve" smooth="yes"/>
      <point x="515" y="485"/>
      <point x="521" y="438"/>
      <point x="521" y="383" type="curve" smooth="yes"/>
      <point x="521" y="191"/>
      <point x="430" y="67"/>
      <point x="290" y="12" type="curve" smooth="yes"/>
      <point x="240" y="-7"/>
      <point x="184" y="-17"/>
      <point x="121" y="-17" type="curve"/>
      <point x="121" y="45" type="line"/>
      <point x="155" y="44" type="line" smooth="yes"/>
      <point x="271" y="42"/>
      <point x="343" y="110"/>
      <point x="383" y="190" type="curve" smooth="yes"/>
      <point x="399" y="221"/>
      <point x="410" y="257"/>
    </contour>
  </outline>
</glyph>
<glyph name="question" format="1">
  <advance width="485"/>
  <unicode hex="003F"/>
  <outline>
    <contour>
      <point x="115" y="535" type="line"/>
      <point x="116" y="534" type="line"/>
      <point x="78" y="534"/>
      <point x="51" y="550"/>
      <point x="51" y="588" type="curve" smooth="yes"/>
      <point x="51" y="640"/>
      <point x="96" y="665"/>
      <point x="139" y="678" type="curve" smooth="yes"/>
      <point x="159" y="684"/>
      <point x="183" y="687"/>
      <point x="210" y="687" type="curve" smooth="yes"/>
      <point x="304" y="687"/>
      <point x="370" y="646"/>
      <point x="401" y="582" type="curve" smooth="yes"/>
      <point x="412" y="560"/>
      <point x="417" y="535"/>
      <point x="417" y="508" type="curve" smooth="yes"/>
      <point x="417" y="382"/>
      <point x="315" y="328"/>
      <point x="227" y="291" type="curve"/>
      <point x="227" y="180" type="line"/>
      <point x="171" y="180" type="line"/>
      <point x="171" y="325" type="line"/>
      <point x="228" y="345"/>
      <point x="276" y="381"/>
      <point x="302" y="434" type="curve" smooth="yes"/>
      <point x="311" y="453"/>
      <point x="316" y="475"/>
      <point x="316" y="500" type="curve" smooth="yes"/>
      <point x="316" y="593"/>
      <point x="265" y="638"/>
      <point x="173" y="638" type="curve"/>
      <point x="132" y="536" type="line"/>
      <point x="124" y="536" type="line" smooth="yes"/>
      <point x="122" y="536"/>
      <point x="120" y="536"/>
      <point x="119" y="535" type="curve" smooth="yes"/>
    </contour>
    <contour>
      <point x="140" y="49" type="curve" smooth="yes"/>
      <point x="140" y="85"/>
      <point x="165" y="110"/>
      <point x="201" y="110" type="curve" smooth="yes"/>
      <point x="236" y="110"/>
      <point x="263" y="83"/>
      <point x="263" y="48" type="curve" smooth="yes"/>
      <point x="263" y="13"/>
      <point x="236" y="-13"/>
      <point x="201" y="-13" type="curve" smooth="yes"/>
      <point x="166" y="-13"/>
      <point x="140" y="14"/>
    </contour>
  </outline>
</glyph>
<glyph name="J" format="1">
  <advance width="484"/>
  <unicode hex="004A"/>
  <outline>
    <contour>
      <point x="153" y="35" type="curve"/>
      <point x="153" y="34" type="line"/>
      <point x="261" y="34"/>
      <point x="279" y="134"/>
      <point x="279" y="245" type="curve" smooth="yes"/>
      <point x="279" y="601" type="line" smooth="yes"/>
      <point x="279" y="613"/>
      <point x="270" y="622"/>
      <point x="258" y="623" type="curve" smooth="yes"/>
      <point x="195" y="627" type="line"/>
      <point x="195" y="670" type="line"/>
      <point x="459" y="670" type="line"/>
      <point x="459" y="627" type="line"/>
      <point x="401" y="623" type="line" smooth="yes"/>
      <point x="390" y="622"/>
      <point x="380" y="612"/>
      <point x="380" y="601" type="curve" smooth="yes"/>
      <point x="380" y="252" type="line" smooth="yes"/>
      <point x="380" y="89"/>
      <point x="324" y="-17"/>
      <point x="160" y="-17" type="curve" smooth="yes"/>
      <point x="115" y="-17"/>
      <point x="71" y="-6"/>
      <point x="39" y="6" type="curve" smooth="yes"/>
      <point x="31" y="9"/>
      <point x="26" y="11"/>
      <point x="25" y="12" type="curve" smooth="yes"/>
      <point x="25" y="183" type="line"/>
      <point x="85" y="183" type="line"/>
      <point x="107" y="61" type="line" smooth="yes"/>
      <point x="110" y="42"/>
      <point x="132" y="35"/>
    </contour>
  </outline>
</glyph>
<glyph name="O" format="1">
  <advance width="730"/>
  <unicode hex="004F"/>
  <outline>
    <contour>
      <point x="576" y="337" type="curve" smooth="yes"/>
      <point x="576" y="466.555"/>
      <point x="518" y="628"/>
      <point x="368" y="628" type="curve" smooth="yes"/>
      <point x="218" y="628"/>
      <point x="155" y="466.555"/>
      <point x="155" y="337" type="curve" smooth="yes"/>
      <point x="155" y="207"/>
      <point x="214" y="39"/>
      <point x="364" y="39" type="curve" smooth="yes"/>
      <point x="514" y="39"/>
      <point x="576" y="207"/>
    </contour>
    <contour>
      <point x="693" y="337" type="curve" smooth="yes"/>
      <point x="693" y="147"/>
      <point x="556" y="-15"/>
      <point x="366" y="-15" type="curve" smooth="yes"/>
      <point x="176" y="-15"/>
      <point x="39" y="147"/>
      <point x="39" y="337" type="curve" smooth="yes"/>
      <point x="39" y="526.457"/>
      <point x="176" y="686"/>
      <point x="366" y="686" type="curve" smooth="yes"/>
      <point x="556" y="686"/>
      <point x="693" y="526.457"/>
    </contour>
  </outline>
</glyph>
<glyph name="Q" format="1">
  <advance width="738"/>
  <unicode hex="0051"/>
  <outline>
    <contour>
      <point x="582" y="335" type="curve"/>
      <point x="583" y="333" type="line"/>
      <point x="583" y="458"/>
      <point x="544" y="558"/>
      <point x="465" y="605" type="curve" smooth="yes"/>
      <point x="438" y="621"/>
      <point x="406" y="629"/>
      <point x="369" y="629" type="curve" smooth="yes"/>
      <point x="290" y="629"/>
      <point x="240" y="591"/>
      <point x="208" y="541" type="curve" smooth="yes"/>
      <point x="175" y="490"/>
      <point x="157" y="417"/>
      <point x="157" y="335" type="curve" smooth="yes"/>
      <point x="157" y="210"/>
      <point x="198" y="110"/>
      <point x="276" y="62" type="curve" smooth="yes"/>
      <point x="303" y="46"/>
      <point x="334" y="38"/>
      <point x="370" y="38" type="curve" smooth="yes"/>
      <point x="448" y="38"/>
      <point x="498" y="77"/>
      <point x="530" y="127" type="curve" smooth="yes"/>
      <point x="563" y="179"/>
      <point x="582" y="252"/>
    </contour>
    <contour>
      <point x="511" y="-183" type="curve"/>
      <point x="511" y="-185" type="line"/>
      <point x="389" y="-185"/>
      <point x="318" y="-138"/>
      <point x="318" y="-17" type="curve"/>
      <point x="186" y="3"/>
      <point x="100" y="84"/>
      <point x="60" y="198" type="curve" smooth="yes"/>
      <point x="46" y="238"/>
      <point x="39" y="283"/>
      <point x="39" y="332" type="curve" smooth="yes"/>
      <point x="39" y="441"/>
      <point x="76" y="523"/>
      <point x="128" y="582" type="curve" smooth="yes"/>
      <point x="181" y="641"/>
      <point x="258" y="685"/>
      <point x="368" y="685" type="curve" smooth="yes"/>
      <point x="476" y="685"/>
      <point x="557" y="641"/>
      <point x="610" y="583" type="curve" smooth="yes"/>
      <point x="663" y="525"/>
      <point x="700" y="439"/>
      <point x="700" y="333" type="curve" smooth="yes"/>
      <point x="700" y="184"/>
      <point x="635" y="84"/>
      <point x="540" y="28" type="curve" smooth="yes"/>
      <point x="506" y="8"/>
      <point x="467" y="-6"/>
      <point x="424" y="-13" type="curve"/>
      <point x="425" y="-93"/>
      <point x="476" y="-134"/>
      <point x="562" y="-134" type="curve" smooth="yes"/>
      <point x="593" y="-134"/>
      <point x="622" y="-130"/>
      <point x="647" y="-126" type="curve" smooth="yes"/>
      <point x="653" y="-125"/>
      <point x="657" y="-124"/>
      <point x="659" y="-123" type="curve" smooth="yes"/>
      <point x="659" y="-166" type="line"/>
      <point x="616" y="-175"/>
      <point x="565" y="-183"/>
    </contour>
  </outline>
</glyph>
<glyph name="backslash" format="1">
  <advance width="488"/>
  <unicode hex="005C"/>
  <outline>
    <contour>
      <point x="425" y="-93" type="line"/>
      <point x="0" y="671" type="line"/>
      <point x="64" y="671" type="line"/>
      <point x="489" y="-93" type="line"/>
    </contour>
  </outline>
</glyph>
<glyph name="underscore" format="1">
  <advance width="334"/>
  <unicode hex="005F"/>
  <outline>
    <contour>
      <point x="0" y="-149" type="line"/>
      <point x="0" y="-85" type="line"/>
      <point x="335" y="-85" type="line"/>
      <point x="335" y="-149" type="line"/>
    </contour>
  </outline>
</glyph>
<glyph name="t" format="1">
  <advance width="339"/>
  <unicode hex="0074"/>
  <outline>
    <contour>
      <point x="264" y="44" type="curve" smooth="yes"/>
      <point x="263" y="44" type="line" smooth="yes"/>
      <point x="291" y="44"/>
      <point x="314" y="51"/>
      <point x="332" y="61" type="curve"/>
      <point x="332" y="21" type="line"/>
      <point x="296" y="4"/>
      <point x="252" y="-12"/>
      <point x="198" y="-12" type="curve" smooth="yes"/>
      <point x="121" y="-12"/>
      <point x="91" y="22"/>
      <point x="91" y="100" type="curve" smooth="yes"/>
      <point x="91" y="432" type="line"/>
      <point x="27" y="432" type="line"/>
      <point x="27" y="465" type="line"/>
      <point x="95" y="497" type="line"/>
      <point x="140" y="603" type="line"/>
      <point x="184" y="603" type="line"/>
      <point x="184" y="482" type="line"/>
      <point x="325" y="482" type="line"/>
      <point x="325" y="432" type="line"/>
      <point x="184" y="432" type="line"/>
      <point x="184" y="153" type="line" smooth="yes"/>
      <point x="184" y="88"/>
      <point x="201" y="44"/>
    </contour>
  </outline>
</glyph>
<glyph name="bar" format="1">
  <advance width="353"/>
  <unicode hex="007C"/>
  <outline>
    <contour>
      <point x="146" y="-258" type="line"/>
      <point x="146" y="796" type="line"/>
      <point x="207" y="796" type="line"/>
      <point x="207" y="-258" type="line"/>
    </contour>
  </outline>
</glyph>
<glyph name="diaeresis" format="1">
  <advance width="315"/>
  <unicode hex="00A8"/>
  <outline>
    <contour>
      <point x="55" y="696" type="curve" smooth="yes"/>
      <point x="86" y="696"/>
      <point x="109" y="671"/>
      <point x="109" y="641" type="curve" smooth="yes"/>
      <point x="109" y="610"/>
      <point x="86" y="585"/>
      <point x="55" y="585" type="curve" smooth="yes"/>
      <point x="24" y="585"/>
      <point x="0" y="609"/>
      <point x="0" y="640" type="curve" smooth="yes"/>
      <point x="0" y="671"/>
      <point x="24" y="696"/>
    </contour>
    <contour>
      <point x="263" y="696" type="curve" smooth="yes"/>
      <point x="293" y="696"/>
      <point x="316" y="672"/>
      <point x="316" y="641" type="curve" smooth="yes"/>
      <point x="316" y="610"/>
      <point x="294" y="585"/>
      <point x="263" y="585" type="curve" smooth="yes"/>
      <point x="231" y="585"/>
      <point x="207" y="609"/>
      <point x="207" y="641" type="curve" smooth="yes"/>
      <point x="207" y="671"/>
      <point x="233" y="696"/>
    </contour>
  </outline>
</glyph>
<glyph name="guillemotleft" format="1">
  <advance width="441"/>
  <unicode hex="00AB"/>
  <outline>
    <contour>
      <point x="212" y="215" type="line"/>
      <point x="212" y="266" type="line"/>
      <point x="374" y="482" type="line"/>
      <point x="422" y="482" type="line"/>
      <point x="298" y="241" type="line"/>
      <point x="422" y="0" type="line"/>
      <point x="374" y="0" type="line"/>
    </contour>
    <contour>
      <point x="27" y="215" type="line"/>
      <point x="27" y="266" type="line"/>
      <point x="188" y="482" type="line"/>
      <point x="237" y="482" type="line"/>
      <point x="112" y="241" type="line"/>
      <point x="237" y="0" type="line"/>
      <point x="188" y="0" type="line"/>
    </contour>
  </outline>
</glyph>
<glyph name="registered" format="1">
  <advance width="836"/>
  <unicode hex="00AE"/>
  <outline>
    <contour>
      <point x="377" y="368" type="curve" smooth="yes"/>
      <point x="451" y="368"/>
      <point x="499" y="388"/>
      <point x="499" y="461" type="curve" smooth="yes"/>
      <point x="499" y="529"/>
      <point x="445" y="549"/>
      <point x="374" y="549" type="curve" smooth="yes"/>
      <point x="340" y="549" type="line"/>
      <point x="340" y="369" type="line"/>
      <point x="355" y="369" type="line" smooth="yes"/>
      <point x="362" y="369"/>
      <point x="371" y="368"/>
    </contour>
    <contour>
      <point x="577" y="464" type="curve"/>
      <point x="576" y="465" type="line"/>
      <point x="576" y="394"/>
      <point x="518" y="369"/>
      <point x="459" y="356" type="curve"/>
      <point x="505" y="345"/>
      <point x="537" y="324"/>
      <point x="549" y="282" type="curve" smooth="yes"/>
      <point x="558" y="251"/>
      <point x="562" y="214"/>
      <point x="583" y="194" type="curve" smooth="yes"/>
      <point x="601" y="177"/>
      <point x="627" y="170"/>
      <point x="666" y="170" type="curve"/>
      <point x="666" y="143" type="line"/>
      <point x="649" y="143"/>
      <point x="627" y="138"/>
      <point x="608" y="138" type="curve" smooth="yes"/>
      <point x="550" y="138"/>
      <point x="518" y="160"/>
      <point x="503" y="201" type="curve" smooth="yes"/>
      <point x="490" y="236"/>
      <point x="482" y="280"/>
      <point x="459" y="306" type="curve" smooth="yes"/>
      <point x="441" y="327"/>
      <point x="414" y="337"/>
      <point x="373" y="337" type="curve" smooth="yes"/>
      <point x="364" y="337"/>
      <point x="347" y="336"/>
      <point x="340" y="336" type="curve"/>
      <point x="340" y="187" type="line" smooth="yes"/>
      <point x="340" y="180"/>
      <point x="348" y="174"/>
      <point x="355" y="173" type="curve" smooth="yes"/>
      <point x="393" y="170" type="line"/>
      <point x="393" y="142" type="line"/>
      <point x="216" y="142" type="line"/>
      <point x="216" y="170" type="line"/>
      <point x="254" y="173" type="line" smooth="yes"/>
      <point x="262" y="174"/>
      <point x="269" y="179"/>
      <point x="269" y="187" type="curve" smooth="yes"/>
      <point x="269" y="535" type="line" smooth="yes"/>
      <point x="269" y="543"/>
      <point x="262" y="548"/>
      <point x="254" y="549" type="curve" smooth="yes"/>
      <point x="216" y="552" type="line"/>
      <point x="216" y="580" type="line"/>
      <point x="402" y="580" type="line" smooth="yes"/>
      <point x="498" y="580"/>
      <point x="577" y="559"/>
    </contour>
    <contour>
      <point x="759" y="351" type="curve" smooth="yes"/>
      <point x="759" y="459"/>
      <point x="714" y="539"/>
      <point x="659" y="595" type="curve" smooth="yes"/>
      <point x="604" y="651"/>
      <point x="525" y="697"/>
      <point x="418" y="697" type="curve" smooth="yes"/>
      <point x="311" y="697"/>
      <point x="231" y="652"/>
      <point x="176" y="597" type="curve" smooth="yes"/>
      <point x="136" y="557"/>
      <point x="106" y="506"/>
      <point x="89" y="444" type="curve" smooth="yes"/>
      <point x="81" y="414"/>
      <point x="77" y="383"/>
      <point x="77" y="350" type="curve" smooth="yes"/>
      <point x="77" y="244"/>
      <point x="122" y="164"/>
      <point x="177" y="109" type="curve" smooth="yes"/>
      <point x="232" y="54"/>
      <point x="311" y="8"/>
      <point x="418" y="8" type="curve" smooth="yes"/>
      <point x="526" y="8"/>
      <point x="604" y="54"/>
      <point x="660" y="110" type="curve" smooth="yes"/>
      <point x="700" y="150"/>
      <point x="730" y="200"/>
      <point x="747" y="261" type="curve" smooth="yes"/>
      <point x="755" y="290"/>
      <point x="759" y="320"/>
    </contour>
    <contour>
      <point x="802" y="351" type="curve" smooth="yes"/>
      <point x="802" y="352" type="line" smooth="yes"/>
      <point x="802" y="231"/>
      <point x="752" y="141"/>
      <point x="689" y="79" type="curve" smooth="yes"/>
      <point x="644" y="34"/>
      <point x="587" y="-1"/>
      <point x="518" y="-20" type="curve" smooth="yes"/>
      <point x="485" y="-29"/>
      <point x="451" y="-34"/>
      <point x="416" y="-34" type="curve" smooth="yes"/>
      <point x="296" y="-34"/>
      <point x="208" y="17"/>
      <point x="146" y="79" type="curve" smooth="yes"/>
      <point x="101" y="124"/>
      <point x="66" y="181"/>
      <point x="47" y="249" type="curve" smooth="yes"/>
      <point x="38" y="282"/>
      <point x="33" y="316"/>
      <point x="33" y="351" type="curve" smooth="yes"/>
      <point x="33" y="472"/>
      <point x="84" y="562"/>
      <point x="146" y="625" type="curve" smooth="yes"/>
      <point x="191" y="670"/>
      <point x="247" y="705"/>
      <point x="316" y="724" type="curve" smooth="yes"/>
      <point x="349" y="733"/>
      <point x="383" y="738"/>
      <point x="418" y="738" type="curve" smooth="yes"/>
      <point x="495" y="738"/>
      <point x="560" y="715"/>
      <point x="611" y="685" type="curve" smooth="yes"/>
      <point x="695" y="636"/>
      <point x="759" y="556"/>
      <point x="788" y="453" type="curve" smooth="yes"/>
      <point x="797" y="420"/>
      <point x="802" y="386"/>
    </contour>
  </outline>
</glyph>
<glyph name="two.superior" format="1">
  <advance width="366"/>
  <unicode hex="00B2"/>
  <outline>
    <contour>
      <point x="78" y="670" type="curve"/>
      <point x="78" y="673" type="line"/>
      <point x="57" y="673"/>
      <point x="39" y="686"/>
      <point x="39" y="709" type="curve" smooth="yes"/>
      <point x="39" y="757"/>
      <point x="87" y="778"/>
      <point x="127" y="788" type="curve" smooth="yes"/>
      <point x="144" y="792"/>
      <point x="162" y="794"/>
      <point x="181" y="794" type="curve" smooth="yes"/>
      <point x="244" y="794"/>
      <point x="294" y="770"/>
      <point x="315" y="728" type="curve" smooth="yes"/>
      <point x="322" y="714"/>
      <point x="326" y="698"/>
      <point x="326" y="680" type="curve" smooth="yes"/>
      <point x="326" y="659"/>
      <point x="320" y="638"/>
      <point x="307" y="618" type="curve" smooth="yes"/>
      <point x="278" y="571"/>
      <point x="231" y="532"/>
      <point x="183" y="497" type="curve" smooth="yes"/>
      <point x="156" y="477"/>
      <point x="128" y="456"/>
      <point x="99" y="435" type="curve"/>
      <point x="292" y="435" type="line"/>
      <point x="303" y="486" type="line"/>
      <point x="335" y="486" type="line"/>
      <point x="335" y="384" type="line"/>
      <point x="31" y="384" type="line"/>
      <point x="31" y="424" type="line"/>
      <point x="122" y="494" type="line" smooth="yes"/>
      <point x="169" y="530"/>
      <point x="213" y="566"/>
      <point x="240" y="613" type="curve" smooth="yes"/>
      <point x="251" y="632"/>
      <point x="257" y="652"/>
      <point x="257" y="673" type="curve" smooth="yes"/>
      <point x="257" y="729"/>
      <point x="219" y="761"/>
      <point x="164" y="761" type="curve" smooth="yes"/>
      <point x="147" y="761"/>
      <point x="121" y="754"/>
      <point x="110" y="747" type="curve"/>
      <point x="110" y="681" type="line"/>
      <point x="103" y="674"/>
      <point x="92" y="670"/>
    </contour>
  </outline>
</glyph>
<glyph name="acute" format="1">
  <advance width="350"/>
  <unicode hex="00B4"/>
  <outline>
    <contour>
      <point x="305" y="733" type="curve" smooth="yes"/>
      <point x="306" y="733" type="line" smooth="yes"/>
      <point x="335" y="733"/>
      <point x="352" y="716"/>
      <point x="352" y="688" type="curve" smooth="yes"/>
      <point x="352" y="669"/>
      <point x="340" y="657"/>
      <point x="329" y="648" type="curve" smooth="yes"/>
      <point x="176" y="551" type="line"/>
      <point x="120" y="551" type="line"/>
      <point x="252" y="706" type="line" smooth="yes"/>
      <point x="266" y="720"/>
      <point x="276" y="733"/>
    </contour>
  </outline>
</glyph>
<glyph name="periodcentered" format="1">
  <advance width="187"/>
  <unicode hex="00B7"/>
  <outline>
    <contour>
      <point x="94" y="399" type="curve" smooth="yes"/>
      <point x="128" y="399"/>
      <point x="153" y="374"/>
      <point x="153" y="340" type="curve" smooth="yes"/>
      <point x="153" y="306"/>
      <point x="128" y="281"/>
      <point x="94" y="281" type="curve" smooth="yes"/>
      <point x="60" y="281"/>
      <point x="35" y="306"/>
      <point x="35" y="340" type="curve" smooth="yes"/>
      <point x="35" y="374"/>
      <point x="60" y="399"/>
    </contour>
  </outline>
</glyph>
<glyph name="one.superior" format="1">
  <advance width="366"/>
  <unicode hex="00B9"/>
  <outline>
    <contour>
      <point x="214" y="425" type="line" smooth="yes"/>
      <point x="214" y="418"/>
      <point x="222" y="412"/>
      <point x="229" y="412" type="curve" smooth="yes"/>
      <point x="290" y="410" type="line"/>
      <point x="290" y="383" type="line"/>
      <point x="70" y="383" type="line"/>
      <point x="70" y="410" type="line"/>
      <point x="136" y="412" type="line" smooth="yes"/>
      <point x="144" y="412"/>
      <point x="150" y="417"/>
      <point x="150" y="425" type="curve" smooth="yes"/>
      <point x="150" y="742" type="line"/>
      <point x="49" y="726" type="line"/>
      <point x="49" y="752" type="line"/>
      <point x="190" y="792" type="line"/>
      <point x="214" y="792" type="line"/>
    </contour>
  </outline>
</glyph>
<glyph name="guillemotright" format="1">
  <advance width="441"/>
  <unicode hex="00BB"/>
  <outline>
    <contour>
      <point x="229" y="267" type="line"/>
      <point x="229" y="216" type="line"/>
      <point x="68" y="0" type="line"/>
      <point x="20" y="0" type="line"/>
      <point x="144" y="241" type="line"/>
      <point x="20" y="482" type="line"/>
      <point x="68" y="482" type="line"/>
    </contour>
    <contour>
      <point x="415" y="267" type="line"/>
      <point x="415" y="216" type="line"/>
      <point x="254" y="0" type="line"/>
      <point x="205" y="0" type="line"/>
      <point x="330" y="241" type="line"/>
      <point x="205" y="482" type="line"/>
      <point x="254" y="482" type="line"/>
    </contour>
  </outline>
</glyph>
<glyph name="onequarter" format="1">
  <advance width="875"/>
  <unicode hex="00BC"/>
  <outline>
    <contour>
      <point x="697" y="336" type="line"/>
      <point x="541" y="155" type="line"/>
      <point x="697" y="155" type="line"/>
    </contour>
    <contour>
      <point x="69" y="295" type="line"/>
      <point x="69" y="322" type="line"/>
      <point x="135" y="324" type="line" smooth="yes"/>
      <point x="142" y="325"/>
      <point x="149" y="329"/>
      <point x="149" y="336" type="curve" smooth="yes"/>
      <point x="149" y="653" type="line"/>
      <point x="48" y="637" type="line"/>
      <point x="48" y="664" type="line"/>
      <point x="189" y="704" type="line"/>
      <point x="213" y="704" type="line"/>
      <point x="213" y="336" type="line" smooth="yes"/>
      <point x="213" y="329"/>
      <point x="221" y="325"/>
      <point x="228" y="324" type="curve" smooth="yes"/>
      <point x="289" y="322" type="line"/>
      <point x="289" y="295" type="line"/>
    </contour>
    <contour>
      <point x="247" y="0" type="line"/>
      <point x="183" y="0" type="line"/>
      <point x="627" y="698" type="line"/>
      <point x="690" y="698" type="line"/>
    </contour>
    <contour>
      <point x="753" y="114" type="line"/>
      <point x="753" y="-21" type="line"/>
      <point x="697" y="-21" type="line"/>
      <point x="697" y="114" type="line"/>
      <point x="489" y="114" type="line"/>
      <point x="489" y="156" type="line"/>
      <point x="709" y="406" type="line"/>
      <point x="753" y="406" type="line"/>
      <point x="753" y="155" type="line"/>
      <point x="827" y="155" type="line"/>
      <point x="827" y="114" type="line"/>
    </contour>
  </outline>
</glyph>
<glyph name="onehalf" format="1">
  <advance width="875"/>
  <unicode hex="00BD"/>
  <outline>
    <contour>
      <point x="67" y="295" type="line"/>
      <point x="67" y="322" type="line"/>
      <point x="133" y="324" type="line" smooth="yes"/>
      <point x="140" y="325"/>
      <point x="147" y="329"/>
      <point x="147" y="336" type="curve" smooth="yes"/>
      <point x="147" y="653" type="line"/>
      <point x="46" y="637" type="line"/>
      <point x="46" y="664" type="line"/>
      <point x="187" y="704" type="line"/>
      <point x="211" y="704" type="line"/>
      <point x="211" y="336" type="line" smooth="yes"/>
      <point x="211" y="329"/>
      <point x="219" y="325"/>
      <point x="226" y="324" type="curve" smooth="yes"/>
      <point x="287" y="322" type="line"/>
      <point x="287" y="295" type="line"/>
    </contour>
    <contour>
      <point x="239" y="0" type="line"/>
      <point x="176" y="0" type="line"/>
      <point x="620" y="698" type="line"/>
      <point x="683" y="698" type="line"/>
    </contour>
    <contour>
      <point x="678" y="410" type="curve"/>
      <point x="681" y="414" type="line"/>
      <point x="759" y="414"/>
      <point x="818" y="376"/>
      <point x="818" y="299" type="curve" smooth="yes"/>
      <point x="818" y="278"/>
      <point x="812" y="257"/>
      <point x="800" y="237" type="curve" smooth="yes"/>
      <point x="772" y="190"/>
      <point x="727" y="151"/>
      <point x="681" y="116" type="curve" smooth="yes"/>
      <point x="654" y="96"/>
      <point x="626" y="75"/>
      <point x="597" y="54" type="curve"/>
      <point x="789" y="54" type="line"/>
      <point x="800" y="106" type="line"/>
      <point x="833" y="106" type="line"/>
      <point x="833" y="3" type="line"/>
      <point x="528" y="3" type="line"/>
      <point x="528" y="43" type="line"/>
      <point x="586" y="87"/>
      <point x="641" y="127"/>
      <point x="687" y="174" type="curve" smooth="yes"/>
      <point x="706" y="194"/>
      <point x="721" y="213"/>
      <point x="732" y="232" type="curve" smooth="yes"/>
      <point x="743" y="251"/>
      <point x="748" y="271"/>
      <point x="748" y="292" type="curve" smooth="yes"/>
      <point x="748" y="346"/>
      <point x="717" y="379"/>
      <point x="663" y="379" type="curve" smooth="yes"/>
      <point x="645" y="379"/>
      <point x="625" y="375"/>
      <point x="614" y="368" type="curve" smooth="yes"/>
      <point x="611" y="366"/>
      <point x="609" y="365"/>
      <point x="608" y="365" type="curve" smooth="yes"/>
      <point x="608" y="299" type="line"/>
      <point x="602" y="293"/>
      <point x="589" y="289"/>
      <point x="576" y="289" type="curve" smooth="yes"/>
      <point x="555" y="289"/>
      <point x="537" y="301"/>
      <point x="537" y="324" type="curve" smooth="yes"/>
      <point x="537" y="371"/>
      <point x="585" y="394"/>
      <point x="624" y="404" type="curve" smooth="yes"/>
      <point x="641" y="408"/>
      <point x="659" y="410"/>
    </contour>
  </outline>
</glyph>
<glyph name="threequarters" format="1">
  <advance width="875"/>
  <unicode hex="00BE"/>
  <outline>
    <contour>
      <point x="708" y="336" type="line"/>
      <point x="552" y="155" type="line"/>
      <point x="708" y="155" type="line"/>
    </contour>
    <contour>
      <point x="257" y="0" type="line"/>
      <point x="194" y="0" type="line"/>
      <point x="638" y="698" type="line"/>
      <point x="701" y="698" type="line"/>
    </contour>
    <contour>
      <point x="319" y="604" type="curve"/>
      <point x="316" y="602" type="line"/>
      <point x="316" y="546"/>
      <point x="267" y="520"/>
      <point x="216" y="506" type="curve"/>
      <point x="265" y="504"/>
      <point x="302" y="486"/>
      <point x="322" y="453" type="curve" smooth="yes"/>
      <point x="329" y="441"/>
      <point x="333" y="427"/>
      <point x="333" y="410" type="curve" smooth="yes"/>
      <point x="333" y="346"/>
      <point x="284" y="312"/>
      <point x="233" y="297" type="curve" smooth="yes"/>
      <point x="213" y="291"/>
      <point x="191" y="288"/>
      <point x="168" y="288" type="curve" smooth="yes"/>
      <point x="114" y="288"/>
      <point x="66" y="302"/>
      <point x="45" y="333" type="curve" smooth="yes"/>
      <point x="40" y="341"/>
      <point x="37" y="349"/>
      <point x="37" y="356" type="curve" smooth="yes"/>
      <point x="37" y="377"/>
      <point x="53" y="390"/>
      <point x="75" y="390" type="curve" smooth="yes"/>
      <point x="82" y="390"/>
      <point x="93" y="388"/>
      <point x="97" y="385" type="curve" smooth="yes"/>
      <point x="117" y="332" type="line"/>
      <point x="133" y="323"/>
      <point x="146" y="319"/>
      <point x="170" y="319" type="curve" smooth="yes"/>
      <point x="216" y="319"/>
      <point x="247" y="344"/>
      <point x="261" y="377" type="curve" smooth="yes"/>
      <point x="266" y="388"/>
      <point x="268" y="400"/>
      <point x="268" y="412" type="curve" smooth="yes"/>
      <point x="268" y="465"/>
      <point x="226" y="486"/>
      <point x="174" y="486" type="curve" smooth="yes"/>
      <point x="164" y="486"/>
      <point x="156" y="485"/>
      <point x="147" y="485" type="curve" smooth="yes"/>
      <point x="144" y="485"/>
      <point x="141" y="485"/>
      <point x="138" y="484" type="curve" smooth="yes"/>
      <point x="138" y="521" type="line"/>
      <point x="155" y="521" type="line" smooth="yes"/>
      <point x="210" y="521"/>
      <point x="253" y="542"/>
      <point x="253" y="597" type="curve" smooth="yes"/>
      <point x="253" y="645"/>
      <point x="219" y="673"/>
      <point x="171" y="673" type="curve" smooth="yes"/>
      <point x="149" y="673"/>
      <point x="127" y="667"/>
      <point x="114" y="659" type="curve"/>
      <point x="114" y="599" type="line"/>
      <point x="108" y="596"/>
      <point x="98" y="591"/>
      <point x="86" y="591" type="curve" smooth="yes"/>
      <point x="64" y="591"/>
      <point x="48" y="603"/>
      <point x="48" y="625" type="curve" smooth="yes"/>
      <point x="48" y="652"/>
      <point x="69" y="671"/>
      <point x="88" y="683" type="curve" smooth="yes"/>
      <point x="112" y="697"/>
      <point x="149" y="706"/>
      <point x="188" y="706" type="curve" smooth="yes"/>
      <point x="245" y="706"/>
      <point x="289" y="685"/>
      <point x="309" y="647" type="curve" smooth="yes"/>
      <point x="316" y="634"/>
      <point x="319" y="620"/>
    </contour>
    <contour>
      <point x="761" y="112" type="line"/>
      <point x="761" y="-23" type="line"/>
      <point x="705" y="-23" type="line"/>
      <point x="705" y="112" type="line"/>
      <point x="497" y="112" type="line"/>
      <point x="497" y="154" type="line"/>
      <point x="717" y="404" type="line"/>
      <point x="761" y="404" type="line"/>
      <point x="761" y="153" type="line"/>
      <point x="835" y="153" type="line"/>
      <point x="835" y="112" type="line"/>
    </contour>
  </outline>
</glyph>
<glyph name="Atilde" format="1">
  <advance width="673"/>
  <unicode hex="00C3"/>
  <outline>
    <contour>
      <point x="314" y="558" type="line"/>
      <point x="217" y="296" type="line"/>
      <point x="412" y="296" type="line"/>
    </contour>
    <contour>
      <point x="431" y="0" type="line"/>
      <point x="431" y="44" type="line"/>
      <point x="489" y="49" type="line" smooth="yes"/>
      <point x="495" y="49"/>
      <point x="501" y="60"/>
      <point x="499" y="66" type="curve" smooth="yes"/>
      <point x="430" y="249" type="line"/>
      <point x="199" y="249" type="line"/>
      <point x="133" y="69" type="line" smooth="yes"/>
      <point x="130" y="61"/>
      <point x="139" y="49"/>
      <point x="147" y="49" type="curve" smooth="yes"/>
      <point x="206" y="44" type="line"/>
      <point x="206" y="1" type="line"/>
      <point x="5" y="1" type="line"/>
      <point x="5" y="44" type="line"/>
      <point x="63" y="56" type="line"/>
      <point x="296" y="688" type="line"/>
      <point x="371" y="688" type="line"/>
      <point x="603" y="71" type="line" smooth="yes"/>
      <point x="607" y="57"/>
      <point x="609" y="54"/>
      <point x="624" y="51" type="curve" smooth="yes"/>
      <point x="669" y="43" type="line"/>
      <point x="669" y="0" type="line"/>
    </contour>
    <contour>
      <point x="414" y="843" type="curve"/>
      <point x="413" y="842" type="line"/>
      <point x="441" y="842"/>
      <point x="463" y="864"/>
      <point x="466" y="890" type="curve"/>
      <point x="506" y="890" type="line"/>
      <point x="494" y="845"/>
      <point x="473" y="808"/>
      <point x="434" y="789" type="curve" smooth="yes"/>
      <point x="421" y="783"/>
      <point x="407" y="780"/>
      <point x="391" y="780" type="curve" smooth="yes"/>
      <point x="353" y="780"/>
      <point x="332" y="803"/>
      <point x="305" y="815" type="curve" smooth="yes"/>
      <point x="290" y="822"/>
      <point x="273" y="828"/>
      <point x="252" y="828" type="curve" smooth="yes"/>
      <point x="224" y="828"/>
      <point x="203" y="805"/>
      <point x="200" y="780" type="curve"/>
      <point x="160" y="780" type="line"/>
      <point x="172" y="825"/>
      <point x="193" y="862"/>
      <point x="232" y="881" type="curve" smooth="yes"/>
      <point x="245" y="887"/>
      <point x="259" y="890"/>
      <point x="275" y="890" type="curve" smooth="yes"/>
      <point x="313" y="890"/>
      <point x="334" y="868"/>
      <point x="360" y="855" type="curve" smooth="yes"/>
      <point x="375" y="848"/>
      <point x="392" y="843"/>
    </contour>
  </outline>
</glyph>
<glyph name="Adieresis" format="1">
  <advance width="673"/>
  <unicode hex="00C4"/>
  <outline>
    <contour>
      <point x="314" y="558" type="line"/>
      <point x="217" y="296" type="line"/>
      <point x="412" y="296" type="line"/>
    </contour>
    <contour>
      <point x="431" y="0" type="line"/>
      <point x="431" y="44" type="line"/>
      <point x="489" y="49" type="line" smooth="yes"/>
      <point x="495" y="49"/>
      <point x="501" y="60"/>
      <point x="499" y="66" type="curve" smooth="yes"/>
      <point x="430" y="249" type="line"/>
      <point x="199" y="249" type="line"/>
      <point x="133" y="69" type="line" smooth="yes"/>
      <point x="130" y="61"/>
      <point x="139" y="49"/>
      <point x="147" y="49" type="curve" smooth="yes"/>
      <point x="206" y="44" type="line"/>
      <point x="206" y="1" type="line"/>
      <point x="5" y="1" type="line"/>
      <point x="5" y="44" type="line"/>
      <point x="63" y="56" type="line"/>
      <point x="296" y="688" type="line"/>
      <point x="371" y="688" type="line"/>
      <point x="603" y="71" type="line" smooth="yes"/>
      <point x="607" y="57"/>
      <point x="609" y="54"/>
      <point x="624" y="51" type="curve" smooth="yes"/>
      <point x="669" y="43" type="line"/>
      <point x="669" y="0" type="line"/>
    </contour>
    <contour>
      <point x="230" y="892" type="curve" smooth="yes"/>
      <point x="261" y="892"/>
      <point x="284" y="867"/>
      <point x="284" y="837" type="curve" smooth="yes"/>
      <point x="284" y="806"/>
      <point x="261" y="781"/>
      <point x="230" y="781" type="curve" smooth="yes"/>
      <point x="199" y="781"/>
      <point x="175" y="805"/>
      <point x="175" y="836" type="curve" smooth="yes"/>
      <point x="175" y="867"/>
      <point x="199" y="892"/>
    </contour>
    <contour>
      <point x="438" y="892" type="curve" smooth="yes"/>
      <point x="468" y="892"/>
      <point x="491" y="868"/>
      <point x="491" y="837" type="curve" smooth="yes"/>
      <point x="491" y="806"/>
      <point x="469" y="781"/>
      <point x="438" y="781" type="curve" smooth="yes"/>
      <point x="406" y="781"/>
      <point x="382" y="805"/>
      <point x="382" y="837" type="curve" smooth="yes"/>
      <point x="382" y="867"/>
      <point x="408" y="892"/>
    </contour>
  </outline>
</glyph>
<glyph name="Igrave" format="1">
  <advance width="330"/>
  <unicode hex="00CC"/>
  <outline>
    <contour>
      <point x="33" y="0" type="line"/>
      <point x="33" y="43" type="line"/>
      <point x="93" y="47" type="line" smooth="yes"/>
      <point x="105" y="48"/>
      <point x="114" y="57"/>
      <point x="114" y="69" type="curve" smooth="yes"/>
      <point x="114" y="602" type="line" smooth="yes"/>
      <point x="114" y="614"/>
      <point x="105" y="622"/>
      <point x="93" y="623" type="curve" smooth="yes"/>
      <point x="33" y="627" type="line"/>
      <point x="33" y="671" type="line"/>
      <point x="297" y="671" type="line"/>
      <point x="297" y="627" type="line"/>
      <point x="236" y="623" type="line" smooth="yes"/>
      <point x="225" y="622"/>
      <point x="215" y="613"/>
      <point x="215" y="602" type="curve" smooth="yes"/>
      <point x="215" y="69" type="line" smooth="yes"/>
      <point x="215" y="58"/>
      <point x="225" y="48"/>
      <point x="236" y="47" type="curve" smooth="yes"/>
      <point x="297" y="43" type="line"/>
      <point x="297" y="0" type="line"/>
    </contour>
    <contour>
      <point x="21" y="883" type="curve"/>
      <point x="20" y="884" type="line"/>
      <point x="20" y="912"/>
      <point x="38" y="929"/>
      <point x="66" y="929" type="curve" smooth="yes"/>
      <point x="96" y="929"/>
      <point x="105" y="917"/>
      <point x="120" y="902" type="curve" smooth="yes"/>
      <point x="253" y="747" type="line"/>
      <point x="196" y="747" type="line"/>
      <point x="44" y="844" type="line" smooth="yes"/>
      <point x="31" y="852"/>
      <point x="21" y="863"/>
    </contour>
  </outline>
</glyph>
<glyph name="Ntilde" format="1">
  <advance width="721"/>
  <unicode hex="00D1"/>
  <outline>
    <contour>
      <point x="636" y="624" type="line" smooth="yes"/>
      <point x="624" y="623"/>
      <point x="615" y="614"/>
      <point x="615" y="602" type="curve" smooth="yes"/>
      <point x="615" y="0" type="line"/>
      <point x="537" y="0" type="line"/>
      <point x="165" y="560" type="line"/>
      <point x="165" y="69" type="line" smooth="yes"/>
      <point x="165" y="57"/>
      <point x="174" y="48"/>
      <point x="186" y="47" type="curve" smooth="yes"/>
      <point x="243" y="43" type="line"/>
      <point x="243" y="0" type="line"/>
      <point x="27" y="0" type="line"/>
      <point x="27" y="43" type="line"/>
      <point x="84" y="47" type="line" smooth="yes"/>
      <point x="96" y="48"/>
      <point x="106" y="57"/>
      <point x="106" y="69" type="curve" smooth="yes"/>
      <point x="106" y="602" type="line" smooth="yes"/>
      <point x="106" y="614"/>
      <point x="96" y="623"/>
      <point x="84" y="624" type="curve" smooth="yes"/>
      <point x="25" y="628" type="line"/>
      <point x="25" y="671" type="line"/>
      <point x="223" y="671" type="line"/>
      <point x="223" y="646" type="line"/>
      <point x="556" y="143" type="line"/>
      <point x="556" y="602" type="line" smooth="yes"/>
      <point x="556" y="613"/>
      <point x="546" y="623"/>
      <point x="535" y="624" type="curve" smooth="yes"/>
      <point x="478" y="628" type="line"/>
      <point x="478" y="671" type="line"/>
      <point x="692" y="671" type="line"/>
      <point x="692" y="628" type="line"/>
    </contour>
    <contour>
      <point x="439" y="842" type="curve"/>
      <point x="438" y="841" type="line"/>
      <point x="466" y="841"/>
      <point x="488" y="863"/>
      <point x="491" y="889" type="curve"/>
      <point x="531" y="889" type="line"/>
      <point x="519" y="844"/>
      <point x="498" y="807"/>
      <point x="459" y="788" type="curve" smooth="yes"/>
      <point x="446" y="782"/>
      <point x="432" y="779"/>
      <point x="416" y="779" type="curve" smooth="yes"/>
      <point x="378" y="779"/>
      <point x="357" y="802"/>
      <point x="330" y="814" type="curve" smooth="yes"/>
      <point x="315" y="821"/>
      <point x="298" y="827"/>
      <point x="277" y="827" type="curve" smooth="yes"/>
      <point x="249" y="827"/>
      <point x="228" y="804"/>
      <point x="225" y="779" type="curve"/>
      <point x="185" y="779" type="line"/>
      <point x="197" y="824"/>
      <point x="218" y="861"/>
      <point x="257" y="880" type="curve" smooth="yes"/>
      <point x="270" y="886"/>
      <point x="284" y="889"/>
      <point x="300" y="889" type="curve" smooth="yes"/>
      <point x="338" y="889"/>
      <point x="359" y="867"/>
      <point x="385" y="854" type="curve" smooth="yes"/>
      <point x="400" y="847"/>
      <point x="417" y="842"/>
    </contour>
  </outline>
</glyph>
<glyph name="Uacute" format="1">
  <advance width="711"/>
  <unicode hex="00DA"/>
  <outline>
    <contour>
      <point x="376" y="51" type="curve" smooth="yes"/>
      <point x="502" y="51"/>
      <point x="547" y="123"/>
      <point x="547" y="248" type="curve" smooth="yes"/>
      <point x="547" y="602" type="line" smooth="yes"/>
      <point x="547" y="614"/>
      <point x="537" y="623"/>
      <point x="525" y="624" type="curve" smooth="yes"/>
      <point x="468" y="628" type="line"/>
      <point x="468" y="671" type="line"/>
      <point x="685" y="671" type="line"/>
      <point x="685" y="628" type="line"/>
      <point x="627" y="624" type="line" smooth="yes"/>
      <point x="615" y="623"/>
      <point x="606" y="614"/>
      <point x="606" y="602" type="curve" smooth="yes"/>
      <point x="606" y="222" type="line" smooth="yes"/>
      <point x="606" y="56"/>
      <point x="515" y="-16"/>
      <point x="349" y="-16" type="curve" smooth="yes"/>
      <point x="187" y="-16"/>
      <point x="105" y="62"/>
      <point x="105" y="222" type="curve" smooth="yes"/>
      <point x="105" y="602" type="line" smooth="yes"/>
      <point x="105" y="614"/>
      <point x="96" y="623"/>
      <point x="84" y="624" type="curve" smooth="yes"/>
      <point x="31" y="628" type="line"/>
      <point x="31" y="671" type="line"/>
      <point x="285" y="671" type="line"/>
      <point x="285" y="628" type="line"/>
      <point x="228" y="624" type="line" smooth="yes"/>
      <point x="216" y="623"/>
      <point x="207" y="614"/>
      <point x="207" y="602" type="curve" smooth="yes"/>
      <point x="207" y="248" type="line" smooth="yes"/>
      <point x="207" y="121"/>
      <point x="248" y="51"/>
    </contour>
    <contour>
      <point x="465" y="928" type="curve" smooth="yes"/>
      <point x="466" y="928" type="line" smooth="yes"/>
      <point x="495" y="928"/>
      <point x="512" y="911"/>
      <point x="512" y="883" type="curve" smooth="yes"/>
      <point x="512" y="864"/>
      <point x="500" y="852"/>
      <point x="489" y="843" type="curve" smooth="yes"/>
      <point x="336" y="746" type="line"/>
      <point x="280" y="746" type="line"/>
      <point x="412" y="901" type="line" smooth="yes"/>
      <point x="426" y="915"/>
      <point x="436" y="928"/>
    </contour>
  </outline>
</glyph>
<glyph name="ccedilla" format="1">
  <advance width="465"/>
  <unicode hex="00E7"/>
  <outline>
    <contour>
      <point x="300" y="-59" type="curve"/>
      <point x="300" y="-61" type="line"/>
      <point x="345" y="-61"/>
      <point x="372" y="-86"/>
      <point x="372" y="-132" type="curve" smooth="yes"/>
      <point x="372" y="-197"/>
      <point x="320" y="-227"/>
      <point x="255" y="-227" type="curve" smooth="yes"/>
      <point x="228" y="-227"/>
      <point x="203" y="-223"/>
      <point x="182" y="-217" type="curve"/>
      <point x="182" y="-178" type="line"/>
      <point x="200" y="-182"/>
      <point x="221" y="-186"/>
      <point x="243" y="-186" type="curve" smooth="yes"/>
      <point x="274" y="-186"/>
      <point x="307" y="-176"/>
      <point x="307" y="-145" type="curve" smooth="yes"/>
      <point x="307" y="-119"/>
      <point x="286" y="-108"/>
      <point x="260" y="-108" type="curve" smooth="yes"/>
      <point x="251" y="-108"/>
      <point x="244" y="-111"/>
      <point x="237" y="-114" type="curve"/>
      <point x="237" y="-13" type="line"/>
      <point x="139" y="-5"/>
      <point x="77" y="57"/>
      <point x="50" y="136" type="curve" smooth="yes"/>
      <point x="39" y="167"/>
      <point x="34" y="200"/>
      <point x="34" y="236" type="curve" smooth="yes"/>
      <point x="34" y="360"/>
      <point x="94" y="442"/>
      <point x="183" y="476" type="curve" smooth="yes"/>
      <point x="212" y="487"/>
      <point x="243" y="493"/>
      <point x="275" y="493" type="curve" smooth="yes"/>
      <point x="340" y="493"/>
      <point x="393" y="475"/>
      <point x="418" y="436" type="curve" smooth="yes"/>
      <point x="426" y="423"/>
      <point x="430" y="409"/>
      <point x="430" y="393" type="curve" smooth="yes"/>
      <point x="430" y="357"/>
      <point x="406" y="334"/>
      <point x="371" y="334" type="curve" smooth="yes"/>
      <point x="349" y="334"/>
      <point x="334" y="343"/>
      <point x="321" y="351" type="curve"/>
      <point x="321" y="438" type="line"/>
      <point x="310" y="445"/>
      <point x="295" y="451"/>
      <point x="279" y="451" type="curve" smooth="yes"/>
      <point x="201" y="451"/>
      <point x="163" y="393"/>
      <point x="146" y="330" type="curve" smooth="yes"/>
      <point x="139" y="305"/>
      <point x="136" y="278"/>
      <point x="136" y="249" type="curve" smooth="yes"/>
      <point x="136" y="160"/>
      <point x="170" y="95"/>
      <point x="230" y="65" type="curve" smooth="yes"/>
      <point x="251" y="55"/>
      <point x="275" y="50"/>
      <point x="302" y="50" type="curve" smooth="yes"/>
      <point x="357" y="50"/>
      <point x="395" y="69"/>
      <point x="432" y="93" type="curve"/>
      <point x="432" y="36" type="line"/>
      <point x="388" y="13"/>
      <point x="340" y="-9"/>
      <point x="276" y="-12" type="curve"/>
      <point x="276" y="-63" type="line"/>
      <point x="284" y="-61"/>
      <point x="290" y="-59"/>
    </contour>
  </outline>
</glyph>
<glyph name="divide" format="1">
  <advance width="1000"/>
  <unicode hex="00F7"/>
  <outline>
    <contour>
      <point x="500" y="199" type="curve" smooth="yes"/>
      <point x="535" y="199"/>
      <point x="560" y="174"/>
      <point x="560" y="139" type="curve" smooth="yes"/>
      <point x="560" y="104"/>
      <point x="534" y="80"/>
      <point x="500" y="80" type="curve" smooth="yes"/>
      <point x="465" y="80"/>
      <point x="440" y="104"/>
      <point x="440" y="139" type="curve" smooth="yes"/>
      <point x="440" y="174"/>
      <point x="465" y="199"/>
    </contour>
    <contour>
      <point x="200" y="269" type="line"/>
      <point x="200" y="331" type="line"/>
      <point x="800" y="331" type="line"/>
      <point x="800" y="269" type="line"/>
    </contour>
    <contour>
      <point x="500" y="521" type="curve" smooth="yes"/>
      <point x="534" y="521"/>
      <point x="560" y="495"/>
      <point x="560" y="461" type="curve" smooth="yes"/>
      <point x="560" y="426"/>
      <point x="535" y="401"/>
      <point x="500" y="401" type="curve" smooth="yes"/>
      <point x="465" y="401"/>
      <point x="440" y="426"/>
      <point x="440" y="461" type="curve" smooth="yes"/>
      <point x="440" y="495"/>
      <point x="465" y="521"/>
    </contour>
  </outline>
</glyph>
<glyph name="cacute" format="1">
  <advance width="465"/>
  <unicode hex="0107"/>
  <outline>
    <contour>
      <point x="302" y="51" type="curve"/>
      <point x="301" y="50" type="line"/>
      <point x="356" y="50"/>
      <point x="394" y="69"/>
      <point x="431" y="93" type="curve"/>
      <point x="431" y="36" type="line"/>
      <point x="385" y="11"/>
      <point x="333" y="-13"/>
      <point x="263" y="-13" type="curve" smooth="yes"/>
      <point x="149" y="-13"/>
      <point x="80" y="51"/>
      <point x="50" y="137" type="curve" smooth="yes"/>
      <point x="39" y="168"/>
      <point x="34" y="201"/>
      <point x="34" y="237" type="curve" smooth="yes"/>
      <point x="34" y="361"/>
      <point x="94" y="443"/>
      <point x="183" y="477" type="curve" smooth="yes"/>
      <point x="212" y="488"/>
      <point x="243" y="494"/>
      <point x="275" y="494" type="curve" smooth="yes"/>
      <point x="340" y="494"/>
      <point x="393" y="476"/>
      <point x="418" y="437" type="curve" smooth="yes"/>
      <point x="426" y="424"/>
      <point x="430" y="410"/>
      <point x="430" y="394" type="curve" smooth="yes"/>
      <point x="430" y="358"/>
      <point x="406" y="335"/>
      <point x="371" y="335" type="curve" smooth="yes"/>
      <point x="349" y="335"/>
      <point x="334" y="344"/>
      <point x="321" y="352" type="curve"/>
      <point x="321" y="439" type="line"/>
      <point x="310" y="446"/>
      <point x="295" y="452"/>
      <point x="279" y="452" type="curve" smooth="yes"/>
      <point x="201" y="452"/>
      <point x="163" y="394"/>
      <point x="146" y="331" type="curve" smooth="yes"/>
      <point x="139" y="306"/>
      <point x="136" y="279"/>
      <point x="136" y="250" type="curve" smooth="yes"/>
      <point x="136" y="161"/>
      <point x="170" y="96"/>
      <point x="230" y="66" type="curve" smooth="yes"/>
      <point x="251" y="56"/>
      <point x="275" y="51"/>
    </contour>
    <contour>
      <point x="367" y="732" type="curve" smooth="yes"/>
      <point x="368" y="732" type="line" smooth="yes"/>
      <point x="397" y="732"/>
      <point x="414" y="715"/>
      <point x="414" y="687" type="curve" smooth="yes"/>
      <point x="414" y="668"/>
      <point x="402" y="656"/>
      <point x="391" y="647" type="curve" smooth="yes"/>
      <point x="238" y="550" type="line"/>
      <point x="182" y="550" type="line"/>
      <point x="314" y="705" type="line" smooth="yes"/>
      <point x="328" y="719"/>
      <point x="338" y="732"/>
    </contour>
  </outline>
</glyph>
<glyph name="Itilde" format="1">
  <advance width="330"/>
  <unicode hex="0128"/>
  <outline>
    <contour>
      <point x="33" y="0" type="line"/>
      <point x="33" y="43" type="line"/>
      <point x="93" y="47" type="line" smooth="yes"/>
      <point x="105" y="48"/>
      <point x="114" y="57"/>
      <point x="114" y="69" type="curve" smooth="yes"/>
      <point x="114" y="602" type="line" smooth="yes"/>
      <point x="114" y="614"/>
      <point x="105" y="622"/>
      <point x="93" y="623" type="curve" smooth="yes"/>
      <point x="33" y="627" type="line"/>
      <point x="33" y="671" type="line"/>
      <point x="297" y="671" type="line"/>
      <point x="297" y="627" type="line"/>
      <point x="236" y="623" type="line" smooth="yes"/>
      <point x="225" y="622"/>
      <point x="215" y="613"/>
      <point x="215" y="602" type="curve" smooth="yes"/>
      <point x="215" y="69" type="line" smooth="yes"/>
      <point x="215" y="58"/>
      <point x="225" y="48"/>
      <point x="236" y="47" type="curve" smooth="yes"/>
      <point x="297" y="43" type="line"/>
      <point x="297" y="0" type="line"/>
    </contour>
    <contour>
      <point x="246" y="842" type="curve"/>
      <point x="245" y="841" type="line"/>
      <point x="273" y="841"/>
      <point x="295" y="863"/>
      <point x="298" y="889" type="curve"/>
      <point x="338" y="889" type="line"/>
      <point x="326" y="844"/>
      <point x="305" y="807"/>
      <point x="266" y="788" type="curve" smooth="yes"/>
      <point x="253" y="782"/>
      <point x="239" y="779"/>
      <point x="223" y="779" type="curve" smooth="yes"/>
      <point x="185" y="779"/>
      <point x="164" y="802"/>
      <point x="137" y="814" type="curve" smooth="yes"/>
      <point x="122" y="821"/>
      <point x="105" y="827"/>
      <point x="84" y="827" type="curve" smooth="yes"/>
      <point x="56" y="827"/>
      <point x="35" y="804"/>
      <point x="32" y="779" type="curve"/>
      <point x="-8" y="779" type="line"/>
      <point x="4" y="824"/>
      <point x="25" y="861"/>
      <point x="64" y="880" type="curve" smooth="yes"/>
      <point x="77" y="886"/>
      <point x="91" y="889"/>
      <point x="107" y="889" type="curve" smooth="yes"/>
      <point x="145" y="889"/>
      <point x="166" y="867"/>
      <point x="192" y="854" type="curve" smooth="yes"/>
      <point x="207" y="847"/>
      <point x="224" y="842"/>
    </contour>
  </outline>
</glyph>
<glyph name="itilde" format="1">
  <advance width="303"/>
  <unicode hex="0129"/>
  <outline>
    <contour>
      <point x="34" y="0" type="line"/>
      <point x="34" y="39" type="line"/>
      <point x="83" y="42" type="line" smooth="yes"/>
      <point x="94" y="43"/>
      <point x="104" y="51"/>
      <point x="104" y="63" type="curve" smooth="yes"/>
      <point x="104" y="420" type="line"/>
      <point x="35" y="420" type="line"/>
      <point x="35" y="455" type="line"/>
      <point x="157" y="493" type="line"/>
      <point x="197" y="493" type="line"/>
      <point x="197" y="63" type="line" smooth="yes"/>
      <point x="197" y="51"/>
      <point x="207" y="43"/>
      <point x="218" y="42" type="curve" smooth="yes"/>
      <point x="269" y="39" type="line"/>
      <point x="269" y="0" type="line"/>
    </contour>
    <contour>
      <point x="232" y="647" type="curve"/>
      <point x="231" y="646" type="line"/>
      <point x="259" y="646"/>
      <point x="281" y="668"/>
      <point x="284" y="694" type="curve"/>
      <point x="324" y="694" type="line"/>
      <point x="312" y="649"/>
      <point x="291" y="612"/>
      <point x="252" y="593" type="curve" smooth="yes"/>
      <point x="239" y="587"/>
      <point x="225" y="584"/>
      <point x="209" y="584" type="curve" smooth="yes"/>
      <point x="171" y="584"/>
      <point x="150" y="607"/>
      <point x="123" y="619" type="curve" smooth="yes"/>
      <point x="108" y="626"/>
      <point x="91" y="632"/>
      <point x="70" y="632" type="curve" smooth="yes"/>
      <point x="42" y="632"/>
      <point x="21" y="609"/>
      <point x="18" y="584" type="curve"/>
      <point x="-22" y="584" type="line"/>
      <point x="-10" y="629"/>
      <point x="11" y="666"/>
      <point x="50" y="685" type="curve" smooth="yes"/>
      <point x="63" y="691"/>
      <point x="77" y="694"/>
      <point x="93" y="694" type="curve" smooth="yes"/>
      <point x="131" y="694"/>
      <point x="152" y="672"/>
      <point x="178" y="659" type="curve" smooth="yes"/>
      <point x="193" y="652"/>
      <point x="210" y="647"/>
    </contour>
  </outline>
</glyph>
<glyph name="Ibreve" format="1">
  <advance width="330"/>
  <unicode hex="012C"/>
  <outline>
    <contour>
      <point x="33" y="0" type="line"/>
      <point x="33" y="43" type="line"/>
      <point x="93" y="47" type="line" smooth="yes"/>
      <point x="105" y="48"/>
      <point x="114" y="57"/>
      <point x="114" y="69" type="curve" smooth="yes"/>
      <point x="114" y="602" type="line" smooth="yes"/>
      <point x="114" y="614"/>
      <point x="105" y="622"/>
      <point x="93" y="623" type="curve" smooth="yes"/>
      <point x="33" y="627" type="line"/>
      <point x="33" y="671" type="line"/>
      <point x="297" y="671" type="line"/>
      <point x="297" y="627" type="line"/>
      <point x="236" y="623" type="line" smooth="yes"/>
      <point x="225" y="622"/>
      <point x="215" y="613"/>
      <point x="215" y="602" type="curve" smooth="yes"/>
      <point x="215" y="69" type="line" smooth="yes"/>
      <point x="215" y="58"/>
      <point x="225" y="48"/>
      <point x="236" y="47" type="curve" smooth="yes"/>
      <point x="297" y="43" type="line"/>
      <point x="297" y="0" type="line"/>
    </contour>
    <contour>
      <point x="165" y="813" type="curve" smooth="yes"/>
      <point x="166" y="813" type="line" smooth="yes"/>
      <point x="225" y="813"/>
      <point x="265" y="844"/>
      <point x="275" y="894" type="curve"/>
      <point x="315" y="894" type="line"/>
      <point x="315" y="828"/>
      <point x="278" y="780"/>
      <point x="231" y="758" type="curve" smooth="yes"/>
      <point x="212" y="749"/>
      <point x="190" y="745"/>
      <point x="165" y="745" type="curve" smooth="yes"/>
      <point x="90" y="745"/>
      <point x="45" y="786"/>
      <point x="25" y="841" type="curve" smooth="yes"/>
      <point x="19" y="859"/>
      <point x="16" y="877"/>
      <point x="16" y="894" type="curve"/>
      <point x="55" y="894" type="line"/>
      <point x="65" y="844"/>
      <point x="106" y="813"/>
    </contour>
  </outline>
</glyph>
<glyph name="iogonek" format="1">
  <advance width="303"/>
  <unicode hex="012F"/>
  <outline>
    <contour>
      <point x="184" y="-141" type="curve" smooth="yes"/>
      <point x="201" y="-141"/>
      <point x="214" y="-130"/>
      <point x="225" y="-123" type="curve"/>
      <point x="249" y="-163" type="line"/>
      <point x="229" y="-173"/>
      <point x="211" y="-180"/>
      <point x="189" y="-187" type="curve" smooth="yes"/>
      <point x="179" y="-190"/>
      <point x="170" y="-191"/>
      <point x="163" y="-191" type="curve" smooth="yes"/>
      <point x="107" y="-191"/>
      <point x="63" y="-171"/>
      <point x="63" y="-118" type="curve" smooth="yes"/>
      <point x="63" y="-63"/>
      <point x="98" y="-23"/>
      <point x="131" y="0" type="curve"/>
      <point x="34" y="0" type="line"/>
      <point x="34" y="39" type="line"/>
      <point x="83" y="42" type="line" smooth="yes"/>
      <point x="94" y="43"/>
      <point x="104" y="51"/>
      <point x="104" y="63" type="curve" smooth="yes"/>
      <point x="104" y="420" type="line"/>
      <point x="35" y="420" type="line"/>
      <point x="35" y="455" type="line"/>
      <point x="157" y="493" type="line"/>
      <point x="197" y="493" type="line"/>
      <point x="197" y="63" type="line" smooth="yes"/>
      <point x="197" y="51"/>
      <point x="207" y="43"/>
      <point x="218" y="42" type="curve" smooth="yes"/>
      <point x="269" y="39" type="line"/>
      <point x="269" y="0" type="line"/>
      <point x="179" y="0" type="line"/>
      <point x="154" y="-19"/>
      <point x="126" y="-49"/>
      <point x="126" y="-92" type="curve" smooth="yes"/>
      <point x="126" y="-126"/>
      <point x="149" y="-141"/>
    </contour>
    <contour>
      <point x="95" y="647" type="curve" smooth="yes"/>
      <point x="95" y="682"/>
      <point x="122" y="708"/>
      <point x="157" y="708" type="curve" smooth="yes"/>
      <point x="192" y="708"/>
      <point x="218" y="682"/>
      <point x="218" y="647" type="curve" smooth="yes"/>
      <point x="218" y="612"/>
      <point x="192" y="585"/>
      <point x="157" y="585" type="curve" smooth="yes"/>
      <point x="122" y="585"/>
      <point x="95" y="612"/>
    </contour>
  </outline>
</glyph>
<glyph name="IJ" format="1">
  <advance width="814"/>
  <unicode hex="0132"/>
  <outline>
    <contour>
      <point x="33" y="0" type="line"/>
      <point x="33" y="43" type="line"/>
      <point x="93" y="47" type="line" smooth="yes"/>
      <point x="105" y="48"/>
      <point x="114" y="57"/>
      <point x="114" y="69" type="curve" smooth="yes"/>
      <point x="114" y="602" type="line" smooth="yes"/>
      <point x="114" y="614"/>
      <point x="105" y="622"/>
      <point x="93" y="623" type="curve" smooth="yes"/>
      <point x="33" y="627" type="line"/>
      <point x="33" y="671" type="line"/>
      <point x="297" y="671" type="line"/>
      <point x="297" y="627" type="line"/>
      <point x="236" y="623" type="line" smooth="yes"/>
      <point x="225" y="622"/>
      <point x="215" y="613"/>
      <point x="215" y="602" type="curve" smooth="yes"/>
      <point x="215" y="69" type="line" smooth="yes"/>
      <point x="215" y="58"/>
      <point x="225" y="48"/>
      <point x="236" y="47" type="curve" smooth="yes"/>
      <point x="297" y="43" type="line"/>
      <point x="297" y="0" type="line"/>
    </contour>
    <contour>
      <point x="483" y="35" type="curve"/>
      <point x="483" y="34" type="line"/>
      <point x="591" y="34"/>
      <point x="609" y="134"/>
      <point x="609" y="245" type="curve" smooth="yes"/>
      <point x="609" y="601" type="line" smooth="yes"/>
      <point x="609" y="613"/>
      <point x="600" y="622"/>
      <point x="588" y="623" type="curve" smooth="yes"/>
      <point x="525" y="627" type="line"/>
      <point x="525" y="670" type="line"/>
      <point x="789" y="670" type="line"/>
      <point x="789" y="627" type="line"/>
      <point x="731" y="623" type="line" smooth="yes"/>
      <point x="720" y="622"/>
      <point x="710" y="612"/>
      <point x="710" y="601" type="curve" smooth="yes"/>
      <point x="710" y="252" type="line" smooth="yes"/>
      <point x="710" y="89"/>
      <point x="654" y="-17"/>
      <point x="490" y="-17" type="curve" smooth="yes"/>
      <point x="445" y="-17"/>
      <point x="401" y="-6"/>
      <point x="369" y="6" type="curve" smooth="yes"/>
      <point x="361" y="9"/>
      <point x="356" y="11"/>
      <point x="355" y="12" type="curve" smooth="yes"/>
      <point x="355" y="183" type="line"/>
      <point x="415" y="183" type="line"/>
      <point x="437" y="61" type="line" smooth="yes"/>
      <point x="440" y="42"/>
      <point x="462" y="35"/>
    </contour>
  </outline>
</glyph>
<glyph name="Lacute" format="1">
  <advance width="530"/>
  <unicode hex="0139"/>
  <outline>
    <contour>
      <point x="27" y="0" type="line"/>
      <point x="27" y="43" type="line"/>
      <point x="85" y="47" type="line" smooth="yes"/>
      <point x="97" y="48"/>
      <point x="106" y="57"/>
      <point x="106" y="69" type="curve" smooth="yes"/>
      <point x="106" y="602" type="line" smooth="yes"/>
      <point x="106" y="614"/>
      <point x="97" y="623"/>
      <point x="85" y="624" type="curve" smooth="yes"/>
      <point x="27" y="628" type="line"/>
      <point x="27" y="671" type="line"/>
      <point x="282" y="671" type="line"/>
      <point x="282" y="628" type="line"/>
      <point x="229" y="624" type="line" smooth="yes"/>
      <point x="217" y="623"/>
      <point x="207" y="614"/>
      <point x="207" y="602" type="curve" smooth="yes"/>
      <point x="207" y="49" type="line"/>
      <point x="417" y="49" type="line" smooth="yes"/>
      <point x="427" y="49"/>
      <point x="438" y="57"/>
      <point x="439" y="66" type="curve" smooth="yes"/>
      <point x="455" y="186" type="line"/>
      <point x="513" y="186" type="line"/>
      <point x="513" y="0" type="line"/>
    </contour>
    <contour>
      <point x="369" y="928" type="curve" smooth="yes"/>
      <point x="370" y="928" type="line" smooth="yes"/>
      <point x="399" y="928"/>
      <point x="416" y="911"/>
      <point x="416" y="883" type="curve" smooth="yes"/>
      <point x="416" y="864"/>
      <point x="404" y="852"/>
      <point x="393" y="843" type="curve" smooth="yes"/>
      <point x="240" y="746" type="line"/>
      <point x="184" y="746" type="line"/>
      <point x="316" y="901" type="line" smooth="yes"/>
      <point x="330" y="915"/>
      <point x="340" y="928"/>
    </contour>
  </outline>
</glyph>
<glyph name="Lcaron" format="1">
  <advance width="530"/>
  <unicode hex="013D"/>
  <outline>
    <contour>
      <point x="400" y="713" type="curve" smooth="yes"/>
      <point x="446" y="713"/>
      <point x="471" y="681"/>
      <point x="471" y="632" type="curve" smooth="yes"/>
      <point x="471" y="555"/>
      <point x="412" y="519"/>
      <point x="347" y="507" type="curve"/>
      <point x="347" y="536" type="line"/>
      <point x="394" y="550"/>
      <point x="419" y="569"/>
      <point x="419" y="630" type="curve"/>
      <point x="360" y="630" type="line" smooth="yes"/>
      <point x="352" y="630"/>
      <point x="345" y="656"/>
      <point x="345" y="666" type="curve" smooth="yes"/>
      <point x="345" y="696"/>
      <point x="370" y="713"/>
    </contour>
    <contour>
      <point x="27" y="0" type="line"/>
      <point x="27" y="43" type="line"/>
      <point x="85" y="47" type="line" smooth="yes"/>
      <point x="97" y="48"/>
      <point x="106" y="57"/>
      <point x="106" y="69" type="curve" smooth="yes"/>
      <point x="106" y="602" type="line" smooth="yes"/>
      <point x="106" y="614"/>
      <point x="97" y="623"/>
      <point x="85" y="624" type="curve" smooth="yes"/>
      <point x="27" y="628" type="line"/>
      <point x="27" y="671" type="line"/>
      <point x="282" y="671" type="line"/>
      <point x="282" y="628" type="line"/>
      <point x="229" y="624" type="line" smooth="yes"/>
      <point x="217" y="623"/>
      <point x="207" y="614"/>
      <point x="207" y="602" type="curve" smooth="yes"/>
      <point x="207" y="49" type="line"/>
      <point x="417" y="49" type="line" smooth="yes"/>
      <point x="427" y="49"/>
      <point x="438" y="57"/>
      <point x="439" y="66" type="curve" smooth="yes"/>
      <point x="455" y="186" type="line"/>
      <point x="513" y="186" type="line"/>
      <point x="513" y="0" type="line"/>
    </contour>
  </outline>
</glyph>
<glyph name="obreve" format="1">
  <advance width="543"/>
  <unicode hex="014F"/>
  <outline>
    <contour>
      <point x="406" y="241" type="curve"/>
      <point x="405" y="241" type="line"/>
      <point x="405" y="326"/>
      <point x="381" y="397"/>
      <point x="331" y="432" type="curve" smooth="yes"/>
      <point x="315" y="443"/>
      <point x="296" y="449"/>
      <point x="273" y="449" type="curve" smooth="yes"/>
      <point x="195" y="449"/>
      <point x="160" y="385"/>
      <point x="146" y="320" type="curve" smooth="yes"/>
      <point x="141" y="295"/>
      <point x="138" y="269"/>
      <point x="138" y="242" type="curve" smooth="yes"/>
      <point x="138" y="157"/>
      <point x="162" y="87"/>
      <point x="212" y="52" type="curve" smooth="yes"/>
      <point x="229" y="40"/>
      <point x="249" y="34"/>
      <point x="272" y="34" type="curve" smooth="yes"/>
      <point x="349" y="34"/>
      <point x="384" y="98"/>
      <point x="398" y="163" type="curve" smooth="yes"/>
      <point x="403" y="188"/>
      <point x="406" y="214"/>
    </contour>
    <contour>
      <point x="509" y="240" type="curve" smooth="yes"/>
      <point x="509" y="238" type="line" smooth="yes"/>
      <point x="509" y="122"/>
      <point x="451" y="42"/>
      <point x="369" y="6" type="curve" smooth="yes"/>
      <point x="340" y="-7"/>
      <point x="307" y="-13"/>
      <point x="270" y="-13" type="curve" smooth="yes"/>
      <point x="153" y="-13"/>
      <point x="81" y="52"/>
      <point x="50" y="139" type="curve" smooth="yes"/>
      <point x="39" y="170"/>
      <point x="34" y="203"/>
      <point x="34" y="239" type="curve" smooth="yes"/>
      <point x="34" y="356"/>
      <point x="91" y="437"/>
      <point x="174" y="474" type="curve" smooth="yes"/>
      <point x="203" y="487"/>
      <point x="236" y="494"/>
      <point x="273" y="494" type="curve" smooth="yes"/>
      <point x="390" y="494"/>
      <point x="462" y="427"/>
      <point x="493" y="339" type="curve" smooth="yes"/>
      <point x="504" y="308"/>
      <point x="509" y="275"/>
    </contour>
    <contour>
      <point x="271" y="616" type="curve" smooth="yes"/>
      <point x="272" y="616" type="line" smooth="yes"/>
      <point x="331" y="616"/>
      <point x="371" y="647"/>
      <point x="381" y="697" type="curve"/>
      <point x="421" y="697" type="line"/>
      <point x="421" y="631"/>
      <point x="384" y="583"/>
      <point x="337" y="561" type="curve" smooth="yes"/>
      <point x="318" y="552"/>
      <point x="296" y="548"/>
      <point x="271" y="548" type="curve" smooth="yes"/>
      <point x="196" y="548"/>
      <point x="151" y="589"/>
      <point x="131" y="644" type="curve" smooth="yes"/>
      <point x="125" y="662"/>
      <point x="122" y="680"/>
      <point x="122" y="697" type="curve"/>
      <point x="161" y="697" type="line"/>
      <point x="171" y="647"/>
      <point x="212" y="616"/>
    </contour>
  </outline>
</glyph>
<glyph name="uni0163" format="1">
  <advance width="339"/>
  <unicode hex="0163"/>
  <outline>
    <contour>
      <point x="223" y="-59" type="curve" smooth="yes"/>
      <point x="269" y="-59"/>
      <point x="295" y="-84"/>
      <point x="295" y="-130" type="curve" smooth="yes"/>
      <point x="295" y="-195"/>
      <point x="244" y="-225"/>
      <point x="179" y="-225" type="curve" smooth="yes"/>
      <point x="152" y="-225"/>
      <point x="126" y="-221"/>
      <point x="105" y="-215" type="curve"/>
      <point x="105" y="-176" type="line"/>
      <point x="123" y="-180"/>
      <point x="144" y="-184"/>
      <point x="166" y="-184" type="curve" smooth="yes"/>
      <point x="198" y="-184"/>
      <point x="230" y="-175"/>
      <point x="230" y="-143" type="curve" smooth="yes"/>
      <point x="230" y="-117"/>
      <point x="210" y="-106"/>
      <point x="183" y="-106" type="curve" smooth="yes"/>
      <point x="174" y="-106"/>
      <point x="167" y="-109"/>
      <point x="160" y="-112" type="curve"/>
      <point x="160" y="-8" type="line"/>
      <point x="110" y="3"/>
      <point x="91" y="36"/>
      <point x="91" y="100" type="curve" smooth="yes"/>
      <point x="91" y="432" type="line"/>
      <point x="27" y="432" type="line"/>
      <point x="27" y="465" type="line"/>
      <point x="95" y="497" type="line"/>
      <point x="140" y="603" type="line"/>
      <point x="184" y="603" type="line"/>
      <point x="184" y="482" type="line"/>
      <point x="325" y="482" type="line"/>
      <point x="325" y="432" type="line"/>
      <point x="184" y="432" type="line"/>
      <point x="184" y="153" type="line" smooth="yes"/>
      <point x="184" y="88"/>
      <point x="201" y="44"/>
      <point x="264" y="44" type="curve" smooth="yes"/>
      <point x="292" y="44"/>
      <point x="315" y="51"/>
      <point x="333" y="61" type="curve"/>
      <point x="333" y="21" type="line"/>
      <point x="297" y="4"/>
      <point x="253" y="-12"/>
      <point x="200" y="-12" type="curve"/>
      <point x="200" y="-63" type="line"/>
      <point x="208" y="-61"/>
      <point x="213" y="-59"/>
    </contour>
  </outline>
</glyph>
<glyph name="utilde" format="1">
  <advance width="568"/>
  <unicode hex="0169"/>
  <outline>
    <contour>
      <point x="280" y="56" type="curve"/>
      <point x="282" y="54" type="line"/>
      <point x="325" y="54"/>
      <point x="359" y="71"/>
      <point x="389" y="84" type="curve"/>
      <point x="389" y="419" type="line"/>
      <point x="319" y="419" type="line"/>
      <point x="319" y="453" type="line"/>
      <point x="441" y="492" type="line"/>
      <point x="482" y="492" type="line"/>
      <point x="482" y="62" type="line" smooth="yes"/>
      <point x="482" y="50"/>
      <point x="493" y="42"/>
      <point x="504" y="41" type="curve" smooth="yes"/>
      <point x="548" y="38" type="line"/>
      <point x="548" y="-1" type="line"/>
      <point x="389" y="-1" type="line"/>
      <point x="389" y="56" type="line"/>
      <point x="357" y="32"/>
      <point x="317" y="8"/>
      <point x="273" y="-5" type="curve" smooth="yes"/>
      <point x="258" y="-10"/>
      <point x="243" y="-12"/>
      <point x="228" y="-12" type="curve" smooth="yes"/>
      <point x="130" y="-12"/>
      <point x="90" y="50"/>
      <point x="90" y="150" type="curve" smooth="yes"/>
      <point x="90" y="421" type="line"/>
      <point x="20" y="421" type="line"/>
      <point x="20" y="455" type="line"/>
      <point x="143" y="494" type="line"/>
      <point x="183" y="494" type="line"/>
      <point x="183" y="169" type="line" smooth="yes"/>
      <point x="183" y="98"/>
      <point x="209" y="56"/>
    </contour>
    <contour>
      <point x="366" y="645" type="curve"/>
      <point x="365" y="644" type="line"/>
      <point x="393" y="644"/>
      <point x="415" y="666"/>
      <point x="418" y="692" type="curve"/>
      <point x="458" y="692" type="line"/>
      <point x="446" y="647"/>
      <point x="425" y="610"/>
      <point x="386" y="591" type="curve" smooth="yes"/>
      <point x="373" y="585"/>
      <point x="359" y="582"/>
      <point x="343" y="582" type="curve" smooth="yes"/>
      <point x="305" y="582"/>
      <point x="284" y="605"/>
      <point x="257" y="617" type="curve" smooth="yes"/>
      <point x="242" y="624"/>
      <point x="225" y="630"/>
      <point x="204" y="630" type="curve" smooth="yes"/>
      <point x="176" y="630"/>
      <point x="155" y="607"/>
      <point x="152" y="582" type="curve"/>
      <point x="112" y="582" type="line"/>
      <point x="124" y="627"/>
      <point x="145" y="664"/>
      <point x="184" y="683" type="curve" smooth="yes"/>
      <point x="197" y="689"/>
      <point x="211" y="692"/>
      <point x="227" y="692" type="curve" smooth="yes"/>
      <point x="265" y="692"/>
      <point x="286" y="670"/>
      <point x="312" y="657" type="curve" smooth="yes"/>
      <point x="327" y="650"/>
      <point x="344" y="645"/>
    </contour>
  </outline>
</glyph>
<glyph name="Ubreve" format="1">
  <advance width="711"/>
  <unicode hex="016C"/>
  <outline>
    <contour>
      <point x="376" y="51" type="curve" smooth="yes"/>
      <point x="502" y="51"/>
      <point x="547" y="123"/>
      <point x="547" y="248" type="curve" smooth="yes"/>
      <point x="547" y="602" type="line" smooth="yes"/>
      <point x="547" y="614"/>
      <point x="537" y="623"/>
      <point x="525" y="624" type="curve" smooth="yes"/>
      <point x="468" y="628" type="line"/>
      <point x="468" y="671" type="line"/>
      <point x="685" y="671" type="line"/>
      <point x="685" y="628" type="line"/>
      <point x="627" y="624" type="line" smooth="yes"/>
      <point x="615" y="623"/>
      <point x="606" y="614"/>
      <point x="606" y="602" type="curve" smooth="yes"/>
      <point x="606" y="222" type="line" smooth="yes"/>
      <point x="606" y="56"/>
      <point x="515" y="-16"/>
      <point x="349" y="-16" type="curve" smooth="yes"/>
      <point x="187" y="-16"/>
      <point x="105" y="62"/>
      <point x="105" y="222" type="curve" smooth="yes"/>
      <point x="105" y="602" type="line" smooth="yes"/>
      <point x="105" y="614"/>
      <point x="96" y="623"/>
      <point x="84" y="624" type="curve" smooth="yes"/>
      <point x="31" y="628" type="line"/>
      <point x="31" y="671" type="line"/>
      <point x="285" y="671" type="line"/>
      <point x="285" y="628" type="line"/>
      <point x="228" y="624" type="line" smooth="yes"/>
      <point x="216" y="623"/>
      <point x="207" y="614"/>
      <point x="207" y="602" type="curve" smooth="yes"/>
      <point x="207" y="248" type="line" smooth="yes"/>
      <point x="207" y="121"/>
      <point x="248" y="51"/>
    </contour>
    <contour>
      <point x="366" y="813" type="curve" smooth="yes"/>
      <point x="367" y="813" type="line" smooth="yes"/>
      <point x="426" y="813"/>
      <point x="466" y="844"/>
      <point x="476" y="894" type="curve"/>
      <point x="516" y="894" type="line"/>
      <point x="516" y="828"/>
      <point x="479" y="780"/>
      <point x="432" y="758" type="curve" smooth="yes"/>
      <point x="413" y="749"/>
      <point x="391" y="745"/>
      <point x="366" y="745" type="curve" smooth="yes"/>
      <point x="291" y="745"/>
      <point x="246" y="786"/>
      <point x="226" y="841" type="curve" smooth="yes"/>
      <point x="220" y="859"/>
      <point x="217" y="877"/>
      <point x="217" y="894" type="curve"/>
      <point x="256" y="894" type="line"/>
      <point x="266" y="844"/>
      <point x="307" y="813"/>
    </contour>
  </outline>
</glyph>
<glyph name="ubreve" format="1">
  <advance width="568"/>
  <unicode hex="016D"/>
  <outline>
    <contour>
      <point x="280" y="56" type="curve"/>
      <point x="282" y="54" type="line"/>
      <point x="325" y="54"/>
      <point x="359" y="71"/>
      <point x="389" y="84" type="curve"/>
      <point x="389" y="419" type="line"/>
      <point x="319" y="419" type="line"/>
      <point x="319" y="453" type="line"/>
      <point x="441" y="492" type="line"/>
      <point x="482" y="492" type="line"/>
      <point x="482" y="62" type="line" smooth="yes"/>
      <point x="482" y="50"/>
      <point x="493" y="42"/>
      <point x="504" y="41" type="curve" smooth="yes"/>
      <point x="548" y="38" type="line"/>
      <point x="548" y="-1" type="line"/>
      <point x="389" y="-1" type="line"/>
      <point x="389" y="56" type="line"/>
      <point x="357" y="32"/>
      <point x="317" y="8"/>
      <point x="273" y="-5" type="curve" smooth="yes"/>
      <point x="258" y="-10"/>
      <point x="243" y="-12"/>
      <point x="228" y="-12" type="curve" smooth="yes"/>
      <point x="130" y="-12"/>
      <point x="90" y="50"/>
      <point x="90" y="150" type="curve" smooth="yes"/>
      <point x="90" y="421" type="line"/>
      <point x="20" y="421" type="line"/>
      <point x="20" y="455" type="line"/>
      <point x="143" y="494" type="line"/>
      <point x="183" y="494" type="line"/>
      <point x="183" y="169" type="line" smooth="yes"/>
      <point x="183" y="98"/>
      <point x="209" y="56"/>
    </contour>
    <contour>
      <point x="285" y="616" type="curve" smooth="yes"/>
      <point x="286" y="616" type="line" smooth="yes"/>
      <point x="345" y="616"/>
      <point x="385" y="647"/>
      <point x="395" y="697" type="curve"/>
      <point x="435" y="697" type="line"/>
      <point x="435" y="631"/>
      <point x="398" y="583"/>
      <point x="351" y="561" type="curve" smooth="yes"/>
      <point x="332" y="552"/>
      <point x="310" y="548"/>
      <point x="285" y="548" type="curve" smooth="yes"/>
      <point x="210" y="548"/>
      <point x="165" y="589"/>
      <point x="145" y="644" type="curve" smooth="yes"/>
      <point x="139" y="662"/>
      <point x="136" y="680"/>
      <point x="136" y="697" type="curve"/>
      <point x="175" y="697" type="line"/>
      <point x="185" y="647"/>
      <point x="226" y="616"/>
    </contour>
  </outline>
</glyph>
<glyph name="uni0181" format="1">
  <advance width="676"/>
  <unicode hex="0181"/>
  <outline>
    <contour>
      <point x="372" y="671" type="line" smooth="yes"/>
      <point x="499" y="671"/>
      <point x="598" y="633"/>
      <point x="598" y="510" type="curve" smooth="yes"/>
      <point x="598" y="415"/>
      <point x="527" y="376"/>
      <point x="453" y="356" type="curve"/>
      <point x="534" y="356"/>
      <point x="592" y="326"/>
      <point x="621" y="272" type="curve" smooth="yes"/>
      <point x="632" y="252"/>
      <point x="638" y="227"/>
      <point x="638" y="198" type="curve" smooth="yes"/>
      <point x="638" y="55"/>
      <point x="525" y="0"/>
      <point x="384" y="0" type="curve" smooth="yes"/>
      <point x="104" y="0" type="line"/>
      <point x="104" y="43" type="line"/>
      <point x="154" y="47" type="line" smooth="yes"/>
      <point x="166" y="48"/>
      <point x="179" y="57"/>
      <point x="179" y="69" type="curve" smooth="yes"/>
      <point x="179" y="603" type="line" smooth="yes"/>
      <point x="179" y="616"/>
      <point x="171" y="624"/>
      <point x="158" y="624" type="curve" smooth="yes"/>
      <point x="120" y="624" type="line" smooth="yes"/>
      <point x="88" y="624"/>
      <point x="73" y="618"/>
      <point x="61" y="600" type="curve"/>
      <point x="103" y="529" type="line"/>
      <point x="87" y="511"/>
      <point x="68" y="499"/>
      <point x="39" y="499" type="curve" smooth="yes"/>
      <point x="7" y="499"/>
      <point x="-16" y="531"/>
      <point x="-16" y="563" type="curve" smooth="yes"/>
      <point x="-16" y="647"/>
      <point x="56" y="671"/>
      <point x="147" y="671" type="curve" smooth="yes"/>
    </contour>
    <contour>
      <point x="340" y="49" type="line"/>
      <point x="338" y="49" type="line" smooth="yes"/>
      <point x="453" y="49"/>
      <point x="528" y="78"/>
      <point x="528" y="190" type="curve" smooth="yes"/>
      <point x="528" y="286"/>
      <point x="466" y="322"/>
      <point x="366" y="322" type="curve" smooth="yes"/>
      <point x="336" y="322"/>
      <point x="304" y="316"/>
      <point x="277" y="316" type="curve"/>
      <point x="277" y="52" type="line"/>
      <point x="301" y="50" type="line" smooth="yes"/>
      <point x="308" y="49"/>
      <point x="315" y="49"/>
      <point x="322" y="49" type="curve" smooth="yes"/>
    </contour>
    <contour>
      <point x="312" y="368" type="line"/>
      <point x="313" y="368" type="line" smooth="yes"/>
      <point x="420" y="368"/>
      <point x="488" y="400"/>
      <point x="488" y="504" type="curve" smooth="yes"/>
      <point x="488" y="592"/>
      <point x="426" y="630"/>
      <point x="334" y="625" type="curve" smooth="yes"/>
      <point x="325" y="624"/>
      <point x="316" y="624"/>
      <point x="308" y="624" type="curve" smooth="yes"/>
      <point x="299" y="623"/>
      <point x="284" y="622"/>
      <point x="276" y="622" type="curve"/>
      <point x="276" y="369" type="line"/>
      <point x="290" y="369" type="line" smooth="yes"/>
      <point x="294" y="369"/>
      <point x="298" y="369"/>
      <point x="302" y="368" type="curve" smooth="yes"/>
    </contour>
  </outline>
</glyph>
<glyph name="uni0188" format="1">
  <advance width="476"/>
  <unicode hex="0188"/>
  <outline>
    <contour>
      <point x="345" y="484" type="curve"/>
      <point x="344" y="484" type="line"/>
      <point x="360" y="543"/>
      <point x="405" y="586"/>
      <point x="480" y="586" type="curve" smooth="yes"/>
      <point x="513" y="586"/>
      <point x="541" y="576"/>
      <point x="553" y="556" type="curve" smooth="yes"/>
      <point x="557" y="550"/>
      <point x="559" y="544"/>
      <point x="559" y="537" type="curve" smooth="yes"/>
      <point x="559" y="513"/>
      <point x="543" y="498"/>
      <point x="524" y="492" type="curve"/>
      <point x="452" y="546" type="line"/>
      <point x="415" y="532"/>
      <point x="416" y="498"/>
      <point x="416" y="445" type="curve"/>
      <point x="427" y="431"/>
      <point x="430" y="416"/>
      <point x="430" y="392" type="curve" smooth="yes"/>
      <point x="430" y="356"/>
      <point x="406" y="334"/>
      <point x="371" y="334" type="curve" smooth="yes"/>
      <point x="349" y="334"/>
      <point x="334" y="342"/>
      <point x="321" y="350" type="curve"/>
      <point x="321" y="438" type="line"/>
      <point x="310" y="445"/>
      <point x="295" y="451"/>
      <point x="279" y="451" type="curve" smooth="yes"/>
      <point x="202" y="451"/>
      <point x="163" y="393"/>
      <point x="146" y="330" type="curve" smooth="yes"/>
      <point x="139" y="305"/>
      <point x="136" y="278"/>
      <point x="136" y="249" type="curve" smooth="yes"/>
      <point x="136" y="160"/>
      <point x="170" y="95"/>
      <point x="230" y="65" type="curve" smooth="yes"/>
      <point x="251" y="55"/>
      <point x="275" y="50"/>
      <point x="302" y="50" type="curve" smooth="yes"/>
      <point x="357" y="50"/>
      <point x="395" y="73"/>
      <point x="432" y="97" type="curve"/>
      <point x="432" y="40" type="line"/>
      <point x="385" y="15"/>
      <point x="334" y="-13"/>
      <point x="263" y="-13" type="curve" smooth="yes"/>
      <point x="149" y="-13"/>
      <point x="80" y="51"/>
      <point x="50" y="137" type="curve" smooth="yes"/>
      <point x="39" y="168"/>
      <point x="34" y="201"/>
      <point x="34" y="237" type="curve" smooth="yes"/>
      <point x="34" y="361"/>
      <point x="94" y="443"/>
      <point x="183" y="477" type="curve" smooth="yes"/>
      <point x="212" y="488"/>
      <point x="243" y="494"/>
      <point x="275" y="494" type="curve" smooth="yes"/>
      <point x="301" y="494"/>
      <point x="326" y="490"/>
    </contour>
  </outline>
</glyph>
<glyph name="uni018C" format="1">
  <advance width="563"/>
  <unicode hex="018C"/>
  <outline>
    <contour>
      <point x="278" y="56" type="curve"/>
      <point x="278" y="57" type="line"/>
      <point x="321" y="57"/>
      <point x="353" y="75"/>
      <point x="381" y="92" type="curve"/>
      <point x="381" y="432" type="line"/>
      <point x="357" y="440"/>
      <point x="327" y="447"/>
      <point x="296" y="447" type="curve" smooth="yes"/>
      <point x="212" y="447"/>
      <point x="165" y="394"/>
      <point x="145" y="329" type="curve" smooth="yes"/>
      <point x="137" y="304"/>
      <point x="133" y="276"/>
      <point x="133" y="245" type="curve" smooth="yes"/>
      <point x="133" y="162"/>
      <point x="161" y="98"/>
      <point x="216" y="70" type="curve" smooth="yes"/>
      <point x="234" y="61"/>
      <point x="255" y="56"/>
    </contour>
    <contour>
      <point x="182" y="691" type="line" smooth="yes"/>
      <point x="175" y="691"/>
      <point x="167" y="683"/>
      <point x="167" y="676" type="curve" smooth="yes"/>
      <point x="153" y="582" type="line"/>
      <point x="98" y="582" type="line"/>
      <point x="98" y="738" type="line"/>
      <point x="474" y="738" type="line"/>
      <point x="474" y="65" type="line" smooth="yes"/>
      <point x="474" y="53"/>
      <point x="484" y="45"/>
      <point x="495" y="44" type="curve" smooth="yes"/>
      <point x="538" y="41" type="line"/>
      <point x="538" y="2" type="line"/>
      <point x="381" y="2" type="line"/>
      <point x="381" y="55" type="line"/>
      <point x="348" y="30"/>
      <point x="313" y="7"/>
      <point x="268" y="-5" type="curve" smooth="yes"/>
      <point x="254" y="-9"/>
      <point x="240" y="-11"/>
      <point x="225" y="-11" type="curve" smooth="yes"/>
      <point x="155" y="-11"/>
      <point x="108" y="24"/>
      <point x="79" y="67" type="curve" smooth="yes"/>
      <point x="51" y="107"/>
      <point x="33" y="165"/>
      <point x="33" y="229" type="curve" smooth="yes"/>
      <point x="33" y="350"/>
      <point x="91" y="432"/>
      <point x="176" y="472" type="curve" smooth="yes"/>
      <point x="208" y="487"/>
      <point x="245" y="495"/>
      <point x="288" y="495" type="curve" smooth="yes"/>
      <point x="321" y="495"/>
      <point x="354" y="487"/>
      <point x="381" y="483" type="curve"/>
      <point x="381" y="670" type="line" smooth="yes"/>
      <point x="381" y="680"/>
      <point x="371" y="691"/>
      <point x="360" y="691" type="curve" smooth="yes"/>
    </contour>
  </outline>
</glyph>
<glyph name="uni018E" format="1">
  <advance width="583"/>
  <unicode hex="018E"/>
  <outline>
    <contour>
      <point x="207" y="391" type="line" smooth="yes"/>
      <point x="207" y="383"/>
      <point x="217" y="374"/>
      <point x="225" y="374" type="curve" smooth="yes"/>
      <point x="375" y="374" type="line"/>
      <point x="375" y="623" type="line"/>
      <point x="158" y="623" type="line" smooth="yes"/>
      <point x="148" y="623"/>
      <point x="141" y="613"/>
      <point x="140" y="604" type="curve" smooth="yes"/>
      <point x="125" y="522" type="line"/>
      <point x="65" y="522" type="line"/>
      <point x="65" y="671" type="line"/>
      <point x="551" y="671" type="line"/>
      <point x="551" y="628" type="line"/>
      <point x="499" y="624" type="line" smooth="yes"/>
      <point x="487" y="623"/>
      <point x="477" y="614"/>
      <point x="477" y="602" type="curve" smooth="yes"/>
      <point x="477" y="69" type="line" smooth="yes"/>
      <point x="477" y="57"/>
      <point x="487" y="48"/>
      <point x="499" y="47" type="curve" smooth="yes"/>
      <point x="551" y="43" type="line"/>
      <point x="551" y="0" type="line"/>
      <point x="32" y="0" type="line"/>
      <point x="32" y="167" type="line"/>
      <point x="86" y="167" type="line"/>
      <point x="104" y="68" type="line" smooth="yes"/>
      <point x="105" y="62"/>
      <point x="114" y="49"/>
      <point x="122" y="49" type="curve" smooth="yes"/>
      <point x="375" y="49" type="line"/>
      <point x="375" y="324" type="line"/>
      <point x="225" y="324" type="line" smooth="yes"/>
      <point x="218" y="324"/>
      <point x="207" y="313"/>
      <point x="207" y="306" type="curve" smooth="yes"/>
      <point x="197" y="237" type="line"/>
      <point x="146" y="237" type="line"/>
      <point x="146" y="460" type="line"/>
      <point x="197" y="460" type="line"/>
    </contour>
  </outline>
</glyph>
<glyph name="uni0191" format="1">
  <advance width="541"/>
  <unicode hex="0191"/>
  <outline>
    <contour>
      <point x="28" y="-179" type="line"/>
      <point x="28" y="-181" type="line"/>
      <point x="93" y="-181"/>
      <point x="107" y="-127"/>
      <point x="107" y="-62" type="curve" smooth="yes"/>
      <point x="107" y="600" type="line" smooth="yes"/>
      <point x="107" y="612"/>
      <point x="98" y="621"/>
      <point x="86" y="622" type="curve" smooth="yes"/>
      <point x="25" y="626" type="line"/>
      <point x="25" y="669" type="line"/>
      <point x="511" y="669" type="line"/>
      <point x="511" y="510" type="line"/>
      <point x="452" y="510" type="line"/>
      <point x="438" y="602" type="line" smooth="yes"/>
      <point x="437" y="611"/>
      <point x="431" y="620"/>
      <point x="421" y="620" type="curve" smooth="yes"/>
      <point x="207" y="620" type="line"/>
      <point x="207" y="360" type="line"/>
      <point x="361" y="360" type="line" smooth="yes"/>
      <point x="370" y="360"/>
      <point x="378" y="371"/>
      <point x="379" y="378" type="curve" smooth="yes"/>
      <point x="388" y="448" type="line"/>
      <point x="438" y="448" type="line"/>
      <point x="438" y="223" type="line"/>
      <point x="388" y="223" type="line"/>
      <point x="379" y="293" type="line" smooth="yes"/>
      <point x="378" y="299"/>
      <point x="369" y="311"/>
      <point x="361" y="311" type="curve" smooth="yes"/>
      <point x="207" y="311" type="line"/>
      <point x="207" y="-23" type="line" smooth="yes"/>
      <point x="207" y="-123"/>
      <point x="156" y="-188"/>
      <point x="83" y="-216" type="curve" smooth="yes"/>
      <point x="58" y="-226"/>
      <point x="30" y="-231"/>
      <point x="-1" y="-231" type="curve" smooth="yes"/>
      <point x="-47" y="-231"/>
      <point x="-79" y="-214"/>
      <point x="-92" y="-183" type="curve" smooth="yes"/>
      <point x="-96" y="-174"/>
      <point x="-98" y="-165"/>
      <point x="-98" y="-156" type="curve" smooth="yes"/>
      <point x="-98" y="-126"/>
      <point x="-79" y="-106"/>
      <point x="-60" y="-96" type="curve" smooth="yes"/>
      <point x="-55" y="-93"/>
      <point x="-51" y="-92"/>
      <point x="-49" y="-92" type="curve" smooth="yes"/>
    </contour>
  </outline>
</glyph>
<glyph name="uni0196" format="1">
  <advance width="410"/>
  <unicode hex="0196"/>
  <outline>
    <contour>
      <point x="291" y="64" type="curve"/>
      <point x="291" y="65" type="line"/>
      <point x="325" y="63"/>
      <point x="345" y="104"/>
      <point x="356" y="133" type="curve"/>
      <point x="410" y="133" type="line"/>
      <point x="396" y="84"/>
      <point x="368" y="45"/>
      <point x="334" y="19" type="curve" smooth="yes"/>
      <point x="310" y="0"/>
      <point x="278" y="-16"/>
      <point x="242" y="-16" type="curve" smooth="yes"/>
      <point x="146" y="-16"/>
      <point x="112" y="38"/>
      <point x="112" y="138" type="curve" smooth="yes"/>
      <point x="112" y="602" type="line" smooth="yes"/>
      <point x="112" y="614"/>
      <point x="103" y="622"/>
      <point x="91" y="623" type="curve" smooth="yes"/>
      <point x="28" y="628" type="line"/>
      <point x="28" y="671" type="line"/>
      <point x="218" y="671" type="line"/>
      <point x="218" y="136" type="line" smooth="yes"/>
      <point x="218" y="95"/>
      <point x="230" y="68"/>
      <point x="266" y="65" type="curve" smooth="yes"/>
      <point x="275" y="64"/>
      <point x="283" y="64"/>
    </contour>
  </outline>
</glyph>
<glyph name="uni0198" format="1">
  <advance width="638"/>
  <unicode hex="0198"/>
  <outline>
    <contour>
      <point x="697" y="618" type="curve"/>
      <point x="696" y="618" type="line"/>
      <point x="696" y="586"/>
      <point x="672" y="571"/>
      <point x="649" y="563" type="curve"/>
      <point x="558" y="629" type="line" smooth="yes"/>
      <point x="554" y="627"/>
      <point x="548" y="622"/>
      <point x="539" y="614" type="curve" smooth="yes"/>
      <point x="530" y="606"/>
      <point x="520" y="595"/>
      <point x="509" y="582" type="curve" smooth="yes"/>
      <point x="341" y="376" type="line"/>
      <point x="564" y="48" type="line"/>
      <point x="637" y="43" type="line"/>
      <point x="637" y="0" type="line"/>
      <point x="461" y="0" type="line"/>
      <point x="461" y="31" type="line"/>
      <point x="276" y="298" type="line"/>
      <point x="206" y="298" type="line"/>
      <point x="206" y="69" type="line" smooth="yes"/>
      <point x="206" y="57"/>
      <point x="215" y="48"/>
      <point x="227" y="47" type="curve" smooth="yes"/>
      <point x="284" y="43" type="line"/>
      <point x="284" y="0" type="line"/>
      <point x="31" y="0" type="line"/>
      <point x="31" y="43" type="line"/>
      <point x="84" y="47" type="line" smooth="yes"/>
      <point x="96" y="48"/>
      <point x="105" y="57"/>
      <point x="105" y="69" type="curve" smooth="yes"/>
      <point x="105" y="602" type="line" smooth="yes"/>
      <point x="105" y="614"/>
      <point x="96" y="623"/>
      <point x="84" y="624" type="curve" smooth="yes"/>
      <point x="31" y="628" type="line"/>
      <point x="31" y="671" type="line"/>
      <point x="284" y="671" type="line"/>
      <point x="284" y="628" type="line"/>
      <point x="227" y="624" type="line" smooth="yes"/>
      <point x="215" y="623"/>
      <point x="206" y="614"/>
      <point x="206" y="602" type="curve" smooth="yes"/>
      <point x="206" y="340" type="line"/>
      <point x="242" y="340" type="line"/>
      <point x="446" y="588" type="line" smooth="yes"/>
      <point x="483" y="635"/>
      <point x="526" y="687"/>
      <point x="610" y="687" type="curve" smooth="yes"/>
      <point x="650" y="687"/>
      <point x="679" y="669"/>
      <point x="691" y="642" type="curve" smooth="yes"/>
      <point x="695" y="634"/>
      <point x="697" y="626"/>
    </contour>
  </outline>
</glyph>
<glyph name="uni01A2" format="1">
  <advance width="897"/>
  <unicode hex="01A2"/>
  <outline>
    <contour>
      <point x="380" y="40" type="curve"/>
      <point x="381" y="38" type="line"/>
      <point x="469" y="38"/>
      <point x="498" y="86"/>
      <point x="498" y="176" type="curve" smooth="yes"/>
      <point x="498" y="593" type="line"/>
      <point x="458" y="615"/>
      <point x="427" y="628"/>
      <point x="367" y="628" type="curve" smooth="yes"/>
      <point x="289" y="628"/>
      <point x="238" y="590"/>
      <point x="206" y="541" type="curve" smooth="yes"/>
      <point x="172" y="490"/>
      <point x="154" y="418"/>
      <point x="154" y="335" type="curve" smooth="yes"/>
      <point x="154" y="200"/>
      <point x="201" y="101"/>
      <point x="291" y="59" type="curve" smooth="yes"/>
      <point x="319" y="46"/>
      <point x="349" y="40"/>
    </contour>
    <contour>
      <point x="651" y="644" type="curve"/>
      <point x="650" y="645" type="line"/>
      <point x="703" y="645"/>
      <point x="730" y="660"/>
      <point x="758" y="686" type="curve"/>
      <point x="804" y="686" type="line"/>
      <point x="804" y="-150" type="line" smooth="yes"/>
      <point x="804" y="-162"/>
      <point x="813" y="-171"/>
      <point x="825" y="-172" type="curve" smooth="yes"/>
      <point x="886" y="-176" type="line"/>
      <point x="886" y="-219" type="line"/>
      <point x="622" y="-219" type="line"/>
      <point x="622" y="-176" type="line"/>
      <point x="682" y="-172" type="line" smooth="yes"/>
      <point x="694" y="-171"/>
      <point x="703" y="-162"/>
      <point x="703" y="-150" type="curve" smooth="yes"/>
      <point x="703" y="569" type="line"/>
      <point x="674" y="563"/>
      <point x="631" y="562"/>
      <point x="598" y="565" type="curve"/>
      <point x="598" y="160" type="line" smooth="yes"/>
      <point x="598" y="72"/>
      <point x="539" y="20"/>
      <point x="471" y="-3" type="curve" smooth="yes"/>
      <point x="444" y="-12"/>
      <point x="413" y="-17"/>
      <point x="378" y="-17" type="curve" smooth="yes"/>
      <point x="226" y="-17"/>
      <point x="132" y="61"/>
      <point x="80" y="162" type="curve" smooth="yes"/>
      <point x="56" y="209"/>
      <point x="39" y="267"/>
      <point x="39" y="335" type="curve" smooth="yes"/>
      <point x="39" y="440"/>
      <point x="76" y="525"/>
      <point x="128" y="583" type="curve" smooth="yes"/>
      <point x="180" y="641"/>
      <point x="260" y="685"/>
      <point x="366" y="685" type="curve" smooth="yes"/>
      <point x="434" y="685"/>
      <point x="489" y="680"/>
      <point x="538" y="665" type="curve" smooth="yes"/>
      <point x="573" y="654"/>
      <point x="605" y="644"/>
    </contour>
  </outline>
</glyph>
<glyph name="uni01A3" format="1">
  <advance width="740"/>
  <unicode hex="01A3"/>
  <outline>
    <contour>
      <point x="508" y="458" type="curve" smooth="yes"/>
      <point x="551" y="458"/>
      <point x="578" y="466"/>
      <point x="613" y="482" type="curve"/>
      <point x="652" y="482" type="line"/>
      <point x="652" y="-154" type="line" smooth="yes"/>
      <point x="652" y="-166"/>
      <point x="662" y="-175"/>
      <point x="673" y="-176" type="curve" smooth="yes"/>
      <point x="725" y="-179" type="line"/>
      <point x="725" y="-218" type="line"/>
      <point x="490" y="-218" type="line"/>
      <point x="490" y="-179" type="line"/>
      <point x="539" y="-176" type="line" smooth="yes"/>
      <point x="550" y="-175"/>
      <point x="560" y="-167"/>
      <point x="560" y="-155" type="curve" smooth="yes"/>
      <point x="560" y="398" type="line"/>
      <point x="547" y="395"/>
      <point x="530" y="394"/>
      <point x="514" y="394" type="curve" smooth="yes"/>
      <point x="498" y="394"/>
      <point x="481" y="395"/>
      <point x="468" y="398" type="curve"/>
      <point x="468" y="111" type="line" smooth="yes"/>
      <point x="468" y="68"/>
      <point x="441" y="39"/>
      <point x="412" y="21" type="curve" smooth="yes"/>
      <point x="378" y="-1"/>
      <point x="327" y="-13"/>
      <point x="271" y="-13" type="curve" smooth="yes"/>
      <point x="154" y="-13"/>
      <point x="82" y="52"/>
      <point x="51" y="139" type="curve" smooth="yes"/>
      <point x="40" y="170"/>
      <point x="35" y="203"/>
      <point x="35" y="239" type="curve" smooth="yes"/>
      <point x="35" y="356"/>
      <point x="92" y="437"/>
      <point x="175" y="474" type="curve" smooth="yes"/>
      <point x="204" y="487"/>
      <point x="237" y="494"/>
      <point x="274" y="494" type="curve" smooth="yes"/>
      <point x="347" y="494"/>
      <point x="404" y="478"/>
      <point x="461" y="464" type="curve" smooth="yes"/>
      <point x="477" y="460"/>
      <point x="493" y="458"/>
    </contour>
    <contour>
      <point x="272" y="33" type="curve"/>
      <point x="272" y="32" type="line"/>
      <point x="345" y="32"/>
      <point x="375" y="66"/>
      <point x="375" y="139" type="curve" smooth="yes"/>
      <point x="375" y="424" type="line"/>
      <point x="343" y="438"/>
      <point x="320" y="448"/>
      <point x="273" y="448" type="curve" smooth="yes"/>
      <point x="195" y="448"/>
      <point x="160" y="384"/>
      <point x="146" y="319" type="curve" smooth="yes"/>
      <point x="141" y="294"/>
      <point x="138" y="268"/>
      <point x="138" y="241" type="curve" smooth="yes"/>
      <point x="138" y="156"/>
      <point x="162" y="86"/>
      <point x="212" y="51" type="curve" smooth="yes"/>
      <point x="229" y="39"/>
      <point x="249" y="33"/>
    </contour>
  </outline>
</glyph>
<glyph name="uni01A5" format="1">
  <advance width="559"/>
  <unicode hex="01A5"/>
  <outline>
    <contour>
      <point x="183" y="50" type="line"/>
      <point x="184" y="50" type="line"/>
      <point x="207" y="42"/>
      <point x="233" y="34"/>
      <point x="265" y="34" type="curve" smooth="yes"/>
      <point x="351" y="34"/>
      <point x="397" y="90"/>
      <point x="415" y="159" type="curve" smooth="yes"/>
      <point x="421" y="183"/>
      <point x="424" y="208"/>
      <point x="424" y="234" type="curve" smooth="yes"/>
      <point x="424" y="314"/>
      <point x="397" y="380"/>
      <point x="346" y="409" type="curve" smooth="yes"/>
      <point x="328" y="419"/>
      <point x="308" y="424"/>
      <point x="285" y="424" type="curve" smooth="yes"/>
      <point x="260" y="424"/>
      <point x="233" y="416"/>
      <point x="215" y="409" type="curve" smooth="yes"/>
      <point x="204" y="405"/>
      <point x="193" y="400"/>
      <point x="183" y="394" type="curve"/>
    </contour>
    <contour>
      <point x="476" y="640" type="curve"/>
      <point x="474" y="640" type="line"/>
      <point x="474" y="608"/>
      <point x="450" y="583"/>
      <point x="418" y="583" type="curve" smooth="yes"/>
      <point x="408" y="583"/>
      <point x="401" y="584"/>
      <point x="395" y="588" type="curve"/>
      <point x="361" y="672" type="line"/>
      <point x="349" y="683"/>
      <point x="326" y="686"/>
      <point x="304" y="686" type="curve" smooth="yes"/>
      <point x="242" y="686"/>
      <point x="210" y="642"/>
      <point x="193" y="593" type="curve" smooth="yes"/>
      <point x="186" y="572"/>
      <point x="183" y="548"/>
      <point x="183" y="521" type="curve" smooth="yes"/>
      <point x="183" y="432" type="line"/>
      <point x="210" y="454"/>
      <point x="240" y="471"/>
      <point x="277" y="484" type="curve" smooth="yes"/>
      <point x="295" y="490"/>
      <point x="314" y="493"/>
      <point x="333" y="493" type="curve" smooth="yes"/>
      <point x="393" y="493"/>
      <point x="437" y="462"/>
      <point x="466" y="426" type="curve" smooth="yes"/>
      <point x="500" y="384"/>
      <point x="523" y="322"/>
      <point x="523" y="247" type="curve" smooth="yes"/>
      <point x="523" y="123"/>
      <point x="466" y="41"/>
      <point x="376" y="6" type="curve" smooth="yes"/>
      <point x="345" y="-6"/>
      <point x="310" y="-12"/>
      <point x="271" y="-12" type="curve" smooth="yes"/>
      <point x="240" y="-12"/>
      <point x="209" y="-9"/>
      <point x="183" y="-3" type="curve"/>
      <point x="183" y="-152" type="line" smooth="yes"/>
      <point x="183" y="-164"/>
      <point x="194" y="-171"/>
      <point x="205" y="-172" type="curve" smooth="yes"/>
      <point x="264" y="-178" type="line"/>
      <point x="264" y="-217" type="line"/>
      <point x="21" y="-217" type="line"/>
      <point x="21" y="-178" type="line"/>
      <point x="69" y="-172" type="line" smooth="yes"/>
      <point x="80" y="-171"/>
      <point x="90" y="-164"/>
      <point x="90" y="-152" type="curve" smooth="yes"/>
      <point x="90" y="521" type="line" smooth="yes"/>
      <point x="90" y="571"/>
      <point x="109" y="615"/>
      <point x="131" y="648" type="curve" smooth="yes"/>
      <point x="164" y="698"/>
      <point x="217" y="737"/>
      <point x="301" y="737" type="curve" smooth="yes"/>
      <point x="389" y="737"/>
      <point x="476" y="726"/>
    </contour>
  </outline>
</glyph>
<glyph name="uni01AA" format="1">
  <advance width="511"/>
  <unicode hex="01AA"/>
  <outline>
    <contour>
      <point x="319" y="502" type="curve" smooth="yes"/>
      <point x="319" y="562"/>
      <point x="303" y="612"/>
      <point x="266" y="635" type="curve" smooth="yes"/>
      <point x="254" y="643"/>
      <point x="240" y="647"/>
      <point x="223" y="647" type="curve" smooth="yes"/>
      <point x="149" y="647"/>
      <point x="127" y="576"/>
      <point x="127" y="502" type="curve" smooth="yes"/>
      <point x="127" y="443"/>
      <point x="144" y="393"/>
      <point x="180" y="370" type="curve" smooth="yes"/>
      <point x="192" y="362"/>
      <point x="206" y="358"/>
      <point x="222" y="358" type="curve" smooth="yes"/>
      <point x="295" y="358"/>
      <point x="319" y="428"/>
    </contour>
    <contour>
      <point x="542" y="-102" type="line"/>
      <point x="577" y="-102"/>
      <point x="597" y="-131"/>
      <point x="597" y="-166" type="curve" smooth="yes"/>
      <point x="597" y="-209"/>
      <point x="553" y="-229"/>
      <point x="509" y="-229" type="curve" smooth="yes"/>
      <point x="412" y="-229"/>
      <point x="355" y="-177"/>
      <point x="331" y="-104" type="curve" smooth="yes"/>
      <point x="323" y="-79"/>
      <point x="319" y="-51"/>
      <point x="319" y="-21" type="curve" smooth="yes"/>
      <point x="319" y="341" type="line"/>
      <point x="292" y="327"/>
      <point x="261" y="317"/>
      <point x="222" y="317" type="curve" smooth="yes"/>
      <point x="131" y="317"/>
      <point x="74" y="363"/>
      <point x="48" y="428" type="curve" smooth="yes"/>
      <point x="39" y="450"/>
      <point x="35" y="475"/>
      <point x="35" y="502" type="curve" smooth="yes"/>
      <point x="35" y="590"/>
      <point x="81" y="647"/>
      <point x="145" y="673" type="curve" smooth="yes"/>
      <point x="168" y="683"/>
      <point x="194" y="688"/>
      <point x="223" y="688" type="curve" smooth="yes"/>
      <point x="313" y="688"/>
      <point x="374" y="640"/>
      <point x="399" y="575" type="curve" smooth="yes"/>
      <point x="408" y="552"/>
      <point x="412" y="528"/>
      <point x="412" y="502" type="curve" smooth="yes"/>
      <point x="412" y="-21" type="line" smooth="yes"/>
      <point x="412" y="-93"/>
      <point x="408" y="-163"/>
      <point x="461" y="-182" type="curve"/>
    </contour>
  </outline>
</glyph>
<glyph name="uni01AE" format="1">
  <advance width="599"/>
  <unicode hex="01AE"/>
  <outline>
    <contour>
      <point x="455" y="-229" type="curve" smooth="yes"/>
      <point x="299" y="-229"/>
      <point x="249" y="-114"/>
      <point x="249" y="42" type="curve" smooth="yes"/>
      <point x="249" y="622" type="line"/>
      <point x="105" y="622" type="line" smooth="yes"/>
      <point x="95" y="622"/>
      <point x="89" y="615"/>
      <point x="88" y="605" type="curve" smooth="yes"/>
      <point x="74" y="511" type="line"/>
      <point x="16" y="511" type="line"/>
      <point x="16" y="671" type="line"/>
      <point x="583" y="671" type="line"/>
      <point x="583" y="511" type="line"/>
      <point x="524" y="511" type="line"/>
      <point x="510" y="605" type="line" smooth="yes"/>
      <point x="509" y="615"/>
      <point x="503" y="622"/>
      <point x="493" y="622" type="curve" smooth="yes"/>
      <point x="350" y="622" type="line"/>
      <point x="350" y="-21" type="line" smooth="yes"/>
      <point x="350" y="-86"/>
      <point x="350" y="-160"/>
      <point x="391" y="-183" type="curve"/>
      <point x="488" y="-116" type="line"/>
      <point x="512" y="-123"/>
      <point x="530" y="-142"/>
      <point x="530" y="-173" type="curve" smooth="yes"/>
      <point x="530" y="-213"/>
      <point x="495" y="-229"/>
    </contour>
  </outline>
</glyph>
<glyph name="uni01B3" format="1">
  <advance width="625"/>
  <unicode hex="01B3"/>
  <outline>
    <contour>
      <point x="-46" y="563" type="curve"/>
      <point x="-48" y="562" type="line"/>
      <point x="-48" y="643"/>
      <point x="5" y="686"/>
      <point x="85" y="686" type="curve" smooth="yes"/>
      <point x="140" y="686"/>
      <point x="172" y="676"/>
      <point x="196" y="645" type="curve" smooth="yes"/>
      <point x="205" y="634"/>
      <point x="214" y="620"/>
      <point x="223" y="603" type="curve" smooth="yes"/>
      <point x="345" y="342" type="line"/>
      <point x="480" y="600" type="line" smooth="yes"/>
      <point x="486" y="611"/>
      <point x="476" y="620"/>
      <point x="468" y="621" type="curve" smooth="yes"/>
      <point x="412" y="628" type="line"/>
      <point x="412" y="671" type="line"/>
      <point x="615" y="671" type="line"/>
      <point x="615" y="628" type="line"/>
      <point x="561" y="618" type="line"/>
      <point x="379" y="285" type="line"/>
      <point x="379" y="69" type="line" smooth="yes"/>
      <point x="379" y="58"/>
      <point x="389" y="48"/>
      <point x="400" y="47" type="curve" smooth="yes"/>
      <point x="464" y="43" type="line"/>
      <point x="464" y="0" type="line"/>
      <point x="194" y="0" type="line"/>
      <point x="194" y="43" type="line"/>
      <point x="256" y="47" type="line" smooth="yes"/>
      <point x="268" y="48"/>
      <point x="278" y="57"/>
      <point x="278" y="69" type="curve" smooth="yes"/>
      <point x="278" y="270" type="line"/>
      <point x="111" y="607" type="line" smooth="yes"/>
      <point x="104" y="614"/>
      <point x="94" y="624"/>
      <point x="80" y="624" type="curve" smooth="yes"/>
      <point x="54" y="624"/>
      <point x="42" y="616"/>
      <point x="31" y="600" type="curve"/>
      <point x="73" y="529" type="line"/>
      <point x="57" y="511"/>
      <point x="38" y="499"/>
      <point x="9" y="499" type="curve" smooth="yes"/>
      <point x="-23" y="499"/>
      <point x="-46" y="531"/>
    </contour>
  </outline>
</glyph>
<glyph name="uni01B6" format="1">
  <advance width="461"/>
  <unicode hex="01B6"/>
  <outline>
    <contour>
      <point x="34" y="0" type="line"/>
      <point x="35" y="53" type="line"/>
      <point x="152" y="222" type="line"/>
      <point x="91" y="222" type="line"/>
      <point x="91" y="272" type="line"/>
      <point x="187" y="272" type="line"/>
      <point x="300" y="435" type="line"/>
      <point x="126" y="435" type="line" smooth="yes"/>
      <point x="116" y="435"/>
      <point x="107" y="423"/>
      <point x="106" y="414" type="curve" smooth="yes"/>
      <point x="96" y="340" type="line"/>
      <point x="45" y="340" type="line"/>
      <point x="45" y="482" type="line"/>
      <point x="415" y="482" type="line"/>
      <point x="415" y="441" type="line"/>
      <point x="297" y="272" type="line"/>
      <point x="364" y="272" type="line"/>
      <point x="364" y="222" type="line"/>
      <point x="262" y="222" type="line"/>
      <point x="141" y="48" type="line"/>
      <point x="343" y="48" type="line" smooth="yes"/>
      <point x="354" y="48"/>
      <point x="362" y="63"/>
      <point x="364" y="72" type="curve" smooth="yes"/>
      <point x="374" y="151" type="line"/>
      <point x="428" y="151" type="line"/>
      <point x="428" y="0" type="line"/>
    </contour>
  </outline>
</glyph>
<glyph name="uni01B8" format="1">
  <advance width="611"/>
  <unicode hex="01B8"/>
  <outline>
    <contour>
      <point x="515" y="-10" type="curve"/>
      <point x="516" y="-11" type="line"/>
      <point x="559" y="-11"/>
      <point x="584" y="-44"/>
      <point x="584" y="-86" type="curve" smooth="yes"/>
      <point x="584" y="-128"/>
      <point x="552" y="-161"/>
      <point x="523" y="-182" type="curve" smooth="yes"/>
      <point x="481" y="-212"/>
      <point x="420" y="-230"/>
      <point x="346" y="-230" type="curve" smooth="yes"/>
      <point x="255" y="-230"/>
      <point x="178" y="-195"/>
      <point x="127" y="-151" type="curve" smooth="yes"/>
      <point x="77" y="-108"/>
      <point x="33" y="-44"/>
      <point x="33" y="43" type="curve" smooth="yes"/>
      <point x="33" y="123"/>
      <point x="72" y="181"/>
      <point x="114" y="222" type="curve" smooth="yes"/>
      <point x="157" y="264"/>
      <point x="219" y="299"/>
      <point x="301" y="299" type="curve"/>
      <point x="64" y="598" type="line"/>
      <point x="64" y="670" type="line"/>
      <point x="540" y="670" type="line"/>
      <point x="540" y="450" type="line"/>
      <point x="483" y="450" type="line"/>
      <point x="472" y="548" type="line" smooth="yes"/>
      <point x="472" y="560"/>
      <point x="461" y="575"/>
      <point x="449" y="575" type="curve" smooth="yes"/>
      <point x="165" y="575" type="line"/>
      <point x="410" y="270" type="line"/>
      <point x="379" y="235" type="line"/>
      <point x="370" y="244"/>
      <point x="356" y="249"/>
      <point x="335" y="249" type="curve" smooth="yes"/>
      <point x="284" y="249"/>
      <point x="243" y="227"/>
      <point x="213" y="203" type="curve" smooth="yes"/>
      <point x="175" y="172"/>
      <point x="147" y="120"/>
      <point x="147" y="51" type="curve" smooth="yes"/>
      <point x="147" y="-11"/>
      <point x="174" y="-65"/>
      <point x="205" y="-101" type="curve" smooth="yes"/>
      <point x="235" y="-137"/>
      <point x="282" y="-173"/>
      <point x="343" y="-173" type="curve" smooth="yes"/>
      <point x="384" y="-173"/>
      <point x="413" y="-154"/>
      <point x="441" y="-138" type="curve"/>
      <point x="477" y="-20" type="line"/>
      <point x="485" y="-15"/>
      <point x="503" y="-10"/>
    </contour>
  </outline>
</glyph>
<glyph name="uni01BB" format="1">
  <advance width="562"/>
  <unicode hex="01BB"/>
  <outline>
    <contour>
      <point x="490" y="492" type="curve"/>
      <point x="491" y="489" type="line"/>
      <point x="491" y="420"/>
      <point x="458" y="368"/>
      <point x="423" y="325" type="curve"/>
      <point x="546" y="325" type="line"/>
      <point x="546" y="274" type="line"/>
      <point x="377" y="274" type="line"/>
      <point x="309" y="206"/>
      <point x="229" y="143"/>
      <point x="150" y="81" type="curve"/>
      <point x="446" y="81" type="line"/>
      <point x="464" y="167" type="line"/>
      <point x="513" y="167" type="line"/>
      <point x="513" y="-4" type="line"/>
      <point x="44" y="-4" type="line"/>
      <point x="44" y="63" type="line"/>
      <point x="129" y="134"/>
      <point x="213" y="198"/>
      <point x="283" y="273" type="curve"/>
      <point x="69" y="273" type="line"/>
      <point x="69" y="324" type="line"/>
      <point x="326" y="324" type="line"/>
      <point x="357" y="367"/>
      <point x="384" y="413"/>
      <point x="384" y="479" type="curve" smooth="yes"/>
      <point x="384" y="567"/>
      <point x="340" y="626"/>
      <point x="253" y="626" type="curve" smooth="yes"/>
      <point x="223" y="626"/>
      <point x="199" y="618"/>
      <point x="180" y="608" type="curve" smooth="yes"/>
      <point x="176" y="606"/>
      <point x="173" y="605"/>
      <point x="172" y="605" type="curve" smooth="yes"/>
      <point x="172" y="494" type="line"/>
      <point x="162" y="484"/>
      <point x="144" y="477"/>
      <point x="123" y="477" type="curve" smooth="yes"/>
      <point x="87" y="477"/>
      <point x="63" y="499"/>
      <point x="63" y="536" type="curve" smooth="yes"/>
      <point x="63" y="585"/>
      <point x="95" y="620"/>
      <point x="127" y="641" type="curve" smooth="yes"/>
      <point x="164" y="666"/>
      <point x="218" y="682"/>
      <point x="279" y="682" type="curve" smooth="yes"/>
      <point x="378" y="682"/>
      <point x="446" y="640"/>
      <point x="475" y="570" type="curve" smooth="yes"/>
      <point x="485" y="547"/>
      <point x="490" y="521"/>
    </contour>
  </outline>
</glyph>
<glyph name="uni01BE" format="1">
  <advance width="465"/>
  <unicode hex="01BE"/>
  <outline>
    <contour>
      <point x="296" y="627" type="line"/>
      <point x="292" y="627" type="line" smooth="yes"/>
      <point x="283" y="627"/>
      <point x="270" y="616"/>
      <point x="270" y="607" type="curve" smooth="yes"/>
      <point x="270" y="462" type="line"/>
      <point x="398" y="462" type="line"/>
      <point x="398" y="411" type="line"/>
      <point x="270" y="411" type="line"/>
      <point x="270" y="366" type="line"/>
      <point x="336" y="338"/>
      <point x="394" y="293"/>
      <point x="416" y="219" type="curve" smooth="yes"/>
      <point x="421" y="202"/>
      <point x="424" y="183"/>
      <point x="424" y="162" type="curve" smooth="yes"/>
      <point x="424" y="72"/>
      <point x="367" y="19"/>
      <point x="298" y="-4" type="curve" smooth="yes"/>
      <point x="273" y="-12"/>
      <point x="246" y="-16"/>
      <point x="217" y="-16" type="curve" smooth="yes"/>
      <point x="143" y="-16"/>
      <point x="79" y="11"/>
      <point x="50" y="55" type="curve" smooth="yes"/>
      <point x="42" y="68"/>
      <point x="38" y="80"/>
      <point x="38" y="92" type="curve" smooth="yes"/>
      <point x="38" y="127"/>
      <point x="56" y="149"/>
      <point x="91" y="149" type="curve" smooth="yes"/>
      <point x="109" y="149"/>
      <point x="124" y="141"/>
      <point x="135" y="134" type="curve"/>
      <point x="162" y="47" type="line"/>
      <point x="178" y="36"/>
      <point x="196" y="29"/>
      <point x="220" y="29" type="curve" smooth="yes"/>
      <point x="273" y="29"/>
      <point x="303" y="70"/>
      <point x="317" y="112" type="curve" smooth="yes"/>
      <point x="323" y="130"/>
      <point x="326" y="150"/>
      <point x="326" y="172" type="curve" smooth="yes"/>
      <point x="326" y="225"/>
      <point x="303" y="265"/>
      <point x="277" y="294" type="curve" smooth="yes"/>
      <point x="252" y="322"/>
      <point x="218" y="346"/>
      <point x="181" y="358" type="curve"/>
      <point x="181" y="412" type="line"/>
      <point x="50" y="412" type="line"/>
      <point x="50" y="463" type="line"/>
      <point x="181" y="463" type="line"/>
      <point x="181" y="608" type="line" smooth="yes"/>
      <point x="181" y="619"/>
      <point x="168" y="625"/>
      <point x="159" y="627" type="curve" smooth="yes"/>
      <point x="108" y="632" type="line"/>
      <point x="108" y="671" type="line"/>
      <point x="348" y="671" type="line"/>
      <point x="348" y="632" type="line"/>
    </contour>
  </outline>
</glyph>
<glyph name="uni01C6" format="1">
  <advance width="1025"/>
  <unicode hex="01C6"/>
  <outline>
    <contour>
      <point x="278" y="56" type="curve"/>
      <point x="278" y="57" type="line"/>
      <point x="321" y="57"/>
      <point x="353" y="75"/>
      <point x="381" y="92" type="curve"/>
      <point x="381" y="432" type="line"/>
      <point x="357" y="440"/>
      <point x="327" y="447"/>
      <point x="296" y="447" type="curve" smooth="yes"/>
      <point x="212" y="447"/>
      <point x="165" y="394"/>
      <point x="145" y="329" type="curve" smooth="yes"/>
      <point x="137" y="304"/>
      <point x="133" y="276"/>
      <point x="133" y="245" type="curve" smooth="yes"/>
      <point x="133" y="162"/>
      <point x="161" y="98"/>
      <point x="216" y="70" type="curve" smooth="yes"/>
      <point x="234" y="61"/>
      <point x="255" y="56"/>
    </contour>
    <contour>
      <point x="289" y="495" type="curve" smooth="yes"/>
      <point x="322" y="495"/>
      <point x="355" y="487"/>
      <point x="382" y="483" type="curve"/>
      <point x="382" y="666" type="line"/>
      <point x="306" y="666" type="line"/>
      <point x="306" y="699" type="line"/>
      <point x="435" y="738" type="line"/>
      <point x="475" y="738" type="line"/>
      <point x="475" y="65" type="line" smooth="yes"/>
      <point x="475" y="53"/>
      <point x="485" y="45"/>
      <point x="496" y="44" type="curve" smooth="yes"/>
      <point x="539" y="41" type="line"/>
      <point x="539" y="2" type="line"/>
      <point x="382" y="2" type="line"/>
      <point x="382" y="55" type="line"/>
      <point x="349" y="30"/>
      <point x="314" y="7"/>
      <point x="269" y="-5" type="curve" smooth="yes"/>
      <point x="255" y="-9"/>
      <point x="241" y="-11"/>
      <point x="226" y="-11" type="curve" smooth="yes"/>
      <point x="156" y="-11"/>
      <point x="109" y="24"/>
      <point x="80" y="67" type="curve" smooth="yes"/>
      <point x="52" y="107"/>
      <point x="34" y="165"/>
      <point x="34" y="229" type="curve" smooth="yes"/>
      <point x="34" y="350"/>
      <point x="92" y="432"/>
      <point x="177" y="472" type="curve" smooth="yes"/>
      <point x="209" y="487"/>
      <point x="246" y="495"/>
    </contour>
    <contour>
      <point x="598" y="1" type="line"/>
      <point x="599" y="54" type="line"/>
      <point x="864" y="436" type="line"/>
      <point x="690" y="436" type="line" smooth="yes"/>
      <point x="680" y="436"/>
      <point x="671" y="424"/>
      <point x="670" y="415" type="curve" smooth="yes"/>
      <point x="660" y="341" type="line"/>
      <point x="609" y="341" type="line"/>
      <point x="609" y="483" type="line"/>
      <point x="979" y="483" type="line"/>
      <point x="979" y="442" type="line"/>
      <point x="705" y="49" type="line"/>
      <point x="907" y="49" type="line" smooth="yes"/>
      <point x="918" y="49"/>
      <point x="926" y="64"/>
      <point x="928" y="73" type="curve" smooth="yes"/>
      <point x="938" y="152" type="line"/>
      <point x="992" y="152" type="line"/>
      <point x="992" y="1" type="line"/>
    </contour>
    <contour>
      <point x="839" y="552" type="line"/>
      <point x="763" y="552" type="line"/>
      <point x="637" y="721" type="line"/>
      <point x="698" y="721" type="line"/>
      <point x="802" y="622" type="line"/>
      <point x="905" y="721" type="line"/>
      <point x="965" y="721" type="line"/>
    </contour>
  </outline>
</glyph>
<glyph name="uni01CB" format="1">
  <advance width="1013"/>
  <unicode hex="01CB"/>
  <outline>
    <contour>
      <point x="636" y="624" type="line" smooth="yes"/>
      <point x="624" y="623"/>
      <point x="615" y="614"/>
      <point x="615" y="602" type="curve" smooth="yes"/>
      <point x="615" y="0" type="line"/>
      <point x="537" y="0" type="line"/>
      <point x="165" y="560" type="line"/>
      <point x="165" y="69" type="line" smooth="yes"/>
      <point x="165" y="57"/>
      <point x="174" y="48"/>
      <point x="186" y="47" type="curve" smooth="yes"/>
      <point x="243" y="43" type="line"/>
      <point x="243" y="0" type="line"/>
      <point x="27" y="0" type="line"/>
      <point x="27" y="43" type="line"/>
      <point x="84" y="47" type="line" smooth="yes"/>
      <point x="96" y="48"/>
      <point x="106" y="57"/>
      <point x="106" y="69" type="curve" smooth="yes"/>
      <point x="106" y="602" type="line" smooth="yes"/>
      <point x="106" y="614"/>
      <point x="96" y="623"/>
      <point x="84" y="624" type="curve" smooth="yes"/>
      <point x="25" y="628" type="line"/>
      <point x="25" y="671" type="line"/>
      <point x="223" y="671" type="line"/>
      <point x="223" y="646" type="line"/>
      <point x="556" y="143" type="line"/>
      <point x="556" y="602" type="line" smooth="yes"/>
      <point x="556" y="613"/>
      <point x="546" y="623"/>
      <point x="535" y="624" type="curve" smooth="yes"/>
      <point x="478" y="628" type="line"/>
      <point x="478" y="671" type="line"/>
      <point x="692" y="671" type="line"/>
      <point x="692" y="628" type="line"/>
    </contour>
    <contour>
      <point x="782" y="-183" type="line"/>
      <point x="824" y="-159"/>
      <point x="830" y="-87"/>
      <point x="830" y="-21" type="curve" smooth="yes"/>
      <point x="830" y="423" type="line"/>
      <point x="759" y="423" type="line"/>
      <point x="759" y="456" type="line"/>
      <point x="882" y="494" type="line"/>
      <point x="923" y="494" type="line"/>
      <point x="923" y="64" type="line" smooth="yes"/>
      <point x="923" y="-12"/>
      <point x="915" y="-89"/>
      <point x="884" y="-136" type="curve" smooth="yes"/>
      <point x="850" y="-188"/>
      <point x="795" y="-229"/>
      <point x="718" y="-229" type="curve" smooth="yes"/>
      <point x="677" y="-229"/>
      <point x="642" y="-214"/>
      <point x="642" y="-174" type="curve" smooth="yes"/>
      <point x="642" y="-141"/>
      <point x="662" y="-126"/>
      <point x="685" y="-116" type="curve"/>
    </contour>
    <contour>
      <point x="873" y="708" type="curve" smooth="yes"/>
      <point x="909" y="708"/>
      <point x="934" y="683"/>
      <point x="934" y="647" type="curve" smooth="yes"/>
      <point x="934" y="611"/>
      <point x="909" y="585"/>
      <point x="873" y="585" type="curve" smooth="yes"/>
      <point x="838" y="585"/>
      <point x="811" y="612"/>
      <point x="811" y="647" type="curve" smooth="yes"/>
      <point x="811" y="682"/>
      <point x="838" y="708"/>
    </contour>
  </outline>
</glyph>
<glyph name="uni01E5" format="1">
  <advance width="524"/>
  <unicode hex="01E5"/>
  <outline>
    <contour>
      <point x="144" y="-104" type="line"/>
      <point x="162" y="-149"/>
      <point x="203" y="-183"/>
      <point x="267" y="-183" type="curve" smooth="yes"/>
      <point x="333" y="-183"/>
      <point x="381" y="-151"/>
      <point x="400" y="-104" type="curve"/>
    </contour>
    <contour>
      <point x="212" y="27" type="curve"/>
      <point x="189" y="18"/>
      <point x="172" y="6"/>
      <point x="158" y="-10" type="curve" smooth="yes"/>
      <point x="147" y="-23"/>
      <point x="141" y="-36"/>
      <point x="138" y="-55" type="curve"/>
      <point x="408" y="-55" type="line"/>
      <point x="399" y="-5"/>
      <point x="335" y="7"/>
      <point x="285" y="16" type="curve" smooth="yes"/>
      <point x="261" y="20"/>
      <point x="234" y="22"/>
    </contour>
    <contour>
      <point x="259" y="453" type="curve"/>
      <point x="258" y="452" type="line"/>
      <point x="192" y="452"/>
      <point x="163" y="397"/>
      <point x="163" y="329" type="curve" smooth="yes"/>
      <point x="163" y="276"/>
      <point x="182" y="237"/>
      <point x="217" y="218" type="curve" smooth="yes"/>
      <point x="229" y="211"/>
      <point x="243" y="208"/>
      <point x="258" y="208" type="curve" smooth="yes"/>
      <point x="322" y="208"/>
      <point x="351" y="266"/>
      <point x="351" y="331" type="curve" smooth="yes"/>
      <point x="351" y="383"/>
      <point x="331" y="424"/>
      <point x="298" y="443" type="curve" smooth="yes"/>
      <point x="287" y="450"/>
      <point x="274" y="453"/>
    </contour>
    <contour>
      <point x="220" y="124" type="curve" smooth="yes"/>
      <point x="220" y="123" type="line" smooth="yes"/>
      <point x="220" y="114"/>
      <point x="222" y="104"/>
      <point x="222" y="98" type="curve"/>
      <point x="325" y="89"/>
      <point x="434" y="77"/>
      <point x="479" y="9" type="curve" smooth="yes"/>
      <point x="488" y="-5"/>
      <point x="493" y="-22"/>
      <point x="493" y="-42" type="curve" smooth="yes"/>
      <point x="493" y="-48" type="line" smooth="yes"/>
      <point x="493" y="-50"/>
      <point x="493" y="-52"/>
      <point x="492" y="-55" type="curve" smooth="yes"/>
      <point x="525" y="-55" type="line"/>
      <point x="525" y="-105" type="line"/>
      <point x="476" y="-105" type="line"/>
      <point x="445" y="-162"/>
      <point x="384" y="-201"/>
      <point x="313" y="-220" type="curve" smooth="yes"/>
      <point x="288" y="-227"/>
      <point x="261" y="-230"/>
      <point x="233" y="-230" type="curve" smooth="yes"/>
      <point x="134" y="-230"/>
      <point x="58" y="-190"/>
      <point x="45" y="-105" type="curve"/>
      <point x="5" y="-105" type="line"/>
      <point x="5" y="-55" type="line"/>
      <point x="48" y="-55" type="line"/>
      <point x="60" y="-7"/>
      <point x="97" y="23"/>
      <point x="151" y="33" type="curve"/>
      <point x="149" y="38"/>
      <point x="148" y="42"/>
      <point x="147" y="45" type="curve" smooth="yes"/>
      <point x="144" y="55" type="line" smooth="yes"/>
      <point x="142" y="63"/>
      <point x="142" y="68"/>
      <point x="142" y="78" type="curve" smooth="yes"/>
      <point x="142" y="91"/>
      <point x="146" y="106"/>
      <point x="154" y="122" type="curve" smooth="yes"/>
      <point x="162" y="138"/>
      <point x="175" y="155"/>
      <point x="192" y="173" type="curve"/>
      <point x="138" y="186"/>
      <point x="97" y="220"/>
      <point x="78" y="268" type="curve" smooth="yes"/>
      <point x="71" y="285"/>
      <point x="68" y="303"/>
      <point x="68" y="323" type="curve" smooth="yes"/>
      <point x="68" y="409"/>
      <point x="120" y="460"/>
      <point x="187" y="481" type="curve" smooth="yes"/>
      <point x="212" y="489"/>
      <point x="239" y="493"/>
      <point x="269" y="493" type="curve" smooth="yes"/>
      <point x="317" y="493"/>
      <point x="352" y="476"/>
      <point x="385" y="463" type="curve"/>
      <point x="520" y="463" type="line"/>
      <point x="520" y="414" type="line"/>
      <point x="420" y="414" type="line"/>
      <point x="435" y="390"/>
      <point x="447" y="363"/>
      <point x="447" y="324" type="curve" smooth="yes"/>
      <point x="447" y="266"/>
      <point x="417" y="227"/>
      <point x="381" y="202" type="curve" smooth="yes"/>
      <point x="344" y="177"/>
      <point x="291" y="161"/>
      <point x="230" y="165" type="curve"/>
      <point x="223" y="154"/>
      <point x="220" y="140"/>
    </contour>
  </outline>
</glyph>
<glyph name="uni01EA" format="1">
  <advance width="730"/>
  <unicode hex="01EA"/>
  <outline>
    <contour>
      <point x="447" y="-141" type="curve"/>
      <point x="446" y="-139" type="line"/>
      <point x="462" y="-139"/>
      <point x="477" y="-128"/>
      <point x="487" y="-121" type="curve"/>
      <point x="511" y="-161" type="line"/>
      <point x="492" y="-171"/>
      <point x="474" y="-178"/>
      <point x="452" y="-185" type="curve" smooth="yes"/>
      <point x="442" y="-188"/>
      <point x="433" y="-189"/>
      <point x="425" y="-189" type="curve" smooth="yes"/>
      <point x="369" y="-189"/>
      <point x="325" y="-169"/>
      <point x="325" y="-116" type="curve" smooth="yes"/>
      <point x="325" y="-72"/>
      <point x="349" y="-37"/>
      <point x="373" y="-16" type="curve" smooth="yes"/>
      <point x="374" y="-16"/>
      <point x="374" y="-15"/>
      <point x="374" y="-14" type="curve" smooth="yes"/>
      <point x="365" y="-14" type="line" smooth="yes"/>
      <point x="259" y="-14"/>
      <point x="181" y="28"/>
      <point x="128" y="86" type="curve" smooth="yes"/>
      <point x="75" y="145"/>
      <point x="38" y="230"/>
      <point x="38" y="338" type="curve" smooth="yes"/>
      <point x="38" y="443"/>
      <point x="75" y="528"/>
      <point x="127" y="586" type="curve" smooth="yes"/>
      <point x="179" y="644"/>
      <point x="259" y="688"/>
      <point x="365" y="688" type="curve" smooth="yes"/>
      <point x="471" y="688"/>
      <point x="551" y="642"/>
      <point x="603" y="584" type="curve" smooth="yes"/>
      <point x="655" y="526"/>
      <point x="692" y="441"/>
      <point x="692" y="335" type="curve" smooth="yes"/>
      <point x="692" y="230"/>
      <point x="654" y="145"/>
      <point x="602" y="87" type="curve" smooth="yes"/>
      <point x="560" y="40"/>
      <point x="504" y="2"/>
      <point x="429" y="-10" type="curve"/>
      <point x="411" y="-32"/>
      <point x="389" y="-53"/>
      <point x="389" y="-92" type="curve" smooth="yes"/>
      <point x="389" y="-126"/>
      <point x="412" y="-141"/>
    </contour>
    <contour>
      <point x="575" y="336" type="curve"/>
      <point x="576" y="335" type="line"/>
      <point x="576" y="461"/>
      <point x="537" y="560"/>
      <point x="458" y="607" type="curve" smooth="yes"/>
      <point x="432" y="623"/>
      <point x="402" y="631"/>
      <point x="367" y="631" type="curve" smooth="yes"/>
      <point x="289" y="631"/>
      <point x="238" y="593"/>
      <point x="206" y="544" type="curve" smooth="yes"/>
      <point x="172" y="493"/>
      <point x="154" y="421"/>
      <point x="154" y="338" type="curve" smooth="yes"/>
      <point x="154" y="213"/>
      <point x="193" y="113"/>
      <point x="271" y="65" type="curve" smooth="yes"/>
      <point x="297" y="49"/>
      <point x="328" y="41"/>
      <point x="363" y="41" type="curve" smooth="yes"/>
      <point x="440" y="41"/>
      <point x="491" y="80"/>
      <point x="523" y="129" type="curve" smooth="yes"/>
      <point x="556" y="180"/>
      <point x="575" y="253"/>
    </contour>
  </outline>
</glyph>
<glyph name="uni01ED" format="1">
  <advance width="543"/>
  <unicode hex="01ED"/>
  <outline>
    <contour>
      <point x="339" y="-191" type="curve"/>
      <point x="340" y="-192" type="line"/>
      <point x="284" y="-192"/>
      <point x="240" y="-172"/>
      <point x="240" y="-119" type="curve" smooth="yes"/>
      <point x="240" y="-72"/>
      <point x="273" y="-35"/>
      <point x="298" y="-12" type="curve"/>
      <point x="289" y="-13"/>
      <point x="280" y="-13"/>
      <point x="271" y="-13" type="curve" smooth="yes"/>
      <point x="154" y="-13"/>
      <point x="82" y="52"/>
      <point x="51" y="139" type="curve" smooth="yes"/>
      <point x="40" y="170"/>
      <point x="35" y="203"/>
      <point x="35" y="239" type="curve" smooth="yes"/>
      <point x="35" y="356"/>
      <point x="92" y="437"/>
      <point x="175" y="474" type="curve" smooth="yes"/>
      <point x="204" y="487"/>
      <point x="237" y="494"/>
      <point x="274" y="494" type="curve" smooth="yes"/>
      <point x="391" y="494"/>
      <point x="463" y="427"/>
      <point x="494" y="339" type="curve" smooth="yes"/>
      <point x="505" y="308"/>
      <point x="510" y="275"/>
      <point x="510" y="240" type="curve" smooth="yes"/>
      <point x="510" y="130"/>
      <point x="458" y="53"/>
      <point x="385" y="14" type="curve" smooth="yes"/>
      <point x="346" y="-8"/>
      <point x="302" y="-40"/>
      <point x="302" y="-92" type="curve" smooth="yes"/>
      <point x="302" y="-126"/>
      <point x="325" y="-141"/>
      <point x="360" y="-141" type="curve" smooth="yes"/>
      <point x="376" y="-141"/>
      <point x="391" y="-130"/>
      <point x="401" y="-123" type="curve"/>
      <point x="425" y="-163" type="line"/>
      <point x="405" y="-173"/>
      <point x="388" y="-180"/>
      <point x="366" y="-187" type="curve" smooth="yes"/>
      <point x="356" y="-190"/>
      <point x="347" y="-191"/>
    </contour>
    <contour>
      <point x="407" y="240" type="curve"/>
      <point x="406" y="240" type="line"/>
      <point x="406" y="325"/>
      <point x="382" y="396"/>
      <point x="332" y="431" type="curve" smooth="yes"/>
      <point x="316" y="442"/>
      <point x="297" y="448"/>
      <point x="274" y="448" type="curve" smooth="yes"/>
      <point x="196" y="448"/>
      <point x="161" y="384"/>
      <point x="147" y="319" type="curve" smooth="yes"/>
      <point x="142" y="294"/>
      <point x="139" y="268"/>
      <point x="139" y="241" type="curve" smooth="yes"/>
      <point x="139" y="156"/>
      <point x="163" y="86"/>
      <point x="213" y="51" type="curve" smooth="yes"/>
      <point x="230" y="39"/>
      <point x="250" y="33"/>
      <point x="273" y="33" type="curve" smooth="yes"/>
      <point x="350" y="33"/>
      <point x="385" y="97"/>
      <point x="399" y="162" type="curve" smooth="yes"/>
      <point x="404" y="187"/>
      <point x="407" y="213"/>
    </contour>
    <contour>
      <point x="104" y="585" type="line"/>
      <point x="104" y="648" type="line"/>
      <point x="439" y="648" type="line"/>
      <point x="439" y="585" type="line"/>
    </contour>
  </outline>
</glyph>
<glyph name="uni01EE" format="1">
  <advance width="610"/>
  <unicode hex="01EE"/>
  <outline>
    <contour>
      <point x="156" y="576" type="line"/>
      <point x="156" y="577" type="line"/>
      <point x="144" y="577"/>
      <point x="133" y="562"/>
      <point x="133" y="550" type="curve" smooth="yes"/>
      <point x="122" y="452" type="line"/>
      <point x="65" y="452" type="line"/>
      <point x="65" y="672" type="line"/>
      <point x="541" y="672" type="line"/>
      <point x="541" y="600" type="line"/>
      <point x="304" y="301" type="line"/>
      <point x="382" y="301"/>
      <point x="447" y="268"/>
      <point x="491" y="228" type="curve" smooth="yes"/>
      <point x="534" y="189"/>
      <point x="572" y="130"/>
      <point x="572" y="54" type="curve" smooth="yes"/>
      <point x="572" y="-37"/>
      <point x="528" y="-101"/>
      <point x="478" y="-145" type="curve" smooth="yes"/>
      <point x="441" y="-178"/>
      <point x="394" y="-204"/>
      <point x="340" y="-219" type="curve" smooth="yes"/>
      <point x="314" y="-226"/>
      <point x="287" y="-229"/>
      <point x="259" y="-229" type="curve" smooth="yes"/>
      <point x="157" y="-229"/>
      <point x="74" y="-195"/>
      <point x="37" y="-133" type="curve" smooth="yes"/>
      <point x="27" y="-116"/>
      <point x="22" y="-100"/>
      <point x="22" y="-85" type="curve" smooth="yes"/>
      <point x="22" y="-43"/>
      <point x="47" y="-10"/>
      <point x="90" y="-10" type="curve" smooth="yes"/>
      <point x="102" y="-10"/>
      <point x="120" y="-15"/>
      <point x="128" y="-20" type="curve"/>
      <point x="164" y="-138" type="line"/>
      <point x="191" y="-154"/>
      <point x="221" y="-173"/>
      <point x="261" y="-173" type="curve" smooth="yes"/>
      <point x="302" y="-173"/>
      <point x="335" y="-156"/>
      <point x="360" y="-137" type="curve" smooth="yes"/>
      <point x="402" y="-105"/>
      <point x="436" y="-55"/>
      <point x="451" y="3" type="curve" smooth="yes"/>
      <point x="456" y="21"/>
      <point x="458" y="38"/>
      <point x="458" y="55" type="curve" smooth="yes"/>
      <point x="458" y="142"/>
      <point x="409" y="198"/>
      <point x="352" y="228" type="curve" smooth="yes"/>
      <point x="329" y="240"/>
      <point x="301" y="250"/>
      <point x="270" y="250" type="curve" smooth="yes"/>
      <point x="249" y="250"/>
      <point x="235" y="245"/>
      <point x="226" y="236" type="curve"/>
      <point x="195" y="271" type="line"/>
      <point x="440" y="576" type="line"/>
    </contour>
    <contour>
      <point x="334" y="747" type="line"/>
      <point x="258" y="747" type="line"/>
      <point x="132" y="916" type="line"/>
      <point x="193" y="916" type="line"/>
      <point x="297" y="817" type="line"/>
      <point x="400" y="916" type="line"/>
      <point x="460" y="916" type="line"/>
    </contour>
  </outline>
</glyph>
<glyph name="uni01F8" format="1">
  <advance width="721"/>
  <unicode hex="01F8"/>
  <outline>
    <contour>
      <point x="636" y="624" type="line" smooth="yes"/>
      <point x="624" y="623"/>
      <point x="615" y="614"/>
      <point x="615" y="602" type="curve" smooth="yes"/>
      <point x="615" y="0" type="line"/>
      <point x="537" y="0" type="line"/>
      <point x="165" y="560" type="line"/>
      <point x="165" y="69" type="line" smooth="yes"/>
      <point x="165" y="57"/>
      <point x="174" y="48"/>
      <point x="186" y="47" type="curve" smooth="yes"/>
      <point x="243" y="43" type="line"/>
      <point x="243" y="0" type="line"/>
      <point x="27" y="0" type="line"/>
      <point x="27" y="43" type="line"/>
      <point x="84" y="47" type="line" smooth="yes"/>
      <point x="96" y="48"/>
      <point x="106" y="57"/>
      <point x="106" y="69" type="curve" smooth="yes"/>
      <point x="106" y="602" type="line" smooth="yes"/>
      <point x="106" y="614"/>
      <point x="96" y="623"/>
      <point x="84" y="624" type="curve" smooth="yes"/>
      <point x="25" y="628" type="line"/>
      <point x="25" y="671" type="line"/>
      <point x="223" y="671" type="line"/>
      <point x="223" y="646" type="line"/>
      <point x="556" y="143" type="line"/>
      <point x="556" y="602" type="line" smooth="yes"/>
      <point x="556" y="613"/>
      <point x="546" y="623"/>
      <point x="535" y="624" type="curve" smooth="yes"/>
      <point x="478" y="628" type="line"/>
      <point x="478" y="671" type="line"/>
      <point x="692" y="671" type="line"/>
      <point x="692" y="628" type="line"/>
    </contour>
    <contour>
      <point x="214" y="883" type="curve"/>
      <point x="213" y="884" type="line"/>
      <point x="213" y="912"/>
      <point x="231" y="929"/>
      <point x="259" y="929" type="curve" smooth="yes"/>
      <point x="289" y="929"/>
      <point x="298" y="917"/>
      <point x="313" y="902" type="curve" smooth="yes"/>
      <point x="446" y="747" type="line"/>
      <point x="389" y="747" type="line"/>
      <point x="237" y="844" type="line" smooth="yes"/>
      <point x="224" y="852"/>
      <point x="214" y="863"/>
    </contour>
  </outline>
</glyph>
<glyph name="aringacute" format="1">
  <advance width="508"/>
  <unicode hex="01FB"/>
  <outline>
    <contour>
      <point x="133" y="130" type="curve"/>
      <point x="132" y="129" type="line"/>
      <point x="132" y="82"/>
      <point x="160" y="46"/>
      <point x="207" y="46" type="curve" smooth="yes"/>
      <point x="236" y="46"/>
      <point x="267" y="60"/>
      <point x="289" y="69" type="curve" smooth="yes"/>
      <point x="303" y="76"/>
      <point x="317" y="84"/>
      <point x="330" y="93" type="curve"/>
      <point x="330" y="266" type="line"/>
      <point x="285" y="255"/>
      <point x="250" y="244"/>
      <point x="224" y="233" type="curve" smooth="yes"/>
      <point x="198" y="222"/>
      <point x="178" y="211"/>
      <point x="164" y="200" type="curve" smooth="yes"/>
      <point x="142" y="182"/>
      <point x="133" y="164"/>
    </contour>
    <contour>
      <point x="264" y="493" type="curve"/>
      <point x="264" y="494" type="line"/>
      <point x="370" y="494"/>
      <point x="422" y="448"/>
      <point x="422" y="344" type="curve" smooth="yes"/>
      <point x="422" y="64" type="line" smooth="yes"/>
      <point x="422" y="52"/>
      <point x="432" y="44"/>
      <point x="443" y="43" type="curve" smooth="yes"/>
      <point x="491" y="40" type="line"/>
      <point x="491" y="1" type="line"/>
      <point x="343" y="1" type="line"/>
      <point x="330" y="60" type="line"/>
      <point x="291" y="30"/>
      <point x="248" y="3"/>
      <point x="192" y="-9" type="curve" smooth="yes"/>
      <point x="182" y="-11"/>
      <point x="172" y="-12"/>
      <point x="162" y="-12" type="curve" smooth="yes"/>
      <point x="100" y="-12"/>
      <point x="61" y="21"/>
      <point x="43" y="66" type="curve" smooth="yes"/>
      <point x="36" y="82"/>
      <point x="33" y="101"/>
      <point x="33" y="122" type="curve" smooth="yes"/>
      <point x="33" y="197"/>
      <point x="81" y="225"/>
      <point x="136" y="248" type="curve" smooth="yes"/>
      <point x="192" y="272"/>
      <point x="257" y="288"/>
      <point x="330" y="304" type="curve"/>
      <point x="330" y="347" type="line" smooth="yes"/>
      <point x="330" y="413"/>
      <point x="302" y="446"/>
      <point x="237" y="446" type="curve" smooth="yes"/>
      <point x="210" y="446"/>
      <point x="182" y="440"/>
      <point x="166" y="433" type="curve"/>
      <point x="166" y="346" type="line"/>
      <point x="93" y="346" type="line" smooth="yes"/>
      <point x="71" y="346"/>
      <point x="56" y="352"/>
      <point x="56" y="375" type="curve" smooth="yes"/>
      <point x="56" y="422"/>
      <point x="89" y="448"/>
      <point x="123" y="464" type="curve" smooth="yes"/>
      <point x="160" y="482"/>
      <point x="211" y="493"/>
    </contour>
    <contour>
      <point x="318" y="669" type="curve" smooth="yes"/>
      <point x="318" y="668" type="line" smooth="yes"/>
      <point x="318" y="709"/>
      <point x="288" y="739"/>
      <point x="248" y="739" type="curve" smooth="yes"/>
      <point x="215" y="739"/>
      <point x="194" y="719"/>
      <point x="184" y="696" type="curve" smooth="yes"/>
      <point x="180" y="688"/>
      <point x="178" y="679"/>
      <point x="178" y="669" type="curve" smooth="yes"/>
      <point x="178" y="629"/>
      <point x="208" y="599"/>
      <point x="248" y="599" type="curve" smooth="yes"/>
      <point x="288" y="599"/>
      <point x="318" y="629"/>
    </contour>
    <contour>
      <point x="367" y="668" type="curve" smooth="yes"/>
      <point x="367" y="614"/>
      <point x="333" y="575"/>
      <point x="294" y="559" type="curve" smooth="yes"/>
      <point x="280" y="553"/>
      <point x="265" y="550"/>
      <point x="248" y="550" type="curve" smooth="yes"/>
      <point x="192" y="550"/>
      <point x="156" y="583"/>
      <point x="138" y="623" type="curve" smooth="yes"/>
      <point x="132" y="637"/>
      <point x="129" y="652"/>
      <point x="129" y="668" type="curve" smooth="yes"/>
      <point x="129" y="723"/>
      <point x="163" y="761"/>
      <point x="202" y="778" type="curve" smooth="yes"/>
      <point x="216" y="784"/>
      <point x="232" y="787"/>
      <point x="249" y="787" type="curve" smooth="yes"/>
      <point x="305" y="787"/>
      <point x="341" y="753"/>
      <point x="358" y="714" type="curve" smooth="yes"/>
      <point x="364" y="700"/>
      <point x="367" y="685"/>
    </contour>
    <contour>
      <point x="347" y="1005" type="curve" smooth="yes"/>
      <point x="348" y="1005" type="line" smooth="yes"/>
      <point x="377" y="1005"/>
      <point x="394" y="988"/>
      <point x="394" y="960" type="curve" smooth="yes"/>
      <point x="394" y="941"/>
      <point x="382" y="929"/>
      <point x="371" y="920" type="curve" smooth="yes"/>
      <point x="218" y="823" type="line"/>
      <point x="162" y="823" type="line"/>
      <point x="294" y="978" type="line" smooth="yes"/>
      <point x="308" y="992"/>
      <point x="318" y="1005"/>
    </contour>
  </outline>
</glyph>
<glyph name="aeacute" format="1">
  <advance width="721"/>
  <unicode hex="01FD"/>
  <outline>
    <contour>
      <point x="588" y="329" type="line"/>
      <point x="589" y="329" type="line"/>
      <point x="589" y="378"/>
      <point x="573" y="418"/>
      <point x="542" y="437" type="curve" smooth="yes"/>
      <point x="531" y="444"/>
      <point x="518" y="447"/>
      <point x="503" y="447" type="curve" smooth="yes"/>
      <point x="428" y="447"/>
      <point x="408" y="373"/>
      <point x="408" y="299" type="curve"/>
      <point x="588" y="299" type="line"/>
    </contour>
    <contour>
      <point x="131" y="133" type="curve" smooth="yes"/>
      <point x="131" y="131" type="line" smooth="yes"/>
      <point x="131" y="81"/>
      <point x="157" y="46"/>
      <point x="207" y="46" type="curve" smooth="yes"/>
      <point x="234" y="46"/>
      <point x="261" y="59"/>
      <point x="279" y="69" type="curve" smooth="yes"/>
      <point x="292" y="76"/>
      <point x="304" y="84"/>
      <point x="316" y="93" type="curve"/>
      <point x="316" y="266" type="line"/>
      <point x="256" y="250"/>
      <point x="206" y="235"/>
      <point x="168" y="207" type="curve" smooth="yes"/>
      <point x="144" y="190"/>
      <point x="131" y="169"/>
    </contour>
    <contour>
      <point x="554" y="53" type="curve"/>
      <point x="555" y="52" type="line"/>
      <point x="618" y="52"/>
      <point x="654" y="79"/>
      <point x="689" y="107" type="curve"/>
      <point x="689" y="47" type="line"/>
      <point x="647" y="16"/>
      <point x="597" y="-15"/>
      <point x="523" y="-15" type="curve" smooth="yes"/>
      <point x="465" y="-15"/>
      <point x="424" y="2"/>
      <point x="388" y="23" type="curve" smooth="yes"/>
      <point x="370" y="34"/>
      <point x="354" y="47"/>
      <point x="341" y="61" type="curve"/>
      <point x="302" y="30"/>
      <point x="256" y="-1"/>
      <point x="198" y="-12" type="curve" smooth="yes"/>
      <point x="187" y="-14"/>
      <point x="176" y="-15"/>
      <point x="165" y="-15" type="curve" smooth="yes"/>
      <point x="84" y="-15"/>
      <point x="36" y="36"/>
      <point x="36" y="116" type="curve" smooth="yes"/>
      <point x="36" y="176"/>
      <point x="60" y="205"/>
      <point x="100" y="229" type="curve" smooth="yes"/>
      <point x="122" y="242"/>
      <point x="151" y="254"/>
      <point x="187" y="265" type="curve" smooth="yes"/>
      <point x="223" y="276"/>
      <point x="266" y="288"/>
      <point x="317" y="301" type="curve"/>
      <point x="317" y="342" type="line" smooth="yes"/>
      <point x="317" y="408"/>
      <point x="296" y="443"/>
      <point x="230" y="443" type="curve" smooth="yes"/>
      <point x="204" y="443"/>
      <point x="182" y="437"/>
      <point x="167" y="430" type="curve"/>
      <point x="167" y="343" type="line"/>
      <point x="97" y="343" type="line" smooth="yes"/>
      <point x="72" y="343"/>
      <point x="59" y="348"/>
      <point x="59" y="372" type="curve" smooth="yes"/>
      <point x="59" y="419"/>
      <point x="91" y="445"/>
      <point x="123" y="462" type="curve" smooth="yes"/>
      <point x="158" y="480"/>
      <point x="204" y="490"/>
      <point x="255" y="490" type="curve" smooth="yes"/>
      <point x="309" y="490"/>
      <point x="352" y="479"/>
      <point x="374" y="450" type="curve" smooth="yes"/>
      <point x="379" y="443"/>
      <point x="384" y="437"/>
      <point x="388" y="432" type="curve"/>
      <point x="416" y="465"/>
      <point x="459" y="491"/>
      <point x="522" y="491" type="curve" smooth="yes"/>
      <point x="638" y="491"/>
      <point x="688" y="403"/>
      <point x="688" y="288" type="curve" smooth="yes"/>
      <point x="688" y="278" type="line" smooth="yes"/>
      <point x="688" y="274"/>
      <point x="688" y="270"/>
      <point x="687" y="267" type="curve" smooth="yes"/>
      <point x="687" y="263"/>
      <point x="687" y="259"/>
      <point x="686" y="254" type="curve"/>
      <point x="409" y="254" type="line"/>
      <point x="409" y="121" type="line"/>
      <point x="443" y="87"/>
      <point x="485" y="53"/>
    </contour>
    <contour>
      <point x="477" y="730" type="curve" smooth="yes"/>
      <point x="478" y="730" type="line" smooth="yes"/>
      <point x="507" y="730"/>
      <point x="524" y="713"/>
      <point x="524" y="685" type="curve" smooth="yes"/>
      <point x="524" y="666"/>
      <point x="512" y="654"/>
      <point x="501" y="645" type="curve" smooth="yes"/>
      <point x="348" y="548" type="line"/>
      <point x="292" y="548" type="line"/>
      <point x="424" y="703" type="line" smooth="yes"/>
      <point x="438" y="717"/>
      <point x="448" y="730"/>
    </contour>
  </outline>
</glyph>
<glyph name="Oslashacute" format="1">
  <advance width="730"/>
  <unicode hex="01FE"/>
  <outline>
    <contour>
      <point x="479" y="592" type="line"/>
      <point x="480" y="591" type="line" smooth="yes"/>
      <point x="453" y="615"/>
      <point x="416" y="629"/>
      <point x="367" y="629" type="curve" smooth="yes"/>
      <point x="289" y="629"/>
      <point x="238" y="591"/>
      <point x="206" y="542" type="curve" smooth="yes"/>
      <point x="172" y="491"/>
      <point x="154" y="419"/>
      <point x="154" y="336" type="curve" smooth="yes"/>
      <point x="154" y="253"/>
      <point x="172" y="182"/>
      <point x="205" y="130" type="curve"/>
    </contour>
    <contour>
      <point x="243" y="84" type="curve"/>
      <point x="273" y="57"/>
      <point x="311" y="38"/>
      <point x="365" y="38" type="curve" smooth="yes"/>
      <point x="442" y="38"/>
      <point x="493" y="77"/>
      <point x="525" y="126" type="curve" smooth="yes"/>
      <point x="558" y="177"/>
      <point x="577" y="250"/>
      <point x="577" y="333" type="curve" smooth="yes"/>
      <point x="577" y="422"/>
      <point x="557" y="497"/>
      <point x="520" y="550" type="curve"/>
      <point x="432" y="403"/>
      <point x="334" y="239"/>
    </contour>
    <contour>
      <point x="620" y="719" type="line"/>
      <point x="620" y="720" type="line"/>
      <point x="601" y="688"/>
      <point x="582" y="655"/>
      <point x="562" y="623" type="curve"/>
      <point x="623" y="576"/>
      <point x="665" y="509"/>
      <point x="684" y="421" type="curve" smooth="yes"/>
      <point x="690" y="393"/>
      <point x="693" y="364"/>
      <point x="693" y="335" type="curve" smooth="yes"/>
      <point x="693" y="230"/>
      <point x="655" y="145"/>
      <point x="603" y="87" type="curve" smooth="yes"/>
      <point x="551" y="29"/>
      <point x="471" y="-16"/>
      <point x="366" y="-16" type="curve" smooth="yes"/>
      <point x="301" y="-16"/>
      <point x="248" y="-1"/>
      <point x="205" y="24" type="curve"/>
      <point x="184" y="-11"/>
      <point x="165" y="-44"/>
      <point x="144" y="-79" type="curve"/>
      <point x="98" y="-51" type="line"/>
      <point x="161" y="55" type="line"/>
      <point x="104" y="100"/>
      <point x="66" y="168"/>
      <point x="48" y="252" type="curve" smooth="yes"/>
      <point x="42" y="279"/>
      <point x="39" y="307"/>
      <point x="39" y="336" type="curve" smooth="yes"/>
      <point x="39" y="441"/>
      <point x="76" y="526"/>
      <point x="128" y="584" type="curve" smooth="yes"/>
      <point x="180" y="642"/>
      <point x="260" y="686"/>
      <point x="366" y="686" type="curve" smooth="yes"/>
      <point x="425" y="686"/>
      <point x="476" y="671"/>
      <point x="516" y="651" type="curve"/>
      <point x="573" y="747" type="line"/>
    </contour>
    <contour>
      <point x="465" y="928" type="curve" smooth="yes"/>
      <point x="466" y="928" type="line" smooth="yes"/>
      <point x="495" y="928"/>
      <point x="512" y="911"/>
      <point x="512" y="883" type="curve" smooth="yes"/>
      <point x="512" y="864"/>
      <point x="500" y="852"/>
      <point x="489" y="843" type="curve" smooth="yes"/>
      <point x="336" y="746" type="line"/>
      <point x="280" y="746" type="line"/>
      <point x="412" y="901" type="line" smooth="yes"/>
      <point x="426" y="915"/>
      <point x="436" y="928"/>
    </contour>
  </outline>
</glyph>
<glyph name="oslashacute" format="1">
  <advance width="543"/>
  <unicode hex="01FF"/>
  <outline>
    <contour>
      <point x="190" y="71" type="line"/>
      <point x="190" y="72" type="line"/>
      <point x="209" y="51"/>
      <point x="234" y="34"/>
      <point x="272" y="34" type="curve" smooth="yes"/>
      <point x="349" y="34"/>
      <point x="384" y="98"/>
      <point x="398" y="163" type="curve" smooth="yes"/>
      <point x="403" y="188"/>
      <point x="406" y="214"/>
      <point x="406" y="241" type="curve" smooth="yes"/>
      <point x="406" y="299"/>
      <point x="394" y="352"/>
      <point x="372" y="389" type="curve"/>
    </contour>
    <contour>
      <point x="344" y="424" type="line"/>
      <point x="345" y="423" type="line" smooth="yes"/>
      <point x="328" y="438"/>
      <point x="304" y="449"/>
      <point x="274" y="449" type="curve" smooth="yes"/>
      <point x="196" y="449"/>
      <point x="161" y="385"/>
      <point x="147" y="320" type="curve" smooth="yes"/>
      <point x="142" y="295"/>
      <point x="139" y="269"/>
      <point x="139" y="242" type="curve" smooth="yes"/>
      <point x="139" y="191"/>
      <point x="148" y="147"/>
      <point x="165" y="111" type="curve"/>
    </contour>
    <contour>
      <point x="410" y="454" type="line"/>
      <point x="411" y="453" type="line"/>
      <point x="471" y="410"/>
      <point x="512" y="340"/>
      <point x="512" y="238" type="curve" smooth="yes"/>
      <point x="512" y="122"/>
      <point x="454" y="42"/>
      <point x="372" y="6" type="curve" smooth="yes"/>
      <point x="343" y="-7"/>
      <point x="310" y="-13"/>
      <point x="273" y="-13" type="curve" smooth="yes"/>
      <point x="227" y="-13"/>
      <point x="190" y="-2"/>
      <point x="159" y="14" type="curve"/>
      <point x="104" y="-83" type="line"/>
      <point x="69" y="-62" type="line"/>
      <point x="125" y="36" type="line"/>
      <point x="72" y="78"/>
      <point x="36" y="148"/>
      <point x="36" y="239" type="curve" smooth="yes"/>
      <point x="36" y="356"/>
      <point x="93" y="437"/>
      <point x="176" y="474" type="curve" smooth="yes"/>
      <point x="205" y="487"/>
      <point x="238" y="494"/>
      <point x="275" y="494" type="curve" smooth="yes"/>
      <point x="314" y="494"/>
      <point x="346" y="487"/>
      <point x="374" y="474" type="curve"/>
      <point x="424" y="561" type="line"/>
      <point x="460" y="541" type="line"/>
    </contour>
    <contour>
      <point x="373" y="732" type="curve" smooth="yes"/>
      <point x="374" y="732" type="line" smooth="yes"/>
      <point x="403" y="732"/>
      <point x="420" y="715"/>
      <point x="420" y="687" type="curve" smooth="yes"/>
      <point x="420" y="668"/>
      <point x="408" y="656"/>
      <point x="397" y="647" type="curve" smooth="yes"/>
      <point x="244" y="550" type="line"/>
      <point x="188" y="550" type="line"/>
      <point x="320" y="705" type="line" smooth="yes"/>
      <point x="334" y="719"/>
      <point x="344" y="732"/>
    </contour>
  </outline>
</glyph>
<glyph name="uni0234" format="1">
  <advance width="373"/>
  <unicode hex="0234"/>
  <outline>
    <contour>
      <point x="196" y="127" type="curve"/>
      <point x="197" y="126" type="line"/>
      <point x="201" y="83"/>
      <point x="209" y="38"/>
      <point x="249" y="38" type="curve" smooth="yes"/>
      <point x="283" y="38"/>
      <point x="310" y="63"/>
      <point x="321" y="87" type="curve" smooth="yes"/>
      <point x="325" y="96"/>
      <point x="327" y="105"/>
      <point x="327" y="113" type="curve" smooth="yes"/>
      <point x="327" y="143"/>
      <point x="313" y="156"/>
      <point x="283" y="156" type="curve" smooth="yes"/>
      <point x="247" y="156"/>
      <point x="220" y="143"/>
    </contour>
    <contour>
      <point x="290" y="199" type="curve"/>
      <point x="289" y="198" type="line"/>
      <point x="338" y="198"/>
      <point x="373" y="170"/>
      <point x="373" y="121" type="curve" smooth="yes"/>
      <point x="373" y="57"/>
      <point x="334" y="17"/>
      <point x="286" y="0" type="curve" smooth="yes"/>
      <point x="268" y="-6"/>
      <point x="249" y="-9"/>
      <point x="228" y="-9" type="curve" smooth="yes"/>
      <point x="172" y="-9"/>
      <point x="133" y="10"/>
      <point x="115" y="48" type="curve"/>
      <point x="79" y="4"/>
      <point x="45" y="-54"/>
      <point x="22" y="-108" type="curve"/>
      <point x="-20" y="-90" type="line"/>
      <point x="10" y="-17"/>
      <point x="53" y="47"/>
      <point x="103" y="102" type="curve"/>
      <point x="103" y="664" type="line"/>
      <point x="27" y="664" type="line"/>
      <point x="27" y="697" type="line"/>
      <point x="155" y="736" type="line"/>
      <point x="196" y="736" type="line"/>
      <point x="196" y="174" type="line"/>
      <point x="223" y="187"/>
      <point x="252" y="199"/>
    </contour>
  </outline>
</glyph>
<glyph name="uni0236" format="1">
  <advance width="339"/>
  <unicode hex="0236"/>
  <outline>
    <contour>
      <point x="184" y="124" type="curve"/>
      <point x="187" y="81"/>
      <point x="197" y="36"/>
      <point x="237" y="36" type="curve" smooth="yes"/>
      <point x="277" y="36"/>
      <point x="307" y="71"/>
      <point x="307" y="110" type="curve" smooth="yes"/>
      <point x="307" y="140"/>
      <point x="292" y="152"/>
      <point x="262" y="152" type="curve" smooth="yes"/>
      <point x="227" y="152"/>
      <point x="208" y="140"/>
    </contour>
    <contour>
      <point x="269" y="196" type="curve"/>
      <point x="271" y="194" type="line"/>
      <point x="320" y="194"/>
      <point x="355" y="166"/>
      <point x="355" y="117" type="curve" smooth="yes"/>
      <point x="355" y="54"/>
      <point x="322" y="14"/>
      <point x="275" y="-4" type="curve" smooth="yes"/>
      <point x="258" y="-10"/>
      <point x="239" y="-13"/>
      <point x="218" y="-13" type="curve" smooth="yes"/>
      <point x="162" y="-13"/>
      <point x="123" y="6"/>
      <point x="105" y="44" type="curve"/>
      <point x="69" y="0"/>
      <point x="35" y="-58"/>
      <point x="12" y="-112" type="curve"/>
      <point x="-30" y="-93" type="line"/>
      <point x="-1" y="-21"/>
      <point x="41" y="46"/>
      <point x="91" y="99" type="curve"/>
      <point x="91" y="432" type="line"/>
      <point x="27" y="432" type="line"/>
      <point x="27" y="465" type="line"/>
      <point x="95" y="497" type="line"/>
      <point x="140" y="603" type="line"/>
      <point x="184" y="603" type="line"/>
      <point x="184" y="482" type="line"/>
      <point x="325" y="482" type="line"/>
      <point x="325" y="432" type="line"/>
      <point x="184" y="432" type="line"/>
      <point x="184" y="171" type="line"/>
      <point x="210" y="186"/>
      <point x="232" y="196"/>
    </contour>
  </outline>
</glyph>
<glyph name="uni0239" format="1">
  <advance width="840"/>
  <unicode hex="0239"/>
  <outline>
    <contour>
      <point x="286" y="47" type="curve" smooth="yes"/>
      <point x="285" y="47" type="line" smooth="yes"/>
      <point x="317" y="47"/>
      <point x="346" y="55"/>
      <point x="371" y="61" type="curve"/>
      <point x="371" y="437" type="line"/>
      <point x="351" y="441"/>
      <point x="329" y="448"/>
      <point x="303" y="448" type="curve" smooth="yes"/>
      <point x="186" y="448"/>
      <point x="135" y="362"/>
      <point x="135" y="245" type="curve" smooth="yes"/>
      <point x="135" y="160"/>
      <point x="162" y="94"/>
      <point x="217" y="63" type="curve" smooth="yes"/>
      <point x="236" y="52"/>
      <point x="259" y="47"/>
    </contour>
    <contour>
      <point x="464" y="50" type="line"/>
      <point x="465" y="50" type="line"/>
      <point x="488" y="42"/>
      <point x="513" y="34"/>
      <point x="545" y="34" type="curve" smooth="yes"/>
      <point x="631" y="34"/>
      <point x="677" y="91"/>
      <point x="696" y="159" type="curve" smooth="yes"/>
      <point x="703" y="183"/>
      <point x="706" y="208"/>
      <point x="706" y="234" type="curve" smooth="yes"/>
      <point x="706" y="314"/>
      <point x="677" y="380"/>
      <point x="626" y="409" type="curve" smooth="yes"/>
      <point x="609" y="419"/>
      <point x="589" y="424"/>
      <point x="566" y="424" type="curve" smooth="yes"/>
      <point x="541" y="424"/>
      <point x="514" y="416"/>
      <point x="496" y="409" type="curve" smooth="yes"/>
      <point x="485" y="405"/>
      <point x="474" y="400"/>
      <point x="464" y="394" type="curve"/>
    </contour>
    <contour>
      <point x="554" y="-12" type="curve"/>
      <point x="553" y="-10" type="line"/>
      <point x="521" y="-10"/>
      <point x="491" y="-6"/>
      <point x="464" y="-1" type="curve"/>
      <point x="464" y="-152" type="line" smooth="yes"/>
      <point x="464" y="-165"/>
      <point x="474" y="-171"/>
      <point x="485" y="-173" type="curve" smooth="yes"/>
      <point x="533" y="-178" type="line"/>
      <point x="533" y="-216" type="line"/>
      <point x="291" y="-216" type="line"/>
      <point x="291" y="-178" type="line"/>
      <point x="350" y="-173" type="line" smooth="yes"/>
      <point x="361" y="-172"/>
      <point x="371" y="-165"/>
      <point x="371" y="-153" type="curve" smooth="yes"/>
      <point x="371" y="28" type="line"/>
      <point x="341" y="13"/>
      <point x="305" y="0"/>
      <point x="267" y="-7" type="curve" smooth="yes"/>
      <point x="255" y="-9"/>
      <point x="243" y="-10"/>
      <point x="232" y="-10" type="curve" smooth="yes"/>
      <point x="130" y="-10"/>
      <point x="73" y="58"/>
      <point x="48" y="137" type="curve" smooth="yes"/>
      <point x="39" y="166"/>
      <point x="34" y="197"/>
      <point x="34" y="230" type="curve" smooth="yes"/>
      <point x="34" y="362"/>
      <point x="101" y="442"/>
      <point x="201" y="476" type="curve" smooth="yes"/>
      <point x="237" y="488"/>
      <point x="278" y="494"/>
      <point x="323" y="494" type="curve" smooth="yes"/>
      <point x="374" y="494"/>
      <point x="422" y="486"/>
      <point x="465" y="478" type="curve"/>
      <point x="465" y="432" type="line"/>
      <point x="492" y="454"/>
      <point x="522" y="471"/>
      <point x="559" y="484" type="curve" smooth="yes"/>
      <point x="577" y="490"/>
      <point x="596" y="493"/>
      <point x="616" y="493" type="curve" smooth="yes"/>
      <point x="676" y="493"/>
      <point x="720" y="462"/>
      <point x="749" y="426" type="curve" smooth="yes"/>
      <point x="783" y="384"/>
      <point x="806" y="322"/>
      <point x="806" y="247" type="curve" smooth="yes"/>
      <point x="806" y="123"/>
      <point x="749" y="41"/>
      <point x="659" y="6" type="curve" smooth="yes"/>
      <point x="628" y="-6"/>
      <point x="593" y="-12"/>
    </contour>
  </outline>
</glyph>
<glyph name="uni023A" format="1">
  <advance width="673"/>
  <unicode hex="023A"/>
  <outline>
    <contour>
      <point x="431" y="0" type="line"/>
      <point x="431" y="44" type="line"/>
      <point x="489" y="49" type="line" smooth="yes"/>
      <point x="495" y="49"/>
      <point x="501" y="60"/>
      <point x="499" y="66" type="curve" smooth="yes"/>
      <point x="430" y="249" type="line"/>
      <point x="319" y="249" type="line"/>
      <point x="198" y="44" type="line"/>
      <point x="206" y="44" type="line"/>
      <point x="206" y="1" type="line"/>
      <point x="172" y="1" type="line"/>
      <point x="125" y="-78" type="line"/>
      <point x="79" y="-50" type="line"/>
      <point x="109" y="1" type="line"/>
      <point x="5" y="1" type="line"/>
      <point x="5" y="44" type="line"/>
      <point x="63" y="56" type="line"/>
      <point x="296" y="688" type="line"/>
      <point x="371" y="688" type="line"/>
      <point x="428" y="537" type="line"/>
      <point x="554" y="749" type="line"/>
      <point x="601" y="721" type="line"/>
      <point x="452" y="472" type="line"/>
      <point x="603" y="71" type="line" smooth="yes"/>
      <point x="607" y="57"/>
      <point x="609" y="54"/>
      <point x="624" y="51" type="curve" smooth="yes"/>
      <point x="669" y="43" type="line"/>
      <point x="669" y="0" type="line"/>
    </contour>
    <contour>
      <point x="314" y="559" type="line"/>
      <point x="217" y="297" type="line"/>
      <point x="285" y="297" type="line"/>
      <point x="363" y="428" type="line"/>
    </contour>
    <contour>
      <point x="133" y="69" type="line" smooth="yes"/>
      <point x="131" y="62"/>
      <point x="136" y="55"/>
      <point x="140" y="52" type="curve"/>
      <point x="256" y="249" type="line"/>
      <point x="199" y="249" type="line"/>
    </contour>
    <contour>
      <point x="412" y="297" type="line"/>
      <point x="387" y="363" type="line"/>
      <point x="348" y="297" type="line"/>
    </contour>
  </outline>
</glyph>
<glyph name="uni023C" format="1">
  <advance width="465"/>
  <unicode hex="023C"/>
  <outline>
    <contour>
      <point x="263" y="-12" type="curve"/>
      <point x="263" y="-13" type="line"/>
      <point x="211" y="-13"/>
      <point x="165" y="1"/>
      <point x="133" y="25" type="curve"/>
      <point x="71" y="-83" type="line"/>
      <point x="36" y="-62" type="line"/>
      <point x="101" y="52" type="line" smooth="yes"/>
      <point x="100" y="54"/>
      <point x="98" y="56"/>
      <point x="96" y="58" type="curve" smooth="yes"/>
      <point x="59" y="100"/>
      <point x="34" y="160"/>
      <point x="34" y="237" type="curve" smooth="yes"/>
      <point x="34" y="361"/>
      <point x="94" y="443"/>
      <point x="183" y="477" type="curve" smooth="yes"/>
      <point x="212" y="488"/>
      <point x="243" y="494"/>
      <point x="275" y="494" type="curve" smooth="yes"/>
      <point x="301" y="494"/>
      <point x="326" y="491"/>
      <point x="347" y="484" type="curve"/>
      <point x="391" y="561" type="line"/>
      <point x="427" y="541" type="line"/>
      <point x="385" y="468" type="line"/>
      <point x="409" y="453"/>
      <point x="429" y="430"/>
      <point x="429" y="394" type="curve" smooth="yes"/>
      <point x="429" y="358"/>
      <point x="405" y="335"/>
      <point x="370" y="335" type="curve" smooth="yes"/>
      <point x="348" y="335"/>
      <point x="333" y="344"/>
      <point x="320" y="352" type="curve"/>
      <point x="320" y="354" type="line"/>
      <point x="178" y="107" type="line"/>
      <point x="205" y="75"/>
      <point x="243" y="50"/>
      <point x="301" y="51" type="curve" smooth="yes"/>
      <point x="356" y="51"/>
      <point x="394" y="70"/>
      <point x="431" y="94" type="curve"/>
      <point x="431" y="37" type="line"/>
      <point x="385" y="12"/>
      <point x="333" y="-12"/>
    </contour>
    <contour>
      <point x="321" y="438" type="line"/>
      <point x="321" y="439" type="line"/>
      <point x="310" y="446"/>
      <point x="295" y="452"/>
      <point x="279" y="452" type="curve" smooth="yes"/>
      <point x="201" y="452"/>
      <point x="163" y="394"/>
      <point x="146" y="331" type="curve" smooth="yes"/>
      <point x="139" y="306"/>
      <point x="136" y="279"/>
      <point x="136" y="250" type="curve" smooth="yes"/>
      <point x="136" y="211"/>
      <point x="143" y="175"/>
      <point x="155" y="147" type="curve"/>
      <point x="321" y="436" type="line"/>
    </contour>
  </outline>
</glyph>
<glyph name="uni023E" format="1">
  <advance width="599"/>
  <unicode hex="023E"/>
  <outline>
    <contour>
      <point x="524" y="511" type="line"/>
      <point x="510" y="605" type="line" smooth="yes"/>
      <point x="509" y="612"/>
      <point x="506" y="615"/>
      <point x="502" y="619" type="curve"/>
      <point x="350" y="364" type="line"/>
      <point x="350" y="69" type="line" smooth="yes"/>
      <point x="350" y="57"/>
      <point x="359" y="48"/>
      <point x="371" y="47" type="curve" smooth="yes"/>
      <point x="435" y="43" type="line"/>
      <point x="435" y="0" type="line"/>
      <point x="164" y="0" type="line"/>
      <point x="164" y="43" type="line"/>
      <point x="228" y="47" type="line" smooth="yes"/>
      <point x="240" y="48"/>
      <point x="249" y="57"/>
      <point x="249" y="69" type="curve" smooth="yes"/>
      <point x="249" y="195" type="line"/>
      <point x="86" y="-79" type="line"/>
      <point x="40" y="-51" type="line"/>
      <point x="249" y="301" type="line"/>
      <point x="249" y="622" type="line"/>
      <point x="105" y="622" type="line" smooth="yes"/>
      <point x="95" y="622"/>
      <point x="89" y="615"/>
      <point x="88" y="605" type="curve" smooth="yes"/>
      <point x="74" y="511" type="line"/>
      <point x="16" y="511" type="line"/>
      <point x="16" y="671" type="line"/>
      <point x="469" y="671" type="line"/>
      <point x="515" y="748" type="line"/>
      <point x="562" y="720" type="line"/>
      <point x="533" y="671" type="line"/>
      <point x="583" y="671" type="line"/>
      <point x="583" y="511" type="line"/>
    </contour>
    <contour>
      <point x="350" y="471" type="line"/>
      <point x="439" y="622" type="line"/>
      <point x="350" y="622" type="line"/>
    </contour>
  </outline>
</glyph>
<glyph name="uni0242" format="1">
  <advance width="387"/>
  <unicode hex="0242"/>
  <outline>
    <contour>
      <point x="171" y="494" type="curve"/>
      <point x="171" y="495" type="line"/>
      <point x="277" y="495"/>
      <point x="353" y="453"/>
      <point x="353" y="349" type="curve" smooth="yes"/>
      <point x="353" y="263"/>
      <point x="298" y="232"/>
      <point x="234" y="209" type="curve"/>
      <point x="234" y="59" type="line" smooth="yes"/>
      <point x="234" y="50"/>
      <point x="243" y="43"/>
      <point x="251" y="43" type="curve" smooth="yes"/>
      <point x="302" y="40" type="line"/>
      <point x="302" y="1" type="line"/>
      <point x="74" y="1" type="line"/>
      <point x="74" y="40" type="line"/>
      <point x="125" y="43" type="line" smooth="yes"/>
      <point x="133" y="43"/>
      <point x="142" y="50"/>
      <point x="142" y="59" type="curve" smooth="yes"/>
      <point x="142" y="222" type="line"/>
      <point x="205" y="237"/>
      <point x="257" y="271"/>
      <point x="257" y="348" type="curve" smooth="yes"/>
      <point x="257" y="407"/>
      <point x="229" y="452"/>
      <point x="172" y="452" type="curve" smooth="yes"/>
      <point x="160" y="452"/>
      <point x="146" y="449"/>
      <point x="138" y="444" type="curve"/>
      <point x="105" y="358" type="line" smooth="yes"/>
      <point x="103" y="358"/>
      <point x="101" y="358"/>
      <point x="99" y="357" type="curve" smooth="yes"/>
      <point x="91" y="357" type="line" smooth="yes"/>
      <point x="61" y="357"/>
      <point x="34" y="375"/>
      <point x="34" y="405" type="curve" smooth="yes"/>
      <point x="34" y="430"/>
      <point x="52" y="451"/>
      <point x="69" y="464" type="curve" smooth="yes"/>
      <point x="93" y="482"/>
      <point x="128" y="494"/>
    </contour>
  </outline>
</glyph>
<glyph name="uni0243" format="1">
  <advance width="604"/>
  <unicode hex="0243"/>
  <outline>
    <contour>
      <point x="300" y="671" type="line"/>
      <point x="299" y="671" type="line" smooth="yes"/>
      <point x="426" y="671"/>
      <point x="525" y="633"/>
      <point x="525" y="510" type="curve" smooth="yes"/>
      <point x="525" y="415"/>
      <point x="454" y="376"/>
      <point x="380" y="356" type="curve"/>
      <point x="461" y="356"/>
      <point x="520" y="326"/>
      <point x="549" y="272" type="curve" smooth="yes"/>
      <point x="560" y="252"/>
      <point x="566" y="227"/>
      <point x="566" y="198" type="curve" smooth="yes"/>
      <point x="566" y="55"/>
      <point x="453" y="0"/>
      <point x="312" y="0" type="curve" smooth="yes"/>
      <point x="32" y="0" type="line"/>
      <point x="32" y="43" type="line"/>
      <point x="85" y="47" type="line" smooth="yes"/>
      <point x="97" y="48"/>
      <point x="106" y="57"/>
      <point x="106" y="69" type="curve" smooth="yes"/>
      <point x="106" y="178" type="line"/>
      <point x="17" y="178" type="line"/>
      <point x="17" y="229" type="line"/>
      <point x="106" y="229" type="line"/>
      <point x="106" y="602" type="line" smooth="yes"/>
      <point x="106" y="614"/>
      <point x="97" y="622"/>
      <point x="85" y="623" type="curve" smooth="yes"/>
      <point x="32" y="628" type="line"/>
      <point x="32" y="671" type="line"/>
    </contour>
    <contour>
      <point x="266" y="49" type="line"/>
      <point x="265" y="49" type="line" smooth="yes"/>
      <point x="380" y="49"/>
      <point x="455" y="77"/>
      <point x="455" y="190" type="curve" smooth="yes"/>
      <point x="455" y="286"/>
      <point x="394" y="322"/>
      <point x="294" y="322" type="curve" smooth="yes"/>
      <point x="264" y="322"/>
      <point x="231" y="316"/>
      <point x="204" y="316" type="curve"/>
      <point x="204" y="229" type="line"/>
      <point x="353" y="229" type="line"/>
      <point x="353" y="178" type="line"/>
      <point x="204" y="178" type="line"/>
      <point x="204" y="52" type="line"/>
      <point x="219" y="51"/>
      <point x="232" y="49"/>
      <point x="248" y="49" type="curve" smooth="yes"/>
    </contour>
    <contour>
      <point x="240" y="368" type="line" smooth="yes"/>
      <point x="347" y="368"/>
      <point x="415" y="400"/>
      <point x="415" y="504" type="curve" smooth="yes"/>
      <point x="415" y="591"/>
      <point x="353" y="625"/>
      <point x="261" y="625" type="curve" smooth="yes"/>
      <point x="242" y="625"/>
      <point x="222" y="622"/>
      <point x="204" y="622" type="curve"/>
      <point x="204" y="369" type="line"/>
      <point x="218" y="369" type="line" smooth="yes"/>
      <point x="222" y="369"/>
      <point x="226" y="369"/>
      <point x="229" y="368" type="curve" smooth="yes"/>
    </contour>
  </outline>
</glyph>
<glyph name="uni0246" format="1">
  <advance width="583"/>
  <unicode hex="0246"/>
  <outline>
    <contour>
      <point x="376" y="306" type="line"/>
      <point x="377" y="306" type="line"/>
      <point x="377" y="313"/>
      <point x="366" y="324"/>
      <point x="359" y="324" type="curve" smooth="yes"/>
      <point x="303" y="324" type="line"/>
      <point x="209" y="167" type="line"/>
      <point x="209" y="49" type="line"/>
      <point x="462" y="49" type="line" smooth="yes"/>
      <point x="470" y="49"/>
      <point x="478" y="61"/>
      <point x="479" y="68" type="curve" smooth="yes"/>
      <point x="497" y="167" type="line"/>
      <point x="551" y="167" type="line"/>
      <point x="551" y="0" type="line"/>
      <point x="108" y="0" type="line"/>
      <point x="62" y="-79" type="line"/>
      <point x="16" y="-51" type="line"/>
      <point x="46" y="0" type="line"/>
      <point x="32" y="0" type="line"/>
      <point x="32" y="43" type="line"/>
      <point x="73" y="46" type="line"/>
      <point x="106" y="101" type="line"/>
      <point x="106" y="602" type="line" smooth="yes"/>
      <point x="106" y="614"/>
      <point x="96" y="623"/>
      <point x="84" y="624" type="curve" smooth="yes"/>
      <point x="32" y="628" type="line"/>
      <point x="32" y="671" type="line"/>
      <point x="444" y="671" type="line"/>
      <point x="490" y="748" type="line"/>
      <point x="538" y="720" type="line"/>
      <point x="508" y="671" type="line"/>
      <point x="518" y="671" type="line"/>
      <point x="518" y="522" type="line"/>
      <point x="458" y="522" type="line"/>
      <point x="449" y="571" type="line"/>
      <point x="332" y="374" type="line"/>
      <point x="358" y="374" type="line" smooth="yes"/>
      <point x="366" y="374"/>
      <point x="376" y="383"/>
      <point x="376" y="391" type="curve" smooth="yes"/>
      <point x="386" y="460" type="line"/>
      <point x="437" y="460" type="line"/>
      <point x="437" y="237" type="line"/>
      <point x="386" y="237" type="line"/>
    </contour>
    <contour>
      <point x="209" y="374" type="line"/>
      <point x="269" y="374" type="line"/>
      <point x="417" y="623" type="line"/>
      <point x="209" y="623" type="line"/>
    </contour>
    <contour>
      <point x="209" y="273" type="line"/>
      <point x="239" y="324" type="line"/>
      <point x="209" y="324" type="line"/>
    </contour>
  </outline>
</glyph>
<glyph name="uni0252" format="1">
  <advance width="563"/>
  <unicode hex="0252"/>
  <outline>
    <contour>
      <point x="285" y="424" type="curve" smooth="yes"/>
      <point x="244" y="424"/>
      <point x="207" y="406"/>
      <point x="181" y="391" type="curve"/>
      <point x="181" y="78" type="line"/>
      <point x="199" y="58"/>
      <point x="234" y="35"/>
      <point x="270" y="35" type="curve" smooth="yes"/>
      <point x="354" y="35"/>
      <point x="400" y="90"/>
      <point x="419" y="156" type="curve" smooth="yes"/>
      <point x="426" y="181"/>
      <point x="430" y="209"/>
      <point x="430" y="239" type="curve" smooth="yes"/>
      <point x="430" y="321"/>
      <point x="401" y="383"/>
      <point x="346" y="410" type="curve" smooth="yes"/>
      <point x="328" y="419"/>
      <point x="308" y="424"/>
    </contour>
    <contour>
      <point x="277" y="-12" type="curve"/>
      <point x="275" y="-14" type="line"/>
      <point x="238" y="-14"/>
      <point x="201" y="5"/>
      <point x="179" y="24" type="curve"/>
      <point x="118" y="-14" type="line"/>
      <point x="88" y="-14" type="line"/>
      <point x="88" y="417" type="line" smooth="yes"/>
      <point x="88" y="429"/>
      <point x="75" y="435"/>
      <point x="66" y="438" type="curve" smooth="yes"/>
      <point x="24" y="442" type="line"/>
      <point x="24" y="480" type="line"/>
      <point x="181" y="480" type="line"/>
      <point x="181" y="427" type="line"/>
      <point x="214" y="452"/>
      <point x="249" y="475"/>
      <point x="294" y="487" type="curve" smooth="yes"/>
      <point x="308" y="491"/>
      <point x="322" y="493"/>
      <point x="337" y="493" type="curve" smooth="yes"/>
      <point x="441" y="493"/>
      <point x="496" y="422"/>
      <point x="518" y="340" type="curve" smooth="yes"/>
      <point x="526" y="312"/>
      <point x="530" y="284"/>
      <point x="530" y="256" type="curve" smooth="yes"/>
      <point x="530" y="135"/>
      <point x="473" y="50"/>
      <point x="388" y="10" type="curve" smooth="yes"/>
      <point x="356" y="-5"/>
      <point x="319" y="-12"/>
    </contour>
  </outline>
</glyph>
<glyph name="uni025C" format="1">
  <advance width="438"/>
  <unicode hex="025C"/>
  <outline>
    <contour>
      <point x="287" y="245" type="curve"/>
      <point x="289" y="245" type="line"/>
      <point x="352" y="236"/>
      <point x="407" y="205"/>
      <point x="407" y="134" type="curve" smooth="yes"/>
      <point x="407" y="24"/>
      <point x="320" y="-13"/>
      <point x="200" y="-13" type="curve" smooth="yes"/>
      <point x="146" y="-13"/>
      <point x="102" y="9"/>
      <point x="67" y="31" type="curve" smooth="yes"/>
      <point x="52" y="40"/>
      <point x="38" y="50"/>
      <point x="25" y="61" type="curve"/>
      <point x="25" y="119" type="line"/>
      <point x="59" y="86"/>
      <point x="100" y="56"/>
      <point x="152" y="42" type="curve" smooth="yes"/>
      <point x="168" y="38"/>
      <point x="184" y="36"/>
      <point x="200" y="36" type="curve" smooth="yes"/>
      <point x="269" y="36"/>
      <point x="310" y="69"/>
      <point x="310" y="135" type="curve" smooth="yes"/>
      <point x="310" y="197"/>
      <point x="269" y="215"/>
      <point x="208" y="215" type="curve" smooth="yes"/>
      <point x="176" y="215" type="line"/>
      <point x="176" y="258" type="line"/>
      <point x="247" y="258"/>
      <point x="288" y="291"/>
      <point x="288" y="362" type="curve" smooth="yes"/>
      <point x="288" y="418"/>
      <point x="250" y="452"/>
      <point x="195" y="452" type="curve" smooth="yes"/>
      <point x="170" y="452"/>
      <point x="150" y="444"/>
      <point x="141" y="430" type="curve" smooth="yes"/>
      <point x="139" y="427"/>
      <point x="138" y="426"/>
      <point x="137" y="426" type="curve" smooth="yes"/>
      <point x="137" y="355" type="line"/>
      <point x="126" y="342"/>
      <point x="108" y="334"/>
      <point x="84" y="334" type="curve" smooth="yes"/>
      <point x="54" y="334"/>
      <point x="31" y="363"/>
      <point x="31" y="393" type="curve" smooth="yes"/>
      <point x="31" y="452"/>
      <point x="85" y="476"/>
      <point x="136" y="487" type="curve" smooth="yes"/>
      <point x="158" y="492"/>
      <point x="182" y="494"/>
      <point x="209" y="494" type="curve" smooth="yes"/>
      <point x="283" y="494"/>
      <point x="339" y="462"/>
      <point x="367" y="415" type="curve" smooth="yes"/>
      <point x="376" y="399"/>
      <point x="381" y="382"/>
      <point x="381" y="363" type="curve" smooth="yes"/>
      <point x="381" y="318"/>
      <point x="356" y="287"/>
      <point x="329" y="266" type="curve" smooth="yes"/>
      <point x="317" y="257"/>
      <point x="303" y="250"/>
    </contour>
  </outline>
</glyph>
<glyph name="uni0266" format="1">
  <advance width="574"/>
  <unicode hex="0266"/>
  <outline>
    <contour>
      <point x="348" y="494" type="curve"/>
      <point x="347" y="495" type="line"/>
      <point x="436" y="495"/>
      <point x="483" y="435"/>
      <point x="483" y="344" type="curve" smooth="yes"/>
      <point x="483" y="65" type="line" smooth="yes"/>
      <point x="483" y="53"/>
      <point x="494" y="45"/>
      <point x="505" y="44" type="curve" smooth="yes"/>
      <point x="550" y="41" type="line"/>
      <point x="550" y="2" type="line"/>
      <point x="327" y="2" type="line"/>
      <point x="327" y="41" type="line"/>
      <point x="368" y="44" type="line" smooth="yes"/>
      <point x="379" y="45"/>
      <point x="390" y="53"/>
      <point x="390" y="65" type="curve" smooth="yes"/>
      <point x="390" y="323" type="line" smooth="yes"/>
      <point x="390" y="389"/>
      <point x="359" y="422"/>
      <point x="291" y="422" type="curve" smooth="yes"/>
      <point x="248" y="422"/>
      <point x="211" y="409"/>
      <point x="182" y="393" type="curve"/>
      <point x="182" y="65" type="line" smooth="yes"/>
      <point x="182" y="53"/>
      <point x="191" y="45"/>
      <point x="202" y="44" type="curve" smooth="yes"/>
      <point x="245" y="41" type="line"/>
      <point x="245" y="2" type="line"/>
      <point x="20" y="2" type="line"/>
      <point x="20" y="41" type="line"/>
      <point x="68" y="44" type="line" smooth="yes"/>
      <point x="79" y="45"/>
      <point x="89" y="53"/>
      <point x="89" y="65" type="curve" smooth="yes"/>
      <point x="89" y="518" type="line" smooth="yes"/>
      <point x="89" y="568"/>
      <point x="108" y="612"/>
      <point x="129" y="647" type="curve" smooth="yes"/>
      <point x="160" y="699"/>
      <point x="215" y="738"/>
      <point x="298" y="738" type="curve" smooth="yes"/>
      <point x="386" y="738"/>
      <point x="473" y="722"/>
      <point x="473" y="636" type="curve" smooth="yes"/>
      <point x="473" y="605"/>
      <point x="449" y="579"/>
      <point x="418" y="579" type="curve" smooth="yes"/>
      <point x="408" y="579"/>
      <point x="401" y="582"/>
      <point x="394" y="584" type="curve"/>
      <point x="360" y="668" type="line"/>
      <point x="349" y="678"/>
      <point x="324" y="687"/>
      <point x="303" y="687" type="curve" smooth="yes"/>
      <point x="266" y="687"/>
      <point x="238" y="667"/>
      <point x="219" y="644" type="curve" smooth="yes"/>
      <point x="196" y="615"/>
      <point x="182" y="571"/>
      <point x="182" y="518" type="curve" smooth="yes"/>
      <point x="182" y="433" type="line"/>
      <point x="218" y="453"/>
      <point x="260" y="476"/>
      <point x="305" y="488" type="curve" smooth="yes"/>
      <point x="321" y="492"/>
      <point x="335" y="494"/>
    </contour>
  </outline>
</glyph>
<glyph name="uni0268" format="1">
  <advance width="303"/>
  <unicode hex="0268"/>
  <outline>
    <contour>
      <point x="197" y="221" type="line"/>
      <point x="197" y="64" type="line" smooth="yes"/>
      <point x="197" y="52"/>
      <point x="207" y="44"/>
      <point x="218" y="43" type="curve" smooth="yes"/>
      <point x="269" y="40" type="line"/>
      <point x="269" y="1" type="line"/>
      <point x="34" y="1" type="line"/>
      <point x="34" y="40" type="line"/>
      <point x="83" y="43" type="line" smooth="yes"/>
      <point x="94" y="44"/>
      <point x="104" y="52"/>
      <point x="104" y="64" type="curve" smooth="yes"/>
      <point x="104" y="221" type="line"/>
      <point x="27" y="221" type="line"/>
      <point x="27" y="271" type="line"/>
      <point x="104" y="271" type="line"/>
      <point x="104" y="421" type="line"/>
      <point x="35" y="421" type="line"/>
      <point x="35" y="456" type="line"/>
      <point x="157" y="494" type="line"/>
      <point x="197" y="494" type="line"/>
      <point x="197" y="271" type="line"/>
      <point x="276" y="271" type="line"/>
      <point x="276" y="221" type="line"/>
    </contour>
    <contour>
      <point x="95" y="647" type="curve" smooth="yes"/>
      <point x="95" y="682"/>
      <point x="122" y="708"/>
      <point x="157" y="708" type="curve" smooth="yes"/>
      <point x="192" y="708"/>
      <point x="218" y="682"/>
      <point x="218" y="647" type="curve" smooth="yes"/>
      <point x="218" y="612"/>
      <point x="192" y="585"/>
      <point x="157" y="585" type="curve" smooth="yes"/>
      <point x="122" y="585"/>
      <point x="95" y="612"/>
    </contour>
  </outline>
</glyph>
<glyph name="uni026B" format="1">
  <advance width="363"/>
  <unicode hex="026B"/>
  <outline>
    <contour>
      <point x="267" y="396" type="curve" smooth="yes"/>
      <point x="266" y="396" type="line" smooth="yes"/>
      <point x="295" y="396"/>
      <point x="319" y="418"/>
      <point x="322" y="444" type="curve"/>
      <point x="364" y="444" type="line"/>
      <point x="351" y="385"/>
      <point x="317" y="333"/>
      <point x="245" y="333" type="curve" smooth="yes"/>
      <point x="241" y="333"/>
      <point x="232" y="334"/>
      <point x="229" y="335" type="curve" smooth="yes"/>
      <point x="229" y="64" type="line" smooth="yes"/>
      <point x="229" y="54"/>
      <point x="241" y="44"/>
      <point x="250" y="43" type="curve" smooth="yes"/>
      <point x="303" y="39" type="line"/>
      <point x="303" y="0" type="line"/>
      <point x="60" y="0" type="line"/>
      <point x="60" y="39" type="line"/>
      <point x="114" y="43" type="line" smooth="yes"/>
      <point x="123" y="44"/>
      <point x="136" y="54"/>
      <point x="136" y="64" type="curve" smooth="yes"/>
      <point x="136" y="376" type="line"/>
      <point x="125" y="380"/>
      <point x="112" y="382"/>
      <point x="97" y="382" type="curve" smooth="yes"/>
      <point x="68" y="382"/>
      <point x="46" y="360"/>
      <point x="43" y="334" type="curve"/>
      <point x="0" y="334" type="line"/>
      <point x="16" y="391"/>
      <point x="47" y="444"/>
      <point x="119" y="444" type="curve" smooth="yes"/>
      <point x="127" y="444" type="line" smooth="yes"/>
      <point x="130" y="444"/>
      <point x="133" y="444"/>
      <point x="136" y="443" type="curve" smooth="yes"/>
      <point x="136" y="665" type="line"/>
      <point x="60" y="665" type="line"/>
      <point x="60" y="698" type="line"/>
      <point x="188" y="737" type="line"/>
      <point x="229" y="737" type="line"/>
      <point x="229" y="402" type="line"/>
      <point x="240" y="398"/>
      <point x="253" y="396"/>
    </contour>
  </outline>
</glyph>
<glyph name="uni0279" format="1">
  <advance width="391"/>
  <unicode hex="0279"/>
  <outline>
    <contour>
      <point x="49" y="102" type="line"/>
      <point x="49" y="101" type="line"/>
      <point x="62" y="87"/>
      <point x="77" y="74"/>
      <point x="103" y="74" type="curve" smooth="yes"/>
      <point x="119" y="74"/>
      <point x="135" y="80"/>
      <point x="152" y="91" type="curve" smooth="yes"/>
      <point x="169" y="102"/>
      <point x="186" y="117"/>
      <point x="203" y="136" type="curve"/>
      <point x="203" y="417" type="line" smooth="yes"/>
      <point x="203" y="429"/>
      <point x="193" y="437"/>
      <point x="182" y="438" type="curve" smooth="yes"/>
      <point x="116" y="441" type="line"/>
      <point x="116" y="480" type="line"/>
      <point x="366" y="480" type="line"/>
      <point x="366" y="442" type="line"/>
      <point x="317" y="438" type="line" smooth="yes"/>
      <point x="306" y="437"/>
      <point x="296" y="429"/>
      <point x="296" y="417" type="curve" smooth="yes"/>
      <point x="296" y="70" type="line"/>
      <point x="368" y="70" type="line"/>
      <point x="368" y="37" type="line"/>
      <point x="244" y="-1" type="line"/>
      <point x="203" y="-1" type="line"/>
      <point x="203" y="88" type="line"/>
      <point x="175" y="58"/>
      <point x="144" y="20"/>
      <point x="107" y="-1" type="curve" smooth="yes"/>
      <point x="94" y="-8"/>
      <point x="82" y="-12"/>
      <point x="71" y="-12" type="curve" smooth="yes"/>
      <point x="49" y="-12"/>
      <point x="25" y="-6"/>
      <point x="10" y="3" type="curve"/>
      <point x="10" y="102" type="line"/>
    </contour>
  </outline>
</glyph>
<glyph name="uni027F" format="1">
  <advance width="340"/>
  <unicode hex="027F"/>
  <outline>
    <contour>
      <point x="71" y="-218" type="line"/>
      <point x="72" y="-178" type="line"/>
      <point x="131" y="-175" type="line" smooth="yes"/>
      <point x="142" y="-174"/>
      <point x="152" y="-166"/>
      <point x="152" y="-154" type="curve" smooth="yes"/>
      <point x="152" y="294" type="line" smooth="yes"/>
      <point x="152" y="334"/>
      <point x="150" y="367"/>
      <point x="142" y="396" type="curve" smooth="yes"/>
      <point x="136" y="417"/>
      <point x="127" y="430"/>
      <point x="111" y="439" type="curve"/>
      <point x="20" y="374" type="line"/>
      <point x="13" y="374"/>
      <point x="0" y="384"/>
      <point x="-6" y="389" type="curve" smooth="yes"/>
      <point x="-17" y="399"/>
      <point x="-27" y="412"/>
      <point x="-27" y="433" type="curve" smooth="yes"/>
      <point x="-27" y="475"/>
      <point x="15" y="493"/>
      <point x="59" y="493" type="curve" smooth="yes"/>
      <point x="203" y="493"/>
      <point x="244" y="363"/>
      <point x="244" y="220" type="curve" smooth="yes"/>
      <point x="244" y="-155" type="line" smooth="yes"/>
      <point x="244" y="-167"/>
      <point x="254" y="-175"/>
      <point x="265" y="-176" type="curve" smooth="yes"/>
      <point x="314" y="-179" type="line"/>
      <point x="314" y="-218" type="line"/>
    </contour>
  </outline>
</glyph>
